<?xml version="1.0" encoding="UTF-8" standalone="no"?><svg xmlns="http://www.w3.org/2000/svg" xmlns:xlink="http://www.w3.org/1999/xlink" contentScriptType="application/ecmascript" contentStyleType="text/css" height="583px" preserveAspectRatio="none" style="width:527px;height:583px;" version="1.1" viewBox="0 0 527 583" width="527px" zoomAndPan="magnify"><defs><filter height="300%" id="f15t0lceifk56y" width="300%" x="-1" y="-1"><feGaussianBlur result="blurOut" stdDeviation="2.0"/><feColorMatrix in="blurOut" result="blurOut2" type="matrix" values="0 0 0 0 0 0 0 0 0 0 0 0 0 0 0 0 0 0 .4 0"/><feOffset dx="4.0" dy="4.0" in="blurOut2" result="blurOut3"/><feBlend in="SourceGraphic" in2="blurOut3" mode="normal"/></filter></defs><g><rect fill="#FFFFFF" filter="url(#f15t0lceifk56y)" height="258.0625" style="stroke: #FFFFFF; stroke-width: 1.0;" width="10" x="114.5" y="146.4297"/><line style="stroke: #A80036; stroke-width: 1.0;" x1="114.5" x2="114.5" y1="146.4297" y2="404.4922"/><line style="stroke: #A80036; stroke-width: 1.0;" x1="124.5" x2="124.5" y1="146.4297" y2="404.4922"/><line style="stroke: #A80036; stroke-width: 1.0;" x1="114.5" x2="124.5" y1="146.4297" y2="146.4297"/><rect fill="#FFFFFF" filter="url(#f15t0lceifk56y)" height="29.1328" style="stroke: #FFFFFF; stroke-width: 1.0;" width="10" x="114.5" y="432.4922"/><line style="stroke: #A80036; stroke-width: 1.0;" x1="114.5" x2="114.5" y1="432.4922" y2="461.625"/><line style="stroke: #A80036; stroke-width: 1.0;" x1="124.5" x2="124.5" y1="432.4922" y2="461.625"/><rect fill="#FFFFFF" filter="url(#f15t0lceifk56y)" height="73.2656" style="stroke: #FFFFFF; stroke-width: 1.0;" width="10" x="114.5" y="489.625"/><line style="stroke: #A80036; stroke-width: 1.0;" x1="114.5" x2="114.5" y1="489.625" y2="562.8906"/><line style="stroke: #A80036; stroke-width: 1.0;" x1="124.5" x2="124.5" y1="489.625" y2="562.8906"/><line style="stroke: #A80036; stroke-width: 1.0;" x1="114.5" x2="124.5" y1="562.8906" y2="562.8906"/><line style="stroke: #A80036; stroke-width: 1.0;" x1="38" x2="38" y1="86.2969" y2="404.4922"/><line style="stroke: #A80036; stroke-width: 1.0; stroke-dasharray: 1.0,4.0;" x1="38" x2="38" y1="404.4922" y2="432.4922"/><line style="stroke: #A80036; stroke-width: 1.0;" x1="38" x2="38" y1="432.4922" y2="461.625"/><line style="stroke: #A80036; stroke-width: 1.0; stroke-dasharray: 1.0,4.0;" x1="38" x2="38" y1="461.625" y2="489.625"/><line style="stroke: #A80036; stroke-width: 1.0;" x1="38" x2="38" y1="489.625" y2="571.8906"/><line style="stroke: #A80036; stroke-width: 1.0;" x1="119" x2="119" y1="86.2969" y2="404.4922"/><line style="stroke: #A80036; stroke-width: 1.0; stroke-dasharray: 1.0,4.0;" x1="119" x2="119" y1="404.4922" y2="432.4922"/><line style="stroke: #A80036; stroke-width: 1.0;" x1="119" x2="119" y1="432.4922" y2="461.625"/><line style="stroke: #A80036; stroke-width: 1.0; stroke-dasharray: 1.0,4.0;" x1="119" x2="119" y1="461.625" y2="489.625"/><line style="stroke: #A80036; stroke-width: 1.0;" x1="119" x2="119" y1="489.625" y2="571.8906"/><line style="stroke: #A80036; stroke-width: 1.0;" x1="255.5" x2="255.5" y1="86.2969" y2="404.4922"/><line style="stroke: #A80036; stroke-width: 1.0; stroke-dasharray: 1.0,4.0;" x1="255.5" x2="255.5" y1="404.4922" y2="432.4922"/><line style="stroke: #A80036; stroke-width: 1.0;" x1="255.5" x2="255.5" y1="432.4922" y2="461.625"/><line style="stroke: #A80036; stroke-width: 1.0; stroke-dasharray: 1.0,4.0;" x1="255.5" x2="255.5" y1="461.625" y2="489.625"/><line style="stroke: #A80036; stroke-width: 1.0;" x1="255.5" x2="255.5" y1="489.625" y2="571.8906"/><line style="stroke: #A80036; stroke-width: 1.0;" x1="467" x2="467" y1="86.2969" y2="404.4922"/><line style="stroke: #A80036; stroke-width: 1.0; stroke-dasharray: 1.0,4.0;" x1="467" x2="467" y1="404.4922" y2="432.4922"/><line style="stroke: #A80036; stroke-width: 1.0;" x1="467" x2="467" y1="432.4922" y2="461.625"/><line style="stroke: #A80036; stroke-width: 1.0; stroke-dasharray: 1.0,4.0;" x1="467" x2="467" y1="461.625" y2="489.625"/><line style="stroke: #A80036; stroke-width: 1.0;" x1="467" x2="467" y1="489.625" y2="571.8906"/><text fill="#000000" font-family="sans-serif" font-size="14" lengthAdjust="spacingAndGlyphs" textLength="55" x="8" y="82.9951">L7Policy</text><ellipse cx="38.5" cy="54" fill="#FEFECE" filter="url(#f15t0lceifk56y)" rx="12" ry="12" style="stroke: #A80036; stroke-width: 2.0;"/><line style="stroke: #A80036; stroke-width: 2.0;" x1="26.5" x2="50.5" y1="68" y2="68"/><text fill="#000000" font-family="sans-serif" font-size="14" lengthAdjust="spacingAndGlyphs" textLength="75" x="79" y="82.9951">Strategizer</text><ellipse cx="119.5" cy="13" fill="#FEFECE" filter="url(#f15t0lceifk56y)" rx="8" ry="8" style="stroke: #A80036; stroke-width: 2.0;"/><path d="M119.5,21 L119.5,48 M106.5,29 L132.5,29 M119.5,48 L106.5,63 M119.5,48 L132.5,63 " fill="#FEFECE" filter="url(#f15t0lceifk56y)" style="stroke: #A80036; stroke-width: 2.0;"/><text fill="#000000" font-family="sans-serif" font-size="14" lengthAdjust="spacingAndGlyphs" textLength="50" x="227.5" y="82.9951">HttpSM</text><ellipse cx="255.5" cy="13" fill="#FEFECE" filter="url(#f15t0lceifk56y)" rx="8" ry="8" style="stroke: #A80036; stroke-width: 2.0;"/><path d="M255.5,21 L255.5,48 M242.5,29 L268.5,29 M255.5,48 L242.5,63 M255.5,48 L268.5,63 " fill="#FEFECE" filter="url(#f15t0lceifk56y)" style="stroke: #A80036; stroke-width: 2.0;"/><rect fill="#FEFECE" filter="url(#f15t0lceifk56y)" height="30.2969" style="stroke: #A80036; stroke-width: 1.5;" width="81" x="425" y="51"/><text fill="#000000" font-family="sans-serif" font-size="14" lengthAdjust="spacingAndGlyphs" textLength="67" x="432" y="70.9951">Upstream</text><rect fill="#FFFFFF" filter="url(#f15t0lceifk56y)" height="258.0625" style="stroke: #FFFFFF; stroke-width: 1.0;" width="10" x="114.5" y="146.4297"/><line style="stroke: #A80036; stroke-width: 1.0;" x1="114.5" x2="114.5" y1="146.4297" y2="404.4922"/><line style="stroke: #A80036; stroke-width: 1.0;" x1="124.5" x2="124.5" y1="146.4297" y2="404.4922"/><line style="stroke: #A80036; stroke-width: 1.0;" x1="114.5" x2="124.5" y1="146.4297" y2="146.4297"/><rect fill="#FFFFFF" filter="url(#f15t0lceifk56y)" height="29.1328" style="stroke: #FFFFFF; stroke-width: 1.0;" width="10" x="114.5" y="432.4922"/><line style="stroke: #A80036; stroke-width: 1.0;" x1="114.5" x2="114.5" y1="432.4922" y2="461.625"/><line style="stroke: #A80036; stroke-width: 1.0;" x1="124.5" x2="124.5" y1="432.4922" y2="461.625"/><rect fill="#FFFFFF" filter="url(#f15t0lceifk56y)" height="73.2656" style="stroke: #FFFFFF; stroke-width: 1.0;" width="10" x="114.5" y="489.625"/><line style="stroke: #A80036; stroke-width: 1.0;" x1="114.5" x2="114.5" y1="489.625" y2="562.8906"/><line style="stroke: #A80036; stroke-width: 1.0;" x1="124.5" x2="124.5" y1="489.625" y2="562.8906"/><line style="stroke: #A80036; stroke-width: 1.0;" x1="114.5" x2="124.5" y1="562.8906" y2="562.8906"/><polygon fill="#A80036" points="49.5,113.2969,39.5,117.2969,49.5,117.2969" style="stroke: #A80036; stroke-width: 1.0;"/><line style="stroke: #A80036; stroke-width: 1.0;" x1="38.5" x2="254.5" y1="117.2969" y2="117.2969"/><text fill="#000000" font-family="sans-serif" font-size="13" lengthAdjust="spacingAndGlyphs" textLength="76" x="55.5" y="112.3638">create "tag"</text><polygon fill="#A80036" points="243.5,147.4297,253.5,147.4297,243.5,151.4297" style="stroke: #A80036; stroke-width: 1.0;"/><line style="stroke: #A80036; stroke-width: 1.0;" x1="38.5" x2="254.5" y1="146.4297" y2="146.4297"/><text fill="#000000" font-family="sans-serif" font-size="13" lengthAdjust="spacingAndGlyphs" textLength="118" x="45.5" y="141.4966">return: Strategizer</text><polygon fill="#A80036" points="243.5,176.5625,253.5,180.5625,243.5,184.5625,247.5,180.5625" style="stroke: #A80036; stroke-width: 1.0;"/><line style="stroke: #A80036; stroke-width: 1.0;" x1="124.5" x2="249.5" y1="180.5625" y2="180.5625"/><text fill="#000000" font-family="sans-serif" font-size="13" lengthAdjust="spacingAndGlyphs" textLength="107" x="131.5" y="175.6294">SESSION_READY</text><polygon fill="#FBFB77" filter="url(#f15t0lceifk56y)" points="260,159.5625,260,184.5625,389,184.5625,389,169.5625,379,159.5625,260,159.5625" style="stroke: #A80036; stroke-width: 1.0;"/><line style="stroke: #A80036; stroke-width: 1.0;" x1="379" x2="379" y1="159.5625" y2="169.5625"/><line style="stroke: #A80036; stroke-width: 1.0;" x1="389" x2="379" y1="169.5625" y2="169.5625"/><text fill="#000000" font-family="sans-serif" font-size="13" lengthAdjust="spacingAndGlyphs" textLength="108" x="266" y="176.6294">Contains session</text><polygon fill="#A80036" points="455.5,210.6953,465.5,214.6953,455.5,218.6953,459.5,214.6953" style="stroke: #A80036; stroke-width: 1.0;"/><line style="stroke: #A80036; stroke-width: 1.0;" x1="255.5" x2="461.5" y1="214.6953" y2="214.6953"/><text fill="#000000" font-family="sans-serif" font-size="13" lengthAdjust="spacingAndGlyphs" textLength="88" x="262.5" y="209.7622">HTTP Request</text><polygon fill="#A80036" points="266.5,239.8281,256.5,243.8281,266.5,247.8281,262.5,243.8281" style="stroke: #A80036; stroke-width: 1.0;"/><line style="stroke: #A80036; stroke-width: 1.0;" x1="260.5" x2="466.5" y1="243.8281" y2="243.8281"/><text fill="#000000" font-family="monospace" font-size="13" lengthAdjust="spacingAndGlyphs" textLength="104" x="272.5" y="238.895">404 NOT FOUND</text><line style="stroke: #A80036; stroke-width: 1.0;" x1="255.5" x2="297.5" y1="273.0938" y2="273.0938"/><line style="stroke: #A80036; stroke-width: 1.0;" x1="297.5" x2="297.5" y1="273.0938" y2="286.0938"/><line style="stroke: #A80036; stroke-width: 1.0;" x1="256.5" x2="297.5" y1="286.0938" y2="286.0938"/><polygon fill="#A80036" points="266.5,282.0938,256.5,286.0938,266.5,290.0938,262.5,286.0938" style="stroke: #A80036; stroke-width: 1.0;"/><text fill="#000000" font-family="sans-serif" font-size="13" lengthAdjust="spacingAndGlyphs" textLength="148" x="262.5" y="268.0278">Read response header.</text><polygon fill="#A80036" points="135.5,316.0938,125.5,320.0938,135.5,320.0938" style="stroke: #A80036; stroke-width: 1.0;"/><line style="stroke: #A80036; stroke-width: 1.0;" x1="124.5" x2="254.5" y1="320.0938" y2="320.0938"/><text fill="#000000" font-family="sans-serif" font-size="13" lengthAdjust="spacingAndGlyphs" textLength="36" x="141.5" y="315.1606">result</text><polygon fill="#FBFB77" filter="url(#f15t0lceifk56y)" points="260,299.0938,260,324.0938,407,324.0938,407,309.0938,397,299.0938,260,299.0938" style="stroke: #A80036; stroke-width: 1.0;"/><line style="stroke: #A80036; stroke-width: 1.0;" x1="397" x2="397" y1="299.0938" y2="309.0938"/><line style="stroke: #A80036; stroke-width: 1.0;" x1="407" x2="397" y1="309.0938" y2="309.0938"/><text fill="#000000" font-family="sans-serif" font-size="13" lengthAdjust="spacingAndGlyphs" textLength="126" x="266" y="316.1606">HTTP 404 Response</text><polygon fill="#A80036" points="243.5,355.2266,253.5,355.2266,243.5,359.2266" style="stroke: #A80036; stroke-width: 1.0;"/><line style="stroke: #A80036; stroke-width: 1.0;" x1="124.5" x2="254.5" y1="354.2266" y2="354.2266"/><text fill="#000000" font-family="sans-serif" font-size="13" lengthAdjust="spacingAndGlyphs" textLength="85" x="131.5" y="349.2935">return: RETRY</text><line style="stroke: #A80036; stroke-width: 1.0;" x1="255.5" x2="297.5" y1="383.4922" y2="383.4922"/><line style="stroke: #A80036; stroke-width: 1.0;" x1="297.5" x2="297.5" y1="383.4922" y2="396.4922"/><line style="stroke: #A80036; stroke-width: 1.0;" x1="256.5" x2="297.5" y1="396.4922" y2="396.4922"/><polygon fill="#A80036" points="266.5,392.4922,256.5,396.4922,266.5,400.4922,262.5,396.4922" style="stroke: #A80036; stroke-width: 1.0;"/><text fill="#000000" font-family="sans-serif" font-size="13" lengthAdjust="spacingAndGlyphs" textLength="198" x="262.5" y="378.4263">Drain upstream response body</text><polygon fill="#A80036" points="135.5,449.4922,125.5,453.4922,135.5,457.4922,131.5,453.4922" style="stroke: #A80036; stroke-width: 1.0;"/><line style="stroke: #A80036; stroke-width: 1.0;" x1="129.5" x2="254.5" y1="453.4922" y2="453.4922"/><text fill="#000000" font-family="sans-serif" font-size="13" lengthAdjust="spacingAndGlyphs" textLength="33" x="141.5" y="448.5591">finish</text><polygon fill="#A80036" points="243.5,506.625,253.5,510.625,243.5,514.625,247.5,510.625" style="stroke: #A80036; stroke-width: 1.0;"/><line style="stroke: #A80036; stroke-width: 1.0;" x1="124.5" x2="249.5" y1="510.625" y2="510.625"/><text fill="#000000" font-family="sans-serif" font-size="13" lengthAdjust="spacingAndGlyphs" textLength="107" x="131.5" y="505.6919">SESSION_READY</text><rect fill="#EEEEEE" filter="url(#f15t0lceifk56y)" height="3" style="stroke: #EEEEEE; stroke-width: 1.0;" width="512" x="3" y="539.3242"/><line style="stroke: #000000; stroke-width: 1.0;" x1="3" x2="515" y1="539.3242" y2="539.3242"/><line style="stroke: #000000; stroke-width: 1.0;" x1="3" x2="515" y1="542.3242" y2="542.3242"/><rect fill="#EEEEEE" filter="url(#f15t0lceifk56y)" height="23.1328" style="stroke: #000000; stroke-width: 2.0;" width="134" x="192" y="528.7578"/><text fill="#000000" font-family="sans-serif" font-size="13" font-weight="bold" lengthAdjust="spacingAndGlyphs" textLength="115" x="198" y="544.8247">As 200 OK case</text><!--
@startuml
entity L7Policy
actor Strategizer
actor HttpSM
participant Upstream

hide footbox

HttpSM -\ L7Policy : create "tag"
L7Policy -/ HttpSM : return: Strategizer
activate Strategizer
Strategizer -> HttpSM : SESSION_READY
note right : Contains session
HttpSM -> Upstream : HTTP Request
Upstream -> HttpSM : ""404 NOT FOUND""
HttpSM -> HttpSM : Read response header.
HttpSM -\ Strategizer : result
note right : HTTP 404 Response
Strategizer -/ HttpSM : return: RETRY
HttpSM -> HttpSM : Drain upstream response body
...
HttpSM -> Strategizer : finish
...
Strategizer -> HttpSM : SESSION_READY
== As 200 OK case ==

@enduml

PlantUML version 1.2017.18(Fri Oct 06 11:56:32 CDT 2017)
(GPL source distribution)
Java Runtime: OpenJDK Runtime Environment
JVM: OpenJDK 64-Bit Server VM
Java Version: 1.8.0_292-b10
Operating System: Linux
OS Version: 5.11.22-100.fc32.x86_64
Default Encoding: UTF-8
Language: en
Country: US
--></g></svg>