<?xml version="1.0" encoding="UTF-8" standalone="no"?><svg xmlns="http://www.w3.org/2000/svg" xmlns:xlink="http://www.w3.org/1999/xlink" contentScriptType="application/ecmascript" contentStyleType="text/css" height="101px" preserveAspectRatio="none" style="width:349px;height:101px;" version="1.1" viewBox="0 0 349 101" width="349px" zoomAndPan="magnify"><defs><filter height="300%" id="f1ais3xuvl82el" width="300%" x="-1" y="-1"><feGaussianBlur result="blurOut" stdDeviation="2.0"/><feColorMatrix in="blurOut" result="blurOut2" type="matrix" values="0 0 0 0 0 0 0 0 0 0 0 0 0 0 0 0 0 0 .4 0"/><feOffset dx="4.0" dy="4.0" in="blurOut2" result="blurOut3"/><feBlend in="SourceGraphic" in2="blurOut3" mode="normal"/></filter></defs><g><!--entity Cloud--><path d="M83.5,38.5 C83.5,35.5 85.5,33.5 88.5,33.5 C91.5,33.5 93.5,35.5 93.5,38.5 C93.5,35.5 95.5,33.5 98.5,33.5 C101.5,33.5 103.5,35.5 103.5,38.5 C103.5,35.5 105.5,33.5 108.5,33.5 C111.5,33.5 113.5,35.5 113.5,38.5 C113.5,35.5 115.5,33.5 118.5,33.5 C121.5,33.5 123.5,35.5 123.5,38.5 C123.5,35.5 125.5,33.5 128.5,33.5 C131.5,33.5 133.5,35.5 133.5,38.5 C133.5,35.5 135.5,33.5 138.5,33.5 C141.5,33.5 143.5,35.5 143.5,38.5 C146.5,38.5 148.5,40.5 148.5,43.5 C148.5,46.5 146.5,48.5 143.5,48.5 C146.5,48.5 148.5,50.5 148.5,53.5 C148.5,56.5 146.5,58.5 143.5,58.5 C143.5,61.5 140.5,63.5 138.5,63.5 C135.5,63.5 133.5,61.5 133.5,58.5 C133.5,61.5 130.5,63.5 128.5,63.5 C125.5,63.5 123.5,61.5 123.5,58.5 C123.5,61.5 120.5,63.5 118.5,63.5 C115.5,63.5 113.5,61.5 113.5,58.5 C113.5,61.5 110.5,63.5 108.5,63.5 C105.5,63.5 103.5,61.5 103.5,58.5 C103.5,61.5 100.5,63.5 98.5,63.5 C95.5,63.5 93.5,61.5 93.5,58.5 C93.5,61.5 90.5,63.5 88.5,63.5 C85.5,63.5 83.5,61.5 83.5,58.5 C80.5,58.5 78.5,56.5 78.5,53.5 C78.5,50.5 80.5,48.5 83.5,48.5 C80.5,48.5 78.5,46.5 78.5,43.5 C78.5,40.5 80.5,38.5 83.5,38.5 " fill="#FEFECE" filter="url(#f1ais3xuvl82el)" style="stroke: #000000; stroke-width: 1.5;"/><text fill="#000000" font-family="sans-serif" font-size="14" lengthAdjust="spacingAndGlyphs" textLength="40" x="90.5" y="54.4951">Cloud</text><!--entity Client--><ellipse cx="25.5" cy="18" fill="#FEFECE" filter="url(#f1ais3xuvl82el)" rx="8" ry="8" style="stroke: #A80036; stroke-width: 2.0;"/><path d="M25.5,26 L25.5,53 M12.5,34 L38.5,34 M25.5,53 L12.5,68 M25.5,53 L38.5,68 " fill="#FEFECE" filter="url(#f1ais3xuvl82el)" style="stroke: #A80036; stroke-width: 2.0;"/><text fill="#000000" font-family="sans-serif" font-size="14" lengthAdjust="spacingAndGlyphs" textLength="39" x="6" y="87.9951">Client</text><!--entity Proxy--><rect fill="#FEFECE" filter="url(#f1ais3xuvl82el)" height="36.2969" style="stroke: #A80036; stroke-width: 1.5;" width="57" x="176" y="31.5"/><rect fill="#FEFECE" height="5" style="stroke: #A80036; stroke-width: 1.5;" width="10" x="171" y="36.5"/><rect fill="#FEFECE" height="5" style="stroke: #A80036; stroke-width: 1.5;" width="10" x="171" y="57.7969"/><text fill="#000000" font-family="sans-serif" font-size="14" lengthAdjust="spacingAndGlyphs" textLength="37" x="186" y="54.4951">Proxy</text><!--entity Service--><rect fill="#FEFECE" filter="url(#f1ais3xuvl82el)" height="36.2969" style="stroke: #A80036; stroke-width: 1.5;" width="70" x="268.5" y="31.5"/><rect fill="#FEFECE" height="5" style="stroke: #A80036; stroke-width: 1.5;" width="10" x="263.5" y="36.5"/><rect fill="#FEFECE" height="5" style="stroke: #A80036; stroke-width: 1.5;" width="10" x="263.5" y="57.7969"/><text fill="#000000" font-family="sans-serif" font-size="14" lengthAdjust="spacingAndGlyphs" textLength="50" x="278.5" y="54.4951">Service</text><!--link Client to Cloud--><path d="M50.32,49.5 C58.61,49.5 66.9,49.5 75.19,49.5 " fill="none" id="Client-Cloud" style="stroke: #A80036; stroke-width: 1.0;"/><polygon fill="#A80036" points="80.35,49.5,71.35,45.5,75.35,49.5,71.35,53.5,80.35,49.5" style="stroke: #A80036; stroke-width: 1.0;"/><polygon fill="#A80036" points="45.09,49.5,54.09,53.5,50.09,49.5,54.09,45.5,45.09,49.5" style="stroke: #A80036; stroke-width: 1.0;"/><!--link Cloud to Proxy--><path d="M145.8,49.5 C154.01,49.5 162.22,49.5 170.44,49.5 " fill="none" id="Cloud-Proxy" style="stroke: #A80036; stroke-width: 1.0;"/><polygon fill="#A80036" points="175.55,49.5,166.55,45.5,170.55,49.5,166.55,53.5,175.55,49.5" style="stroke: #A80036; stroke-width: 1.0;"/><polygon fill="#A80036" points="140.61,49.5,149.61,53.5,145.61,49.5,149.61,45.5,140.61,49.5" style="stroke: #A80036; stroke-width: 1.0;"/><!--link Proxy to Service--><path d="M238.34,49.5 C246.61,49.5 254.89,49.5 263.16,49.5 " fill="none" id="Proxy-Service" style="stroke: #A80036; stroke-width: 1.0;"/><polygon fill="#A80036" points="268.31,49.5,259.31,45.5,263.31,49.5,259.31,53.5,268.31,49.5" style="stroke: #A80036; stroke-width: 1.0;"/><polygon fill="#A80036" points="233.12,49.5,242.12,53.5,238.12,49.5,242.12,45.5,233.12,49.5" style="stroke: #A80036; stroke-width: 1.0;"/><!--
@startuml
hide empty members
cloud Cloud
actor Client

[Client] <-> [Cloud]
[Cloud] <-> [Proxy]
[Proxy] <-> [Service]

@enduml

PlantUML version 1.2017.18(Fri Oct 06 11:56:32 CDT 2017)
(GPL source distribution)
Java Runtime: OpenJDK Runtime Environment
JVM: OpenJDK 64-Bit Server VM
Java Version: 1.8.0_292-b10
Operating System: Linux
OS Version: 5.11.22-100.fc32.x86_64
Default Encoding: UTF-8
Language: en
Country: US
--></g></svg>