<?xml version="1.0" encoding="UTF-8" standalone="no"?><svg xmlns="http://www.w3.org/2000/svg" xmlns:xlink="http://www.w3.org/1999/xlink" contentScriptType="application/ecmascript" contentStyleType="text/css" height="349px" preserveAspectRatio="none" style="width:497px;height:349px;" version="1.1" viewBox="0 0 497 349" width="497px" zoomAndPan="magnify"><defs><filter height="300%" id="fuuyqssww0eli" width="300%" x="-1" y="-1"><feGaussianBlur result="blurOut" stdDeviation="2.0"/><feColorMatrix in="blurOut" result="blurOut2" type="matrix" values="0 0 0 0 0 0 0 0 0 0 0 0 0 0 0 0 0 0 .4 0"/><feOffset dx="4.0" dy="4.0" in="blurOut2" result="blurOut3"/><feBlend in="SourceGraphic" in2="blurOut3" mode="normal"/></filter></defs><g><line style="stroke: #A80036; stroke-width: 1.0; stroke-dasharray: 5.0,5.0;" x1="30" x2="30" y1="86.2969" y2="261.9609"/><line style="stroke: #A80036; stroke-width: 1.0; stroke-dasharray: 5.0,5.0;" x1="136" x2="136" y1="86.2969" y2="261.9609"/><line style="stroke: #A80036; stroke-width: 1.0; stroke-dasharray: 5.0,5.0;" x1="283.5" x2="283.5" y1="86.2969" y2="261.9609"/><text fill="#000000" font-family="sans-serif" font-size="14" lengthAdjust="spacingAndGlyphs" textLength="39" x="8" y="82.9951">Client</text><ellipse cx="30.5" cy="13" fill="#FEFECE" filter="url(#fuuyqssww0eli)" rx="8" ry="8" style="stroke: #A80036; stroke-width: 2.0;"/><path d="M30.5,21 L30.5,48 M17.5,29 L43.5,29 M30.5,48 L17.5,63 M30.5,48 L43.5,63 " fill="none" filter="url(#fuuyqssww0eli)" style="stroke: #A80036; stroke-width: 2.0;"/><text fill="#000000" font-family="sans-serif" font-size="14" lengthAdjust="spacingAndGlyphs" textLength="39" x="8" y="273.9561">Client</text><ellipse cx="30.5" cy="287.2578" fill="#FEFECE" filter="url(#fuuyqssww0eli)" rx="8" ry="8" style="stroke: #A80036; stroke-width: 2.0;"/><path d="M30.5,295.2578 L30.5,322.2578 M17.5,303.2578 L43.5,303.2578 M30.5,322.2578 L17.5,337.2578 M30.5,322.2578 L43.5,337.2578 " fill="none" filter="url(#fuuyqssww0eli)" style="stroke: #A80036; stroke-width: 2.0;"/><rect fill="#FEFECE" filter="url(#fuuyqssww0eli)" height="30.2969" style="stroke: #A80036; stroke-width: 1.5;" width="51" x="109" y="51"/><text fill="#000000" font-family="sans-serif" font-size="14" lengthAdjust="spacingAndGlyphs" textLength="37" x="116" y="70.9951">Proxy</text><rect fill="#FEFECE" filter="url(#fuuyqssww0eli)" height="30.2969" style="stroke: #A80036; stroke-width: 1.5;" width="51" x="109" y="260.9609"/><text fill="#000000" font-family="sans-serif" font-size="14" lengthAdjust="spacingAndGlyphs" textLength="37" x="116" y="280.9561">Proxy</text><rect fill="#FEFECE" filter="url(#fuuyqssww0eli)" height="30.2969" style="stroke: #A80036; stroke-width: 1.5;" width="64" x="249.5" y="51"/><text fill="#000000" font-family="sans-serif" font-size="14" lengthAdjust="spacingAndGlyphs" textLength="50" x="256.5" y="70.9951">Service</text><rect fill="#FEFECE" filter="url(#fuuyqssww0eli)" height="30.2969" style="stroke: #A80036; stroke-width: 1.5;" width="64" x="249.5" y="260.9609"/><text fill="#000000" font-family="sans-serif" font-size="14" lengthAdjust="spacingAndGlyphs" textLength="50" x="256.5" y="280.9561">Service</text><polygon fill="#008000" points="124.5,113.4297,134.5,117.4297,124.5,121.4297,128.5,117.4297" style="stroke: #008000; stroke-width: 1.0;"/><line style="stroke: #008000; stroke-width: 1.0;" x1="30.5" x2="130.5" y1="117.4297" y2="117.4297"/><text fill="#008000" font-family="sans-serif" font-size="13" font-style="italic" lengthAdjust="spacingAndGlyphs" textLength="82" x="37.5" y="112.3638">TCP Connect</text><polygon fill="#0000FF" points="271.5,142.5625,281.5,146.5625,271.5,150.5625,275.5,146.5625" style="stroke: #0000FF; stroke-width: 1.0;"/><line style="stroke: #0000FF; stroke-width: 1.0; stroke-dasharray: 2.0,2.0;" x1="30.5" x2="277.5" y1="146.5625" y2="146.5625"/><text fill="#0000FF" font-family="sans-serif" font-size="13" lengthAdjust="spacingAndGlyphs" textLength="23" x="37.5" y="141.4966">TLS</text><text fill="#0000FF" font-family="monospace" font-size="13" lengthAdjust="spacingAndGlyphs" textLength="96" x="64.5" y="141.4966">Client HELLO</text><polygon fill="#008000" points="271.5,171.6953,281.5,175.6953,271.5,179.6953,275.5,175.6953" style="stroke: #008000; stroke-width: 1.0;"/><line style="stroke: #008000; stroke-width: 1.0;" x1="136.5" x2="277.5" y1="175.6953" y2="175.6953"/><text fill="#008000" font-family="sans-serif" font-size="13" font-style="italic" lengthAdjust="spacingAndGlyphs" textLength="82" x="143.5" y="170.6294">TCP Connect</text><polygon fill="#0000FF" points="271.5,205.8281,281.5,209.8281,271.5,213.8281,275.5,209.8281" style="stroke: #0000FF; stroke-width: 1.0;"/><line style="stroke: #0000FF; stroke-width: 1.0; stroke-dasharray: 2.0,2.0;" x1="136.5" x2="277.5" y1="209.8281" y2="209.8281"/><text fill="#0000FF" font-family="sans-serif" font-size="13" lengthAdjust="spacingAndGlyphs" textLength="23" x="143.5" y="204.7622">TLS</text><text fill="#0000FF" font-family="monospace" font-size="13" lengthAdjust="spacingAndGlyphs" textLength="96" x="170.5" y="204.7622">Client HELLO</text><path d="M288,188.6953 L288,213.6953 L485,213.6953 L485,198.6953 L475,188.6953 L288,188.6953 " fill="#FBFB77" filter="url(#fuuyqssww0eli)" style="stroke: #A80036; stroke-width: 1.0;"/><path d="M475,188.6953 L475,198.6953 L485,198.6953 L475,188.6953 " fill="#FBFB77" style="stroke: #A80036; stroke-width: 1.0;"/><text fill="#000000" font-family="sans-serif" font-size="13" lengthAdjust="spacingAndGlyphs" textLength="76" x="294" y="205.7622">Duplicate of</text><text fill="#0000FF" font-family="monospace" font-size="13" lengthAdjust="spacingAndGlyphs" textLength="96" x="374" y="205.7622">Client HELLO</text><polygon fill="#0000FF" points="271.5,239.9609,281.5,243.9609,271.5,247.9609,275.5,243.9609" style="stroke: #0000FF; stroke-width: 1.0;"/><line style="stroke: #0000FF; stroke-width: 1.0; stroke-dasharray: 2.0,2.0;" x1="30.5" x2="277.5" y1="243.9609" y2="243.9609"/><text fill="#0000FF" font-family="sans-serif" font-size="13" font-style="italic" lengthAdjust="spacingAndGlyphs" textLength="80" x="37.5" y="238.895">TLS Connect</text><!--MD5=[d3843c20cef274de60f02d2e81d5ba75]
@startuml
actor Client
participant Proxy
participant Service

Client -[#green]> Proxy : <font color="green">//TCP Connect//</font>
Client -[#blue]-> Service : <font color="blue">TLS ""Client HELLO""</font>
Proxy -[#green]> Service : <font color="green">//TCP Connect//</font>
Proxy -[#blue]-> Service : <font color="blue">TLS ""Client HELLO""</font>
note right : Duplicate of <font color="blue">""Client HELLO""</font>
Client -[#blue]-> Service : <font color="blue">//TLS Connect//</font>

@enduml

PlantUML version 1.2019.11(Sun Sep 22 05:02:15 CDT 2019)
(GPL source distribution)
Java Runtime: OpenJDK Runtime Environment
JVM: OpenJDK 64-Bit Server VM
Java Version: 1.8.0_222-b10
Operating System: Linux
Default Encoding: UTF-8
Language: en
Country: US
--></g></svg>