<?xml version="1.0" encoding="UTF-8" standalone="no"?><svg xmlns="http://www.w3.org/2000/svg" xmlns:xlink="http://www.w3.org/1999/xlink" contentScriptType="application/ecmascript" contentStyleType="text/css" height="330px" preserveAspectRatio="none" style="width:505px;height:330px;" version="1.1" viewBox="0 0 505 330" width="505px" zoomAndPan="magnify"><defs><filter height="300%" id="f1i1h6g6rpne4g" width="300%" x="-1" y="-1"><feGaussianBlur result="blurOut" stdDeviation="2.0"/><feColorMatrix in="blurOut" result="blurOut2" type="matrix" values="0 0 0 0 0 0 0 0 0 0 0 0 0 0 0 0 0 0 .4 0"/><feOffset dx="4.0" dy="4.0" in="blurOut2" result="blurOut3"/><feBlend in="SourceGraphic" in2="blurOut3" mode="normal"/></filter></defs><g><!--entity Cloud--><path d="M213,128 C213,125 215,123 218,123 C221,123 223,125 223,128 C223,125 225,123 228,123 C231,123 233,125 233,128 C233,125 235,123 238,123 C241,123 243,125 243,128 C243,125 245,123 248,123 C251,123 253,125 253,128 C253,125 255,123 258,123 C261,123 263,125 263,128 C263,125 265,123 268,123 C271,123 273,125 273,128 C273,125 275,123 278,123 C281,123 283,125 283,128 C283,125 285,123 288,123 C291,123 293,125 293,128 C296,128 298,130 298,133 C298,136 296,138 293,138 C296,138 298,140 298,143 C298,146 296,148 293,148 C296,148 298,150 298,153 C298,156 296,158 293,158 C296,158 298,160 298,163 C298,166 296,168 293,168 C296,168 298,170 298,173 C298,176 296,178 293,178 C293,181 290,183 288,183 C285,183 283,181 283,178 C283,181 280,183 278,183 C275,183 273,181 273,178 C273,181 270,183 268,183 C265,183 263,181 263,178 C263,181 260,183 258,183 C255,183 253,181 253,178 C253,181 250,183 248,183 C245,183 243,181 243,178 C243,181 240,183 238,183 C235,183 233,181 233,178 C233,181 230,183 228,183 C225,183 223,181 223,178 C223,181 220,183 218,183 C215,183 213,181 213,178 C210,178 208,176 208,173 C208,170 210,168 213,168 C210,168 208,166 208,163 C208,160 210,158 213,158 C210,158 208,156 208,153 C208,150 210,148 213,148 C210,148 208,146 208,143 C208,140 210,138 213,138 C210,138 208,136 208,133 C208,130 210,128 213,128 " fill="#FEFECE" filter="url(#f1i1h6g6rpne4g)" style="stroke: #000000; stroke-width: 1.5;"/><text fill="#000000" font-family="sans-serif" font-size="14" lengthAdjust="spacingAndGlyphs" textLength="41" x="220" y="143.9951">Cloud</text><text fill="#000000" font-family="sans-serif" font-size="14" lengthAdjust="spacingAndGlyphs" textLength="69" x="220" y="160.292">Untrusted</text><text fill="#000000" font-family="sans-serif" font-size="14" lengthAdjust="spacingAndGlyphs" textLength="65" x="220" y="176.5889">Networks</text><!--entity Ingress ATS--><polygon fill="#FEFECE" filter="url(#f1i1h6g6rpne4g)" points="6,142.5,16,132.5,129,132.5,129,168.7969,119,178.7969,6,178.7969,6,142.5" style="stroke: #000000; stroke-width: 1.5;"/><line style="stroke: #000000; stroke-width: 1.5;" x1="119" x2="128" y1="142.5" y2="133.5"/><line style="stroke: #000000; stroke-width: 1.5;" x1="6" x2="119" y1="142.5" y2="142.5"/><line style="stroke: #000000; stroke-width: 1.5;" x1="119" x2="119" y1="142.5" y2="178.7969"/><text fill="#000000" font-family="sans-serif" font-size="14" lengthAdjust="spacingAndGlyphs" textLength="83" x="21" y="165.4951">Ingress ATS</text><!--entity Peer ATS--><polygon fill="#FEFECE" filter="url(#f1i1h6g6rpne4g)" points="379.5,142.5,389.5,132.5,483.5,132.5,483.5,168.7969,473.5,178.7969,379.5,178.7969,379.5,142.5" style="stroke: #000000; stroke-width: 1.5;"/><line style="stroke: #000000; stroke-width: 1.5;" x1="473.5" x2="482.5" y1="142.5" y2="133.5"/><line style="stroke: #000000; stroke-width: 1.5;" x1="379.5" x2="473.5" y1="142.5" y2="142.5"/><line style="stroke: #000000; stroke-width: 1.5;" x1="473.5" x2="473.5" y1="142.5" y2="178.7969"/><text fill="#000000" font-family="sans-serif" font-size="14" lengthAdjust="spacingAndGlyphs" textLength="64" x="394.5" y="165.4951">Peer ATS</text><!--entity Client--><rect fill="#FEFECE" filter="url(#f1i1h6g6rpne4g)" height="36.2969" style="stroke: #A80036; stroke-width: 1.5;" width="61" x="37" y="8"/><rect fill="#FEFECE" height="5" style="stroke: #A80036; stroke-width: 1.5;" width="10" x="32" y="13"/><rect fill="#FEFECE" height="5" style="stroke: #A80036; stroke-width: 1.5;" width="10" x="32" y="34.2969"/><text fill="#000000" font-family="sans-serif" font-size="14" lengthAdjust="spacingAndGlyphs" textLength="41" x="47" y="30.9951">Client</text><!--entity Service--><rect fill="#FEFECE" filter="url(#f1i1h6g6rpne4g)" height="36.2969" style="stroke: #A80036; stroke-width: 1.5;" width="73" x="395" y="8"/><rect fill="#FEFECE" height="5" style="stroke: #A80036; stroke-width: 1.5;" width="10" x="390" y="13"/><rect fill="#FEFECE" height="5" style="stroke: #A80036; stroke-width: 1.5;" width="10" x="390" y="34.2969"/><text fill="#000000" font-family="sans-serif" font-size="14" lengthAdjust="spacingAndGlyphs" textLength="53" x="405" y="30.9951">Service</text><!--entity tls_bridge\nPlugin--><rect fill="#FEFECE" filter="url(#f1i1h6g6rpne4g)" height="52.5938" style="stroke: #A80036; stroke-width: 1.5;" width="89" x="23" y="267"/><rect fill="#FEFECE" height="5" style="stroke: #A80036; stroke-width: 1.5;" width="10" x="18" y="272"/><rect fill="#FEFECE" height="5" style="stroke: #A80036; stroke-width: 1.5;" width="10" x="18" y="309.5938"/><text fill="#000000" font-family="sans-serif" font-size="14" lengthAdjust="spacingAndGlyphs" textLength="69" x="33" y="289.9951">tls_bridge</text><text fill="#000000" font-family="sans-serif" font-size="14" lengthAdjust="spacingAndGlyphs" textLength="43" x="33" y="306.292">Plugin</text><!--link Client to Ingress ATS--><path d="M67.5,49.1139 C67.5,70.9823 67.5,103.8532 67.5,127.2636 " fill="none" id="Client-Ingress ATS" style="stroke: #A80036; stroke-width: 1.0;"/><polygon fill="#A80036" points="67.5,132.404,71.5,123.404,67.5,127.404,63.5,123.404,67.5,132.404" style="stroke: #A80036; stroke-width: 1.0;"/><polygon fill="#A80036" points="67.5,44.0064,63.5,53.0064,67.5,49.0064,71.5,53.0064,67.5,44.0064" style="stroke: #A80036; stroke-width: 1.0;"/><text fill="#000000" font-family="sans-serif" font-size="13" lengthAdjust="spacingAndGlyphs" textLength="61" x="68.5" y="87.0669">Unsecure</text><!--link Ingress ATS to Cloud--><path d="M134.5529,155.5 C157.7577,155.5 183.3307,155.5 204.8813,155.5 " fill="none" id="Ingress ATS-Cloud" style="stroke: #A80036; stroke-width: 1.0;"/><polygon fill="#A80036" points="209.9835,155.5,200.9835,151.5,204.9835,155.5,200.9835,159.5,209.9835,155.5" style="stroke: #A80036; stroke-width: 1.0;"/><polygon fill="#A80036" points="129.249,155.5,138.249,159.5,134.249,155.5,138.249,151.5,129.249,155.5" style="stroke: #A80036; stroke-width: 1.0;"/><text fill="#000000" font-family="sans-serif" font-size="13" lengthAdjust="spacingAndGlyphs" textLength="44" x="147.5" y="148.5669">Secure</text><!--link Cloud to Peer ATS--><path d="M304.3902,155.5 C326.1324,155.5 351.7417,155.5 374.2548,155.5 " fill="none" id="Cloud-Peer ATS" style="stroke: #A80036; stroke-width: 1.0;"/><polygon fill="#A80036" points="379.3067,155.5,370.3067,151.5,374.3067,155.5,370.3067,159.5,379.3067,155.5" style="stroke: #A80036; stroke-width: 1.0;"/><polygon fill="#A80036" points="299.1646,155.5,308.1646,159.5,304.1646,155.5,308.1646,151.5,299.1646,155.5" style="stroke: #A80036; stroke-width: 1.0;"/><text fill="#000000" font-family="sans-serif" font-size="13" lengthAdjust="spacingAndGlyphs" textLength="44" x="317.25" y="148.5669">Secure</text><!--link Service to Peer ATS--><path d="M431.5,49.1139 C431.5,70.9823 431.5,103.8532 431.5,127.2636 " fill="none" id="Service-Peer ATS" style="stroke: #A80036; stroke-width: 1.0;"/><polygon fill="#A80036" points="431.5,132.404,435.5,123.404,431.5,127.404,427.5,123.404,431.5,132.404" style="stroke: #A80036; stroke-width: 1.0;"/><polygon fill="#A80036" points="431.5,44.0064,427.5,53.0064,431.5,49.0064,435.5,53.0064,431.5,44.0064" style="stroke: #A80036; stroke-width: 1.0;"/><text fill="#000000" font-family="sans-serif" font-size="13" lengthAdjust="spacingAndGlyphs" textLength="61" x="432.5" y="87.0669">Unsecure</text><!--link Ingress ATS to tls_bridge\nPlugin--><path d="M67.5,178.5981 C67.5,201.2343 67.5,235.933 67.5,261.2778 " fill="none" id="Ingress ATS-tls_bridge\nPlugin" style="stroke: #A80036; stroke-width: 1.0; stroke-dasharray: 7.0,7.0;"/><polygon fill="#A80036" points="67.5,266.5364,71.5,257.5364,67.5,261.5364,63.5,257.5364,67.5,266.5364" style="stroke: #A80036; stroke-width: 1.0;"/><text fill="#000000" font-family="sans-serif" font-size="13" lengthAdjust="spacingAndGlyphs" textLength="32" x="68.5" y="233.0669">Uses</text><!--
@startuml
hide empty members

cloud "Cloud\nUntrusted\nNetworks" as Cloud
node "Ingress ATS"
node "Peer ATS"

[Client] <- -> [Ingress ATS] : Unsecure
[Ingress ATS] <-> [Cloud] : Secure
[Cloud] <-> [Peer ATS] : Secure
[Peer ATS] <-u-> [Service] : Unsecure

[Ingress ATS] ..> [tls_bridge\nPlugin] : Uses

@enduml

PlantUML version 1.2017.18(Fri Oct 06 11:56:32 CDT 2017)
(GPL source distribution)
Java Runtime: OpenJDK Runtime Environment
JVM: OpenJDK 64-Bit Server VM
Java Version: 1.8.0_151-b12
Operating System: Linux
OS Version: 4.13.13-200.fc26.x86_64
Default Encoding: UTF-8
Language: en
Country: US
--></g></svg>