<?xml version="1.0" encoding="UTF-8" standalone="no"?><svg xmlns="http://www.w3.org/2000/svg" xmlns:xlink="http://www.w3.org/1999/xlink" contentScriptType="application/ecmascript" contentStyleType="text/css" height="740px" preserveAspectRatio="none" style="width:943px;height:740px;" version="1.1" viewBox="0 0 943 740" width="943px" zoomAndPan="magnify"><defs><filter height="300%" id="f9jzlw0ypdebc" width="300%" x="-1" y="-1"><feGaussianBlur result="blurOut" stdDeviation="2.0"/><feColorMatrix in="blurOut" result="blurOut2" type="matrix" values="0 0 0 0 0 0 0 0 0 0 0 0 0 0 0 0 0 0 .4 0"/><feOffset dx="4.0" dy="4.0" in="blurOut2" result="blurOut3"/><feBlend in="SourceGraphic" in2="blurOut3" mode="normal"/></filter></defs><g><rect fill="#FEFECE" filter="url(#f9jzlw0ypdebc)" height="33.9688" rx="12.5" ry="12.5" style="stroke: #A80036; stroke-width: 1.5;" width="137" x="402.5" y="10"/><text fill="#000000" font-family="sans-serif" font-size="12" lengthAdjust="spacingAndGlyphs" textLength="117" x="412.5" y="31.1387">netProcessor.init()</text><rect fill="#FEFECE" filter="url(#f9jzlw0ypdebc)" height="33.9688" rx="12.5" ry="12.5" style="stroke: #A80036; stroke-width: 1.5;" width="155" x="393.5" y="63.9688"/><text fill="#000000" font-family="sans-serif" font-size="12" lengthAdjust="spacingAndGlyphs" textLength="135" x="403.5" y="85.1074">init_HttpProxyServer()</text><path d="M574,122.3555 L574,130.9219 L554,134.9219 L574,138.9219 L574,147.4883 A0,0 0 0 0 574,147.4883 L762,147.4883 A0,0 0 0 0 762,147.4883 L762,132.3555 L752,122.3555 L574,122.3555 A0,0 0 0 0 574,122.3555 " fill="#FBFB77" filter="url(#f9jzlw0ypdebc)" style="stroke: #A80036; stroke-width: 1.0;"/><path d="M752,122.3555 L752,132.3555 L762,132.3555 L752,122.3555 " fill="#FBFB77" style="stroke: #A80036; stroke-width: 1.0;"/><text fill="#000000" font-family="sans-serif" font-size="13" lengthAdjust="spacingAndGlyphs" textLength="167" x="580" y="139.4224">ET_NET threads start here</text><rect fill="#FEFECE" filter="url(#f9jzlw0ypdebc)" height="33.9688" rx="12.5" ry="12.5" style="stroke: #A80036; stroke-width: 1.5;" width="166" x="388" y="117.9375"/><text fill="#000000" font-family="sans-serif" font-size="12" lengthAdjust="spacingAndGlyphs" textLength="146" x="398" y="139.0762">eventProcessor::start()</text><path d="M537.5,176.3242 L537.5,184.8906 L517.5,188.8906 L537.5,192.8906 L537.5,201.457 A0,0 0 0 0 537.5,201.457 L719.5,201.457 A0,0 0 0 0 719.5,201.457 L719.5,186.3242 L709.5,176.3242 L537.5,176.3242 A0,0 0 0 0 537.5,176.3242 " fill="#FBFB77" filter="url(#f9jzlw0ypdebc)" style="stroke: #A80036; stroke-width: 1.0;"/><path d="M709.5,176.3242 L709.5,186.3242 L719.5,186.3242 L709.5,176.3242 " fill="#FBFB77" style="stroke: #A80036; stroke-width: 1.0;"/><text fill="#000000" font-family="sans-serif" font-size="13" lengthAdjust="spacingAndGlyphs" textLength="161" x="543.5" y="193.3911">Global plugin initialization</text><rect fill="#FEFECE" filter="url(#f9jzlw0ypdebc)" height="33.9688" rx="12.5" ry="12.5" style="stroke: #A80036; stroke-width: 1.5;" width="93" x="424.5" y="171.9063"/><text fill="#000000" font-family="sans-serif" font-size="12" lengthAdjust="spacingAndGlyphs" textLength="73" x="434.5" y="193.0449">plugin_init()</text><rect fill="#FEFECE" filter="url(#f9jzlw0ypdebc)" height="33.9688" rx="12.5" ry="12.5" style="stroke: #A80036; stroke-width: 1.5;" width="165" x="388.5" y="225.875"/><text fill="#000000" font-family="sans-serif" font-size="12" lengthAdjust="spacingAndGlyphs" textLength="145" x="398.5" y="247.0137">cacheProcessor.start()</text><rect fill="#000000" filter="url(#f9jzlw0ypdebc)" height="6" rx="2.5" ry="2.5" style="stroke: #000000; stroke-width: 1.0;" width="922" x="10" y="279.8438"/><rect fill="#FEFECE" filter="url(#f9jzlw0ypdebc)" height="33.9688" rx="12.5" ry="12.5" style="stroke: #A80036; stroke-width: 1.5;" width="114" x="204" y="305.8438"/><text fill="#000000" font-family="sans-serif" font-size="12" lengthAdjust="spacingAndGlyphs" textLength="94" x="214" y="326.9824">udpNet::start()</text><rect fill="#FEFECE" filter="url(#f9jzlw0ypdebc)" height="33.9688" rx="12.5" ry="12.5" style="stroke: #A80036; stroke-width: 1.5;" width="204" x="159" y="359.8125"/><text fill="#000000" font-family="sans-serif" font-size="12" lengthAdjust="spacingAndGlyphs" textLength="184" x="169" y="380.9512">init_accept_HttpProxyServer()</text><polygon fill="#FEFECE" filter="url(#f9jzlw0ypdebc)" points="127,413.7813,395,413.7813,405,430.7656,395,447.75,127,447.75" style="stroke: #A80036; stroke-width: 1.5;"/><text fill="#000000" font-family="sans-serif" font-size="12" lengthAdjust="spacingAndGlyphs" textLength="248" x="137" y="434.9199">TS_EVENT_LIFECYCLE_PORTS_INITIALIZED</text><polygon fill="#FEFECE" filter="url(#f9jzlw0ypdebc)" points="230,482.75,292,482.75,304,494.75,292,506.75,230,506.75,218,494.75,230,482.75" style="stroke: #A80036; stroke-width: 1.5;"/><text fill="#000000" font-family="sans-serif" font-size="11" lengthAdjust="spacingAndGlyphs" textLength="62" x="230" y="498.5581">cache_wait</text><text fill="#000000" font-family="sans-serif" font-size="11" lengthAdjust="spacingAndGlyphs" textLength="32" x="186" y="492.1558">ready</text><text fill="#000000" font-family="sans-serif" font-size="11" lengthAdjust="spacingAndGlyphs" textLength="54" x="304" y="492.1558">not ready</text><rect fill="#FEFECE" filter="url(#f9jzlw0ypdebc)" height="33.9688" rx="12.5" ry="12.5" style="stroke: #A80036; stroke-width: 1.5;" width="166" x="71" y="516.75"/><text fill="#000000" font-family="sans-serif" font-size="12" lengthAdjust="spacingAndGlyphs" textLength="146" x="81" y="537.8887">start_HttpProxyServer()</text><polygon fill="#FEFECE" filter="url(#f9jzlw0ypdebc)" points="34,585.7188,274,585.7188,284,602.7031,274,619.6875,34,619.6875" style="stroke: #A80036; stroke-width: 1.5;"/><text fill="#000000" font-family="sans-serif" font-size="12" lengthAdjust="spacingAndGlyphs" textLength="220" x="44" y="606.8574">TS_EVENT_LIFECYCLE_PORTS_READY</text><rect fill="#FEFECE" filter="url(#f9jzlw0ypdebc)" height="33.9688" rx="12.5" ry="12.5" style="stroke: #A80036; stroke-width: 1.5;" width="148" x="294" y="516.75"/><text fill="#000000" font-family="sans-serif" font-size="12" lengthAdjust="spacingAndGlyphs" textLength="128" x="304" y="537.8887">cache_wait = waited</text><polygon fill="#FEFECE" filter="url(#f9jzlw0ypdebc)" points="261,625.6875,273,637.6875,261,649.6875,249,637.6875,261,625.6875" style="stroke: #A80036; stroke-width: 1.5;"/><rect fill="#FEFECE" filter="url(#f9jzlw0ypdebc)" height="33.9688" rx="12.5" ry="12.5" style="stroke: #A80036; stroke-width: 1.5;" width="161" x="180.5" y="669.6875"/><text fill="#000000" font-family="sans-serif" font-size="12" lengthAdjust="spacingAndGlyphs" textLength="141" x="190.5" y="690.8262">tasksProcessor.start()</text><rect fill="#FEFECE" filter="url(#f9jzlw0ypdebc)" height="33.9688" rx="12.5" ry="12.5" style="stroke: #A80036; stroke-width: 1.5;" width="136" x="651.5" y="359.8125"/><text fill="#000000" font-family="sans-serif" font-size="12" lengthAdjust="spacingAndGlyphs" textLength="116" x="661.5" y="380.9512">Cache Initialization</text><polygon fill="#FEFECE" filter="url(#f9jzlw0ypdebc)" points="681.5,413.7813,757.5,413.7813,769.5,425.7813,757.5,437.7813,681.5,437.7813,669.5,425.7813,681.5,413.7813" style="stroke: #A80036; stroke-width: 1.5;"/><text fill="#000000" font-family="sans-serif" font-size="11" lengthAdjust="spacingAndGlyphs" textLength="76" x="681.5" y="429.5894">cache_waited</text><text fill="#000000" font-family="sans-serif" font-size="11" lengthAdjust="spacingAndGlyphs" textLength="37" x="632.5" y="423.187">waited</text><text fill="#000000" font-family="sans-serif" font-size="11" lengthAdjust="spacingAndGlyphs" textLength="54" x="769.5" y="423.187">not ready</text><rect fill="#FEFECE" filter="url(#f9jzlw0ypdebc)" height="33.9688" rx="12.5" ry="12.5" style="stroke: #A80036; stroke-width: 1.5;" width="166" x="527" y="447.7813"/><text fill="#000000" font-family="sans-serif" font-size="12" lengthAdjust="spacingAndGlyphs" textLength="146" x="537" y="468.9199">start_HttpProxyServer()</text><polygon fill="#FEFECE" filter="url(#f9jzlw0ypdebc)" points="490,516.75,730,516.75,740,533.7344,730,550.7188,490,550.7188" style="stroke: #A80036; stroke-width: 1.5;"/><text fill="#000000" font-family="sans-serif" font-size="12" lengthAdjust="spacingAndGlyphs" textLength="220" x="500" y="537.8887">TS_EVENT_LIFECYCLE_PORTS_READY</text><rect fill="#FEFECE" filter="url(#f9jzlw0ypdebc)" height="33.9688" rx="12.5" ry="12.5" style="stroke: #A80036; stroke-width: 1.5;" width="158" x="750" y="447.7813"/><text fill="#000000" font-family="sans-serif" font-size="12" lengthAdjust="spacingAndGlyphs" textLength="138" x="760" y="468.9199">cache_waited = ready</text><polygon fill="#FEFECE" filter="url(#f9jzlw0ypdebc)" points="719.5,556.7188,731.5,568.7188,719.5,580.7188,707.5,568.7188,719.5,556.7188" style="stroke: #A80036; stroke-width: 1.5;"/><polygon fill="#FEFECE" filter="url(#f9jzlw0ypdebc)" points="599,615.7188,840,615.7188,850,632.7031,840,649.6875,599,649.6875" style="stroke: #A80036; stroke-width: 1.5;"/><text fill="#000000" font-family="sans-serif" font-size="12" lengthAdjust="spacingAndGlyphs" textLength="221" x="609" y="636.8574">TS_EVENT_LIFECYCLE_CACHE_READY</text><rect fill="#000000" filter="url(#f9jzlw0ypdebc)" height="6" rx="2.5" ry="2.5" style="stroke: #000000; stroke-width: 1.0;" width="922" x="10" y="723.6563"/><line style="stroke: #A80036; stroke-width: 1.5;" x1="471" x2="471" y1="43.9688" y2="63.9688"/><polygon fill="#A80036" points="467,53.9688,471,63.9688,475,53.9688,471,57.9688" style="stroke: #A80036; stroke-width: 1.0;"/><line style="stroke: #A80036; stroke-width: 1.5;" x1="471" x2="471" y1="97.9375" y2="117.9375"/><polygon fill="#A80036" points="467,107.9375,471,117.9375,475,107.9375,471,111.9375" style="stroke: #A80036; stroke-width: 1.0;"/><line style="stroke: #A80036; stroke-width: 1.5;" x1="471" x2="471" y1="151.9063" y2="171.9063"/><polygon fill="#A80036" points="467,161.9063,471,171.9063,475,161.9063,471,165.9063" style="stroke: #A80036; stroke-width: 1.0;"/><line style="stroke: #A80036; stroke-width: 1.5;" x1="471" x2="471" y1="205.875" y2="225.875"/><polygon fill="#A80036" points="467,215.875,471,225.875,475,215.875,471,219.875" style="stroke: #A80036; stroke-width: 1.0;"/><line style="stroke: #A80036; stroke-width: 1.5;" x1="261" x2="261" y1="339.8125" y2="359.8125"/><polygon fill="#A80036" points="257,349.8125,261,359.8125,265,349.8125,261,353.8125" style="stroke: #A80036; stroke-width: 1.0;"/><line style="stroke: #A80036; stroke-width: 1.5;" x1="261" x2="261" y1="393.7813" y2="413.7813"/><polygon fill="#A80036" points="257,403.7813,261,413.7813,265,403.7813,261,407.7813" style="stroke: #A80036; stroke-width: 1.0;"/><line style="stroke: #A80036; stroke-width: 1.5;" x1="154" x2="154" y1="550.7188" y2="585.7188"/><polygon fill="#A80036" points="150,575.7188,154,585.7188,158,575.7188,154,579.7188" style="stroke: #A80036; stroke-width: 1.0;"/><line style="stroke: #A80036; stroke-width: 1.5;" x1="218" x2="154" y1="494.75" y2="494.75"/><line style="stroke: #A80036; stroke-width: 1.5;" x1="154" x2="154" y1="494.75" y2="516.75"/><polygon fill="#A80036" points="150,506.75,154,516.75,158,506.75,154,510.75" style="stroke: #A80036; stroke-width: 1.0;"/><line style="stroke: #A80036; stroke-width: 1.5;" x1="304" x2="368" y1="494.75" y2="494.75"/><line style="stroke: #A80036; stroke-width: 1.5;" x1="368" x2="368" y1="494.75" y2="516.75"/><polygon fill="#A80036" points="364,506.75,368,516.75,372,506.75,368,510.75" style="stroke: #A80036; stroke-width: 1.0;"/><line style="stroke: #A80036; stroke-width: 1.5;" x1="154" x2="154" y1="619.6875" y2="637.6875"/><line style="stroke: #A80036; stroke-width: 1.5;" x1="154" x2="249" y1="637.6875" y2="637.6875"/><polygon fill="#A80036" points="239,633.6875,249,637.6875,239,641.6875,243,637.6875" style="stroke: #A80036; stroke-width: 1.0;"/><line style="stroke: #A80036; stroke-width: 1.5;" x1="368" x2="368" y1="550.7188" y2="637.6875"/><line style="stroke: #A80036; stroke-width: 1.5;" x1="368" x2="273" y1="637.6875" y2="637.6875"/><polygon fill="#A80036" points="283,633.6875,273,637.6875,283,641.6875,279,637.6875" style="stroke: #A80036; stroke-width: 1.0;"/><line style="stroke: #A80036; stroke-width: 1.5;" x1="261" x2="261" y1="447.75" y2="482.75"/><polygon fill="#A80036" points="257,472.75,261,482.75,265,472.75,261,476.75" style="stroke: #A80036; stroke-width: 1.0;"/><line style="stroke: #A80036; stroke-width: 1.5;" x1="261" x2="261" y1="649.6875" y2="669.6875"/><polygon fill="#A80036" points="257,659.6875,261,669.6875,265,659.6875,261,663.6875" style="stroke: #A80036; stroke-width: 1.0;"/><line style="stroke: #A80036; stroke-width: 1.5;" x1="610" x2="610" y1="481.75" y2="516.75"/><polygon fill="#A80036" points="606,506.75,610,516.75,614,506.75,610,510.75" style="stroke: #A80036; stroke-width: 1.0;"/><line style="stroke: #A80036; stroke-width: 1.5;" x1="669.5" x2="610" y1="425.7813" y2="425.7813"/><line style="stroke: #A80036; stroke-width: 1.5;" x1="610" x2="610" y1="425.7813" y2="447.7813"/><polygon fill="#A80036" points="606,437.7813,610,447.7813,614,437.7813,610,441.7813" style="stroke: #A80036; stroke-width: 1.0;"/><line style="stroke: #A80036; stroke-width: 1.5;" x1="769.5" x2="829" y1="425.7813" y2="425.7813"/><line style="stroke: #A80036; stroke-width: 1.5;" x1="829" x2="829" y1="425.7813" y2="447.7813"/><polygon fill="#A80036" points="825,437.7813,829,447.7813,833,437.7813,829,441.7813" style="stroke: #A80036; stroke-width: 1.0;"/><line style="stroke: #A80036; stroke-width: 1.5;" x1="610" x2="610" y1="550.7188" y2="568.7188"/><line style="stroke: #A80036; stroke-width: 1.5;" x1="610" x2="707.5" y1="568.7188" y2="568.7188"/><polygon fill="#A80036" points="697.5,564.7188,707.5,568.7188,697.5,572.7188,701.5,568.7188" style="stroke: #A80036; stroke-width: 1.0;"/><line style="stroke: #A80036; stroke-width: 1.5;" x1="829" x2="829" y1="481.75" y2="568.7188"/><line style="stroke: #A80036; stroke-width: 1.5;" x1="829" x2="731.5" y1="568.7188" y2="568.7188"/><polygon fill="#A80036" points="741.5,564.7188,731.5,568.7188,741.5,572.7188,737.5,568.7188" style="stroke: #A80036; stroke-width: 1.0;"/><line style="stroke: #A80036; stroke-width: 1.5;" x1="719.5" x2="719.5" y1="393.7813" y2="413.7813"/><polygon fill="#A80036" points="715.5,403.7813,719.5,413.7813,723.5,403.7813,719.5,407.7813" style="stroke: #A80036; stroke-width: 1.0;"/><line style="stroke: #A80036; stroke-width: 1.5;" x1="719.5" x2="719.5" y1="580.7188" y2="615.7188"/><polygon fill="#A80036" points="715.5,605.7188,719.5,615.7188,723.5,605.7188,719.5,609.7188" style="stroke: #A80036; stroke-width: 1.0;"/><line style="stroke: #A80036; stroke-width: 1.5;" x1="261" x2="261" y1="285.8438" y2="305.8438"/><polygon fill="#A80036" points="257,295.8438,261,305.8438,265,295.8438,261,299.8438" style="stroke: #A80036; stroke-width: 1.0;"/><line style="stroke: #A80036; stroke-width: 1.5;" x1="719.5" x2="719.5" y1="285.8438" y2="359.8125"/><polygon fill="#A80036" points="715.5,349.8125,719.5,359.8125,723.5,349.8125,719.5,353.8125" style="stroke: #A80036; stroke-width: 1.0;"/><line style="stroke: #A80036; stroke-width: 1.5;" x1="261" x2="261" y1="703.6563" y2="723.6563"/><polygon fill="#A80036" points="257,713.6563,261,723.6563,265,713.6563,261,717.6563" style="stroke: #A80036; stroke-width: 1.0;"/><line style="stroke: #A80036; stroke-width: 1.5;" x1="719.5" x2="719.5" y1="649.6875" y2="723.6563"/><polygon fill="#A80036" points="715.5,713.6563,719.5,723.6563,723.5,713.6563,719.5,717.6563" style="stroke: #A80036; stroke-width: 1.0;"/><line style="stroke: #A80036; stroke-width: 1.5;" x1="471" x2="471" y1="259.8438" y2="279.8438"/><polygon fill="#A80036" points="467,269.8438,471,279.8438,475,269.8438,471,273.8438" style="stroke: #A80036; stroke-width: 1.0;"/><!--
@startuml

:netProcessor.init();
:init_HttpProxyServer();
:eventProcessor::start();
note right: ET_NET threads start here
:plugin_init();
note right: Global plugin initialization
:cacheProcessor.start();
fork
:udpNet::start();
:init_accept_HttpProxyServer();
:TS_EVENT_LIFECYCLE_PORTS_INITIALIZED>
if (cache_wait) then (ready)
:start_HttpProxyServer();
:TS_EVENT_LIFECYCLE_PORTS_READY>
else (not ready)
:cache_wait = waited;
endif
:tasksProcessor.start();
fork again
:Cache Initialization;
if (cache_waited) then (waited)
:start_HttpProxyServer();
:TS_EVENT_LIFECYCLE_PORTS_READY>
else (not ready)
:cache_waited = ready;
endif
:TS_EVENT_LIFECYCLE_CACHE_READY>
end fork
@enduml

PlantUML version 1.2018.01(Sun Jan 28 12:08:22 CST 2018)
(APACHE source distribution)
Java Runtime: OpenJDK Runtime Environment
JVM: OpenJDK 64-Bit Server VM
Java Version: 11-ea+28
Operating System: Linux
OS Version: 5.0.7-200.fc29.x86_64
Default Encoding: UTF-8
Language: en
Country: US
--></g></svg>