<?xml version="1.0" encoding="UTF-8" standalone="no"?><svg xmlns="http://www.w3.org/2000/svg" xmlns:xlink="http://www.w3.org/1999/xlink" contentScriptType="application/ecmascript" contentStyleType="text/css" height="101px" preserveAspectRatio="none" style="width:546px;height:101px;" version="1.1" viewBox="0 0 546 101" width="546px" zoomAndPan="magnify"><defs><filter height="300%" id="f1t7meafez2pwn" width="300%" x="-1" y="-1"><feGaussianBlur result="blurOut" stdDeviation="2.0"/><feColorMatrix in="blurOut" result="blurOut2" type="matrix" values="0 0 0 0 0 0 0 0 0 0 0 0 0 0 0 0 0 0 .4 0"/><feOffset dx="4.0" dy="4.0" in="blurOut2" result="blurOut3"/><feBlend in="SourceGraphic" in2="blurOut3" mode="normal"/></filter></defs><g><!--MD5=[7dba778accb06d0be5db53cb6f17f7df]
entity Cloud--><path d="M256.6329,36.4305 C260.3335,29.7172 265.0649,28.2542 270.7605,34.2049 C274.1253,27.4618 278.8341,27.8561 283.6626,32.5545 C288.9484,26.1787 294.7946,26.1056 298.1981,34.4173 C303.397,28.1886 307.8876,30.0601 311.1746,36.3925 C318.5075,40.3201 319.1815,45.0168 312.8279,50.5435 C319.8077,56.4084 318.7195,62.5983 310.7449,66.5126 C306.8772,72.8297 301.1044,73.3377 297.1302,66.6239 C293.6879,74.6186 287.5191,73.9876 282.8687,67.8424 C279.038,74.5348 273.719,74.0163 269.6713,68.069 C264.1508,72.9921 259.7428,73.3565 255.9635,66.108 C248.5153,62.6599 249.152,55.9582 254.7001,51.3941 C247.7547,45.778 249.9379,40.2847 256.6329,36.4305 " fill="#FEFECE" style="stroke: #000000; stroke-width: 1.5;"/><text fill="#000000" font-family="sans-serif" font-size="14" lengthAdjust="spacingAndGlyphs" textLength="40" x="262.5" y="54.4951">Cloud</text><!--MD5=[0ba5ee7700168656dc1b457c6fe9fdac]
entity Client--><ellipse cx="25.5" cy="18" fill="#FEFECE" filter="url(#f1t7meafez2pwn)" rx="8" ry="8" style="stroke: #A80036; stroke-width: 2.0;"/><path d="M25.5,26 L25.5,53 M12.5,34 L38.5,34 M25.5,53 L12.5,68 M25.5,53 L38.5,68 " fill="none" filter="url(#f1t7meafez2pwn)" style="stroke: #A80036; stroke-width: 2.0;"/><text fill="#000000" font-family="sans-serif" font-size="14" lengthAdjust="spacingAndGlyphs" textLength="39" x="6" y="87.9951">Client</text><!--MD5=[76135f9afc5f2b97af6996623fc8da30]
entity Ingress--><polygon fill="#FEFECE" filter="url(#f1t7meafez2pwn)" points="80.5,36.5,90.5,26.5,212.5,26.5,212.5,62.7969,202.5,72.7969,80.5,72.7969,80.5,36.5" style="stroke: #000000; stroke-width: 1.5;"/><line style="stroke: #000000; stroke-width: 1.5;" x1="202.5" x2="211.5" y1="36.5" y2="27.5"/><line style="stroke: #000000; stroke-width: 1.5;" x1="80.5" x2="202.5" y1="36.5" y2="36.5"/><line style="stroke: #000000; stroke-width: 1.5;" x1="202.5" x2="202.5" y1="36.5" y2="72.7969"/><text fill="#000000" font-family="sans-serif" font-size="14" lengthAdjust="spacingAndGlyphs" textLength="92" x="95.5" y="59.4951">Ingress Proxy</text><!--MD5=[7434fc19771e0f66f8659a4e95695800]
entity Proxy--><polygon fill="#FEFECE" filter="url(#f1t7meafez2pwn)" points="353,36.5,363,26.5,430,26.5,430,62.7969,420,72.7969,353,72.7969,353,36.5" style="stroke: #000000; stroke-width: 1.5;"/><line style="stroke: #000000; stroke-width: 1.5;" x1="420" x2="429" y1="36.5" y2="27.5"/><line style="stroke: #000000; stroke-width: 1.5;" x1="353" x2="420" y1="36.5" y2="36.5"/><line style="stroke: #000000; stroke-width: 1.5;" x1="420" x2="420" y1="36.5" y2="72.7969"/><text fill="#000000" font-family="sans-serif" font-size="14" lengthAdjust="spacingAndGlyphs" textLength="37" x="368" y="59.4951">Proxy</text><!--MD5=[17737e49c286898813382e12d6080e03]
entity Service--><rect fill="#FEFECE" filter="url(#f1t7meafez2pwn)" height="36.2969" style="stroke: #A80036; stroke-width: 1.5;" width="70" x="465.5" y="31.5"/><rect fill="#FEFECE" height="5" style="stroke: #A80036; stroke-width: 1.5;" width="10" x="460.5" y="36.5"/><rect fill="#FEFECE" height="5" style="stroke: #A80036; stroke-width: 1.5;" width="10" x="460.5" y="57.7969"/><text fill="#000000" font-family="sans-serif" font-size="14" lengthAdjust="spacingAndGlyphs" textLength="50" x="475.5" y="54.4951">Service</text><!--MD5=[5c120e158ca0d930cefbe75667cee584]
link Client to Ingress--><path d="M50.5127,49.5 C58.6859,49.5 66.8591,49.5 75.0324,49.5 " fill="none" id="Client-Ingress" style="stroke: #A80036; stroke-width: 1.0;"/><polygon fill="#A80036" points="80.1213,49.5,71.1213,45.5,75.1213,49.5,71.1213,53.5,80.1213,49.5" style="stroke: #A80036; stroke-width: 1.0;"/><polygon fill="#A80036" points="45.3516,49.5,54.3516,53.5,50.3516,49.5,54.3516,45.5,45.3516,49.5" style="stroke: #A80036; stroke-width: 1.0;"/><!--MD5=[d51f06433ff8e182f50e42125defdada]
link Ingress to Cloud--><path d="M217.785,49.5 C225.9317,49.5 234.0783,49.5 242.225,49.5 " fill="none" id="Ingress-Cloud" style="stroke: #A80036; stroke-width: 1.0;"/><polygon fill="#A80036" points="247.2974,49.5,238.2974,45.5,242.2974,49.5,238.2974,53.5,247.2974,49.5" style="stroke: #A80036; stroke-width: 1.0;"/><polygon fill="#A80036" points="212.6406,49.5,221.6406,53.5,217.6406,49.5,221.6406,45.5,212.6406,49.5" style="stroke: #A80036; stroke-width: 1.0;"/><!--MD5=[c365f3037990bf5500d418b2d9428ede]
link Cloud to Proxy--><path d="M323.0505,49.5 C331.3022,49.5 339.554,49.5 347.8057,49.5 " fill="none" id="Cloud-Proxy" style="stroke: #A80036; stroke-width: 1.0;"/><polygon fill="#A80036" points="352.9435,49.5,343.9435,45.5,347.9435,49.5,343.9435,53.5,352.9435,49.5" style="stroke: #A80036; stroke-width: 1.0;"/><polygon fill="#A80036" points="317.8398,49.5,326.8398,53.5,322.8398,49.5,326.8398,45.5,317.8398,49.5" style="stroke: #A80036; stroke-width: 1.0;"/><!--MD5=[c06e0f4d3fead846c1ea49320ee3970f]
link Proxy to Service--><path d="M435.4603,49.5 C443.7174,49.5 451.9746,49.5 460.2318,49.5 " fill="none" id="Proxy-Service" style="stroke: #A80036; stroke-width: 1.0;"/><polygon fill="#A80036" points="465.373,49.5,456.373,45.5,460.373,49.5,456.373,53.5,465.373,49.5" style="stroke: #A80036; stroke-width: 1.0;"/><polygon fill="#A80036" points="430.2461,49.5,439.2461,53.5,435.2461,49.5,439.2461,45.5,430.2461,49.5" style="stroke: #A80036; stroke-width: 1.0;"/><!--MD5=[b74fc9bfaffce550d52286d1eabf31fe]
@startuml
hide empty members
cloud Cloud
actor Client
node "Ingress Proxy" as Ingress
node "Proxy" as Proxy

[Client] <-> [Ingress]
[Ingress] <-> [Cloud]
[Cloud] <-> [Proxy]
[Proxy] <-> [Service]

@enduml

PlantUML version 1.2019.11(Sun Sep 22 05:02:15 CDT 2019)
(GPL source distribution)
Java Runtime: OpenJDK Runtime Environment
JVM: OpenJDK 64-Bit Server VM
Java Version: 1.8.0_222-b10
Operating System: Linux
Default Encoding: UTF-8
Language: en
Country: US
--></g></svg>