<?xml version="1.0" encoding="UTF-8" standalone="no"?><svg xmlns="http://www.w3.org/2000/svg" xmlns:xlink="http://www.w3.org/1999/xlink" contentScriptType="application/ecmascript" contentStyleType="text/css" height="412px" preserveAspectRatio="none" style="width:574px;height:412px;" version="1.1" viewBox="0 0 574 412" width="574px" zoomAndPan="magnify"><defs><filter height="300%" id="fywauudv5rfq" width="300%" x="-1" y="-1"><feGaussianBlur result="blurOut" stdDeviation="2.0"/><feColorMatrix in="blurOut" result="blurOut2" type="matrix" values="0 0 0 0 0 0 0 0 0 0 0 0 0 0 0 0 0 0 .4 0"/><feOffset dx="4.0" dy="4.0" in="blurOut2" result="blurOut3"/><feBlend in="SourceGraphic" in2="blurOut3" mode="normal"/></filter></defs><g><line style="stroke: #A80036; stroke-width: 1.0; stroke-dasharray: 5.0,5.0;" x1="31" x2="31" y1="86.2969" y2="325.0938"/><line style="stroke: #A80036; stroke-width: 1.0; stroke-dasharray: 5.0,5.0;" x1="182" x2="182" y1="86.2969" y2="325.0938"/><line style="stroke: #A80036; stroke-width: 1.0; stroke-dasharray: 5.0,5.0;" x1="333" x2="333" y1="86.2969" y2="325.0938"/><text fill="#000000" font-family="sans-serif" font-size="14" lengthAdjust="spacingAndGlyphs" textLength="41" x="8" y="82.9951">Client</text><ellipse cx="31.5" cy="13" fill="#FEFECE" filter="url(#fywauudv5rfq)" rx="8" ry="8" style="stroke: #A80036; stroke-width: 2.0;"/><path d="M31.5,21 L31.5,48 M18.5,29 L44.5,29 M31.5,48 L18.5,63 M31.5,48 L44.5,63 " fill="#FEFECE" filter="url(#fywauudv5rfq)" style="stroke: #A80036; stroke-width: 2.0;"/><text fill="#000000" font-family="sans-serif" font-size="14" lengthAdjust="spacingAndGlyphs" textLength="41" x="8" y="337.0889">Client</text><ellipse cx="31.5" cy="350.3906" fill="#FEFECE" filter="url(#fywauudv5rfq)" rx="8" ry="8" style="stroke: #A80036; stroke-width: 2.0;"/><path d="M31.5,358.3906 L31.5,385.3906 M18.5,366.3906 L44.5,366.3906 M31.5,385.3906 L18.5,400.3906 M31.5,385.3906 L44.5,400.3906 " fill="#FEFECE" filter="url(#fywauudv5rfq)" style="stroke: #A80036; stroke-width: 2.0;"/><rect fill="#FEFECE" filter="url(#fywauudv5rfq)" height="30.2969" style="stroke: #A80036; stroke-width: 1.5;" width="87" x="137" y="51"/><text fill="#000000" font-family="sans-serif" font-size="14" lengthAdjust="spacingAndGlyphs" textLength="73" x="144" y="70.9951">Ingress TS</text><rect fill="#FEFECE" filter="url(#fywauudv5rfq)" height="30.2969" style="stroke: #A80036; stroke-width: 1.5;" width="87" x="137" y="324.0938"/><text fill="#000000" font-family="sans-serif" font-size="14" lengthAdjust="spacingAndGlyphs" textLength="73" x="144" y="344.0889">Ingress TS</text><rect fill="#FEFECE" filter="url(#fywauudv5rfq)" height="30.2969" style="stroke: #A80036; stroke-width: 1.5;" width="67" x="298" y="51"/><text fill="#000000" font-family="sans-serif" font-size="14" lengthAdjust="spacingAndGlyphs" textLength="53" x="305" y="70.9951">Service</text><rect fill="#FEFECE" filter="url(#fywauudv5rfq)" height="30.2969" style="stroke: #A80036; stroke-width: 1.5;" width="67" x="298" y="324.0938"/><text fill="#000000" font-family="sans-serif" font-size="14" lengthAdjust="spacingAndGlyphs" textLength="53" x="305" y="344.0889">Service</text><polygon fill="#008000" points="42.5,113.2969,32.5,117.2969,42.5,121.2969,38.5,117.2969" style="stroke: #008000; stroke-width: 1.0;"/><polygon fill="#008000" points="170.5,113.2969,180.5,117.2969,170.5,121.2969,174.5,117.2969" style="stroke: #008000; stroke-width: 1.0;"/><line style="stroke: #008000; stroke-width: 1.0;" x1="36.5" x2="176.5" y1="117.2969" y2="117.2969"/><text fill="#000000" font-family="sans-serif" font-size="13" font-style="italic" lengthAdjust="spacingAndGlyphs" textLength="82" x="48.5" y="112.3638">TCP Connect</text><polygon fill="#0000FF" points="170.5,142.4297,180.5,146.4297,170.5,150.4297,174.5,146.4297" style="stroke: #0000FF; stroke-width: 1.0;"/><line style="stroke: #0000FF; stroke-width: 1.0; stroke-dasharray: 2.0,2.0;" x1="31.5" x2="176.5" y1="146.4297" y2="146.4297"/><text fill="#0000FF" font-family="sans-serif" font-size="13" lengthAdjust="spacingAndGlyphs" textLength="27" x="38.5" y="141.4966">TLS:</text><text fill="#0000FF" font-family="monospace" font-size="13" lengthAdjust="spacingAndGlyphs" textLength="96" x="69.5" y="141.4966">CLIENT HELLO</text><polygon fill="#FBFB77" filter="url(#fywauudv5rfq)" points="76,159.5625,76,184.5625,285,184.5625,285,169.5625,275,159.5625,76,159.5625" style="stroke: #A80036; stroke-width: 1.0;"/><line style="stroke: #A80036; stroke-width: 1.0;" x1="275" x2="275" y1="159.5625" y2="169.5625"/><line style="stroke: #A80036; stroke-width: 1.0;" x1="285" x2="275" y1="169.5625" y2="169.5625"/><text fill="#000000" font-family="sans-serif" font-size="13" lengthAdjust="spacingAndGlyphs" textLength="188" x="82" y="176.6294">Map SNI to upstream Service</text><polygon fill="#008000" points="193.5,210.6953,183.5,214.6953,193.5,218.6953,189.5,214.6953" style="stroke: #008000; stroke-width: 1.0;"/><polygon fill="#008000" points="321.5,210.6953,331.5,214.6953,321.5,218.6953,325.5,214.6953" style="stroke: #008000; stroke-width: 1.0;"/><line style="stroke: #008000; stroke-width: 1.0;" x1="187.5" x2="327.5" y1="214.6953" y2="214.6953"/><text fill="#000000" font-family="sans-serif" font-size="13" font-style="italic" lengthAdjust="spacingAndGlyphs" textLength="82" x="199.5" y="209.7622">TCP Connect</text><polygon fill="#0000FF" points="321.5,244.8281,331.5,248.8281,321.5,252.8281,325.5,248.8281" style="stroke: #0000FF; stroke-width: 1.0;"/><line style="stroke: #0000FF; stroke-width: 1.0; stroke-dasharray: 2.0,2.0;" x1="182.5" x2="327.5" y1="248.8281" y2="248.8281"/><text fill="#0000FF" font-family="sans-serif" font-size="13" lengthAdjust="spacingAndGlyphs" textLength="27" x="189.5" y="243.895">TLS:</text><text fill="#0000FF" font-family="monospace" font-size="13" lengthAdjust="spacingAndGlyphs" textLength="96" x="220.5" y="243.895">CLIENT HELLO</text><polygon fill="#FBFB77" filter="url(#fywauudv5rfq)" points="338,227.8281,338,252.8281,552,252.8281,552,237.8281,542,227.8281,338,227.8281" style="stroke: #A80036; stroke-width: 1.0;"/><line style="stroke: #A80036; stroke-width: 1.0;" x1="542" x2="542" y1="227.8281" y2="237.8281"/><line style="stroke: #A80036; stroke-width: 1.0;" x1="552" x2="542" y1="237.8281" y2="237.8281"/><text fill="#000000" font-family="sans-serif" font-size="13" lengthAdjust="spacingAndGlyphs" textLength="193" x="344" y="244.895">Duplicate of data from Client.</text><polygon fill="#FBFB77" filter="url(#fywauudv5rfq)" points="32,266.9609,32,291.9609,328,291.9609,328,276.9609,318,266.9609,32,266.9609" style="stroke: #A80036; stroke-width: 1.0;"/><line style="stroke: #A80036; stroke-width: 1.0;" x1="318" x2="318" y1="266.9609" y2="276.9609"/><line style="stroke: #A80036; stroke-width: 1.0;" x1="328" x2="318" y1="276.9609" y2="276.9609"/><text fill="#000000" font-family="sans-serif" font-size="13" lengthAdjust="spacingAndGlyphs" textLength="194" x="38" y="284.0278">Forward bytes between Client</text><path d="M240.25,276.2604 L237,279.544 L240.25,282.7604 L240.25,280.5938 L245.6667,280.5938 L245.6667,278.4271 L240.25,278.4271 L240.25,276.2604 " fill="#000000" style="stroke: ; stroke-width: 0.0; stroke-dasharray: ;"/><text fill="#000000" font-family="sans-serif" font-size="13" lengthAdjust="spacingAndGlyphs" textLength="0" x="250.6667" y="284.0278"/><path d="M257.0833,276.2604 L257.0833,278.4271 L251.6667,278.4271 L251.6667,280.5938 L257.0833,280.5938 L257.0833,282.7604 L260.3333,279.4768 L257.0833,276.2604 " fill="#000000" style="stroke: ; stroke-width: 0.0; stroke-dasharray: ;"/><text fill="#000000" font-family="sans-serif" font-size="13" lengthAdjust="spacingAndGlyphs" textLength="48" x="265.3333" y="284.0278">Service</text><polygon fill="#A80036" points="42.5,303.0938,32.5,307.0938,42.5,311.0938,38.5,307.0938" style="stroke: #A80036; stroke-width: 1.0;"/><polygon fill="#A80036" points="321.5,303.0938,331.5,307.0938,321.5,311.0938,325.5,307.0938" style="stroke: #A80036; stroke-width: 1.0;"/><line style="stroke: #A80036; stroke-width: 1.0; stroke-dasharray: 2.0,2.0;" x1="36.5" x2="327.5" y1="307.0938" y2="307.0938"/><!--
@startuml
actor Client
participant "Ingress TS" as Ingress
participant Service

Client <-[#green]> Ingress : //TCP Connect//
Client -[#blue]-> Ingress : <font color="blue">TLS: ""CLIENT HELLO""</font>
note over Ingress : Map SNI to upstream Service
Ingress <-[#green]> Service : //TCP Connect//
Ingress -[#blue]-> Service : <font color="blue">TLS: ""CLIENT HELLO""</font>
note right : Duplicate of data from Client.
note over Ingress : Forward bytes between Client <&arrow-thick-left> <&arrow-thick-right> Service
Client <- -> Service

@enduml

PlantUML version 1.2017.18(Fri Oct 06 11:56:32 CDT 2017)
(GPL source distribution)
Java Runtime: OpenJDK Runtime Environment
JVM: OpenJDK 64-Bit Server VM
Java Version: 1.8.0_151-b12
Operating System: Linux
OS Version: 4.13.13-200.fc26.x86_64
Default Encoding: UTF-8
Language: en
Country: US
--></g></svg>