<?xml version="1.0" encoding="UTF-8" standalone="no"?><svg xmlns="http://www.w3.org/2000/svg" xmlns:xlink="http://www.w3.org/1999/xlink" contentScriptType="application/ecmascript" contentStyleType="text/css" height="101px" preserveAspectRatio="none" style="width:536px;height:101px;" version="1.1" viewBox="0 0 536 101" width="536px" zoomAndPan="magnify"><defs><filter height="300%" id="f1t7meafez2pwn" width="300%" x="-1" y="-1"><feGaussianBlur result="blurOut" stdDeviation="2.0"/><feColorMatrix in="blurOut" result="blurOut2" type="matrix" values="0 0 0 0 0 0 0 0 0 0 0 0 0 0 0 0 0 0 .4 0"/><feOffset dx="4.0" dy="4.0" in="blurOut2" result="blurOut3"/><feBlend in="SourceGraphic" in2="blurOut3" mode="normal"/></filter></defs><g><!--entity Cloud--><path d="M250.5,38.5 C250.5,35.5 252.5,33.5 255.5,33.5 C258.5,33.5 260.5,35.5 260.5,38.5 C260.5,35.5 262.5,33.5 265.5,33.5 C268.5,33.5 270.5,35.5 270.5,38.5 C270.5,35.5 272.5,33.5 275.5,33.5 C278.5,33.5 280.5,35.5 280.5,38.5 C280.5,35.5 282.5,33.5 285.5,33.5 C288.5,33.5 290.5,35.5 290.5,38.5 C290.5,35.5 292.5,33.5 295.5,33.5 C298.5,33.5 300.5,35.5 300.5,38.5 C300.5,35.5 302.5,33.5 305.5,33.5 C308.5,33.5 310.5,35.5 310.5,38.5 C313.5,38.5 315.5,40.5 315.5,43.5 C315.5,46.5 313.5,48.5 310.5,48.5 C313.5,48.5 315.5,50.5 315.5,53.5 C315.5,56.5 313.5,58.5 310.5,58.5 C310.5,61.5 307.5,63.5 305.5,63.5 C302.5,63.5 300.5,61.5 300.5,58.5 C300.5,61.5 297.5,63.5 295.5,63.5 C292.5,63.5 290.5,61.5 290.5,58.5 C290.5,61.5 287.5,63.5 285.5,63.5 C282.5,63.5 280.5,61.5 280.5,58.5 C280.5,61.5 277.5,63.5 275.5,63.5 C272.5,63.5 270.5,61.5 270.5,58.5 C270.5,61.5 267.5,63.5 265.5,63.5 C262.5,63.5 260.5,61.5 260.5,58.5 C260.5,61.5 257.5,63.5 255.5,63.5 C252.5,63.5 250.5,61.5 250.5,58.5 C247.5,58.5 245.5,56.5 245.5,53.5 C245.5,50.5 247.5,48.5 250.5,48.5 C247.5,48.5 245.5,46.5 245.5,43.5 C245.5,40.5 247.5,38.5 250.5,38.5 " fill="#FEFECE" filter="url(#f1t7meafez2pwn)" style="stroke: #000000; stroke-width: 1.5;"/><text fill="#000000" font-family="sans-serif" font-size="14" lengthAdjust="spacingAndGlyphs" textLength="40" x="257.5" y="54.4951">Cloud</text><!--entity Client--><ellipse cx="25.5" cy="18" fill="#FEFECE" filter="url(#f1t7meafez2pwn)" rx="8" ry="8" style="stroke: #A80036; stroke-width: 2.0;"/><path d="M25.5,26 L25.5,53 M12.5,34 L38.5,34 M25.5,53 L12.5,68 M25.5,53 L38.5,68 " fill="none" filter="url(#f1t7meafez2pwn)" style="stroke: #A80036; stroke-width: 2.0;"/><text fill="#000000" font-family="sans-serif" font-size="14" lengthAdjust="spacingAndGlyphs" textLength="39" x="6" y="87.9951">Client</text><!--entity Ingress--><polygon fill="#FEFECE" filter="url(#f1t7meafez2pwn)" points="80.5,36.5,90.5,26.5,212.5,26.5,212.5,62.7969,202.5,72.7969,80.5,72.7969,80.5,36.5" style="stroke: #000000; stroke-width: 1.5;"/><line style="stroke: #000000; stroke-width: 1.5;" x1="202.5" x2="211.5" y1="36.5" y2="27.5"/><line style="stroke: #000000; stroke-width: 1.5;" x1="80.5" x2="202.5" y1="36.5" y2="36.5"/><line style="stroke: #000000; stroke-width: 1.5;" x1="202.5" x2="202.5" y1="36.5" y2="72.7969"/><text fill="#000000" font-family="sans-serif" font-size="14" lengthAdjust="spacingAndGlyphs" textLength="92" x="95.5" y="59.4951">Ingress Proxy</text><!--entity Proxy--><polygon fill="#FEFECE" filter="url(#f1t7meafez2pwn)" points="343,36.5,353,26.5,420,26.5,420,62.7969,410,72.7969,343,72.7969,343,36.5" style="stroke: #000000; stroke-width: 1.5;"/><line style="stroke: #000000; stroke-width: 1.5;" x1="410" x2="419" y1="36.5" y2="27.5"/><line style="stroke: #000000; stroke-width: 1.5;" x1="343" x2="410" y1="36.5" y2="36.5"/><line style="stroke: #000000; stroke-width: 1.5;" x1="410" x2="410" y1="36.5" y2="72.7969"/><text fill="#000000" font-family="sans-serif" font-size="14" lengthAdjust="spacingAndGlyphs" textLength="37" x="358" y="59.4951">Proxy</text><!--entity Service--><rect fill="#FEFECE" filter="url(#f1t7meafez2pwn)" height="36.2969" style="stroke: #A80036; stroke-width: 1.5;" width="70" x="455.5" y="31.5"/><rect fill="#FEFECE" height="5" style="stroke: #A80036; stroke-width: 1.5;" width="10" x="450.5" y="36.5"/><rect fill="#FEFECE" height="5" style="stroke: #A80036; stroke-width: 1.5;" width="10" x="450.5" y="57.7969"/><text fill="#000000" font-family="sans-serif" font-size="14" lengthAdjust="spacingAndGlyphs" textLength="50" x="465.5" y="54.4951">Service</text><!--link Client to Ingress--><path d="M50.5127,49.5 C58.6859,49.5 66.8591,49.5 75.0324,49.5 " fill="none" id="Client-Ingress" style="stroke: #A80036; stroke-width: 1.0;"/><polygon fill="#A80036" points="80.1213,49.5,71.1213,45.5,75.1213,49.5,71.1213,53.5,80.1213,49.5" style="stroke: #A80036; stroke-width: 1.0;"/><polygon fill="#A80036" points="45.3516,49.5,54.3516,53.5,50.3516,49.5,54.3516,45.5,45.3516,49.5" style="stroke: #A80036; stroke-width: 1.0;"/><!--link Ingress to Cloud--><path d="M217.6742,49.5 C225.8496,49.5 234.0249,49.5 242.2003,49.5 " fill="none" id="Ingress-Cloud" style="stroke: #A80036; stroke-width: 1.0;"/><polygon fill="#A80036" points="247.2906,49.5,238.2906,45.5,242.2906,49.5,238.2906,53.5,247.2906,49.5" style="stroke: #A80036; stroke-width: 1.0;"/><polygon fill="#A80036" points="212.5117,49.5,221.5117,53.5,217.5117,49.5,221.5117,45.5,212.5117,49.5" style="stroke: #A80036; stroke-width: 1.0;"/><!--link Cloud to Proxy--><path d="M312.7928,49.5 C321.0756,49.5 329.3584,49.5 337.6411,49.5 " fill="none" id="Cloud-Proxy" style="stroke: #A80036; stroke-width: 1.0;"/><polygon fill="#A80036" points="342.7983,49.5,333.7983,45.5,337.7983,49.5,333.7983,53.5,342.7983,49.5" style="stroke: #A80036; stroke-width: 1.0;"/><polygon fill="#A80036" points="307.5625,49.5,316.5625,53.5,312.5625,49.5,316.5625,45.5,307.5625,49.5" style="stroke: #A80036; stroke-width: 1.0;"/><!--link Proxy to Service--><path d="M425.4603,49.5 C433.7174,49.5 441.9746,49.5 450.2318,49.5 " fill="none" id="Proxy-Service" style="stroke: #A80036; stroke-width: 1.0;"/><polygon fill="#A80036" points="455.373,49.5,446.373,45.5,450.373,49.5,446.373,53.5,455.373,49.5" style="stroke: #A80036; stroke-width: 1.0;"/><polygon fill="#A80036" points="420.2461,49.5,429.2461,53.5,425.2461,49.5,429.2461,45.5,420.2461,49.5" style="stroke: #A80036; stroke-width: 1.0;"/><!--
@startuml
hide empty members
cloud Cloud
actor Client
node "Ingress Proxy" as Ingress
node "Proxy" as Proxy

[Client] <-> [Ingress]
[Ingress] <-> [Cloud]
[Cloud] <-> [Proxy]
[Proxy] <-> [Service]

@enduml

PlantUML version 1.2018.01(Sun Jan 28 12:08:22 CST 2018)
(APACHE source distribution)
Java Runtime: OpenJDK Runtime Environment
JVM: OpenJDK 64-Bit Server VM
Java Version: 11-ea+28
Operating System: Linux
OS Version: 5.0.7-200.fc29.x86_64
Default Encoding: UTF-8
Language: en
Country: US
--></g></svg>