<?xml version="1.0" encoding="UTF-8" standalone="no"?><svg xmlns="http://www.w3.org/2000/svg" xmlns:xlink="http://www.w3.org/1999/xlink" contentScriptType="application/ecmascript" contentStyleType="text/css" height="349px" preserveAspectRatio="none" style="width:511px;height:349px;" version="1.1" viewBox="0 0 511 349" width="511px" zoomAndPan="magnify"><defs><filter height="300%" id="fuuyqssww0eli" width="300%" x="-1" y="-1"><feGaussianBlur result="blurOut" stdDeviation="2.0"/><feColorMatrix in="blurOut" result="blurOut2" type="matrix" values="0 0 0 0 0 0 0 0 0 0 0 0 0 0 0 0 0 0 .4 0"/><feOffset dx="4.0" dy="4.0" in="blurOut2" result="blurOut3"/><feBlend in="SourceGraphic" in2="blurOut3" mode="normal"/></filter></defs><g><line style="stroke: #A80036; stroke-width: 1.0; stroke-dasharray: 5.0,5.0;" x1="31" x2="31" y1="86.2969" y2="261.9609"/><line style="stroke: #A80036; stroke-width: 1.0; stroke-dasharray: 5.0,5.0;" x1="137" x2="137" y1="86.2969" y2="261.9609"/><line style="stroke: #A80036; stroke-width: 1.0; stroke-dasharray: 5.0,5.0;" x1="284" x2="284" y1="86.2969" y2="261.9609"/><text fill="#000000" font-family="sans-serif" font-size="14" lengthAdjust="spacingAndGlyphs" textLength="41" x="8" y="82.9951">Client</text><ellipse cx="31.5" cy="13" fill="#FEFECE" filter="url(#fuuyqssww0eli)" rx="8" ry="8" style="stroke: #A80036; stroke-width: 2.0;"/><path d="M31.5,21 L31.5,48 M18.5,29 L44.5,29 M31.5,48 L18.5,63 M31.5,48 L44.5,63 " fill="#FEFECE" filter="url(#fuuyqssww0eli)" style="stroke: #A80036; stroke-width: 2.0;"/><text fill="#000000" font-family="sans-serif" font-size="14" lengthAdjust="spacingAndGlyphs" textLength="41" x="8" y="273.9561">Client</text><ellipse cx="31.5" cy="287.2578" fill="#FEFECE" filter="url(#fuuyqssww0eli)" rx="8" ry="8" style="stroke: #A80036; stroke-width: 2.0;"/><path d="M31.5,295.2578 L31.5,322.2578 M18.5,303.2578 L44.5,303.2578 M31.5,322.2578 L18.5,337.2578 M31.5,322.2578 L44.5,337.2578 " fill="#FEFECE" filter="url(#fuuyqssww0eli)" style="stroke: #A80036; stroke-width: 2.0;"/><rect fill="#FEFECE" filter="url(#fuuyqssww0eli)" height="30.2969" style="stroke: #A80036; stroke-width: 1.5;" width="53" x="109" y="51"/><text fill="#000000" font-family="sans-serif" font-size="14" lengthAdjust="spacingAndGlyphs" textLength="39" x="116" y="70.9951">Proxy</text><rect fill="#FEFECE" filter="url(#fuuyqssww0eli)" height="30.2969" style="stroke: #A80036; stroke-width: 1.5;" width="53" x="109" y="260.9609"/><text fill="#000000" font-family="sans-serif" font-size="14" lengthAdjust="spacingAndGlyphs" textLength="39" x="116" y="280.9561">Proxy</text><rect fill="#FEFECE" filter="url(#fuuyqssww0eli)" height="30.2969" style="stroke: #A80036; stroke-width: 1.5;" width="67" x="249" y="51"/><text fill="#000000" font-family="sans-serif" font-size="14" lengthAdjust="spacingAndGlyphs" textLength="53" x="256" y="70.9951">Service</text><rect fill="#FEFECE" filter="url(#fuuyqssww0eli)" height="30.2969" style="stroke: #A80036; stroke-width: 1.5;" width="67" x="249" y="260.9609"/><text fill="#000000" font-family="sans-serif" font-size="14" lengthAdjust="spacingAndGlyphs" textLength="53" x="256" y="280.9561">Service</text><polygon fill="#008000" points="125.5,113.2969,135.5,117.2969,125.5,121.2969,129.5,117.2969" style="stroke: #008000; stroke-width: 1.0;"/><line style="stroke: #008000; stroke-width: 1.0;" x1="31.5" x2="131.5" y1="117.2969" y2="117.2969"/><text fill="#008000" font-family="sans-serif" font-size="13" font-style="italic" lengthAdjust="spacingAndGlyphs" textLength="82" x="38.5" y="112.3638">TCP Connect</text><polygon fill="#0000FF" points="272.5,142.4297,282.5,146.4297,272.5,150.4297,276.5,146.4297" style="stroke: #0000FF; stroke-width: 1.0;"/><line style="stroke: #0000FF; stroke-width: 1.0; stroke-dasharray: 2.0,2.0;" x1="31.5" x2="278.5" y1="146.4297" y2="146.4297"/><text fill="#0000FF" font-family="sans-serif" font-size="13" lengthAdjust="spacingAndGlyphs" textLength="23" x="38.5" y="141.4966">TLS</text><text fill="#0000FF" font-family="monospace" font-size="13" lengthAdjust="spacingAndGlyphs" textLength="96" x="65.5" y="141.4966">Client HELLO</text><polygon fill="#008000" points="272.5,171.5625,282.5,175.5625,272.5,179.5625,276.5,175.5625" style="stroke: #008000; stroke-width: 1.0;"/><line style="stroke: #008000; stroke-width: 1.0;" x1="137.5" x2="278.5" y1="175.5625" y2="175.5625"/><text fill="#008000" font-family="sans-serif" font-size="13" font-style="italic" lengthAdjust="spacingAndGlyphs" textLength="82" x="144.5" y="170.6294">TCP Connect</text><polygon fill="#0000FF" points="272.5,205.6953,282.5,209.6953,272.5,213.6953,276.5,209.6953" style="stroke: #0000FF; stroke-width: 1.0;"/><line style="stroke: #0000FF; stroke-width: 1.0; stroke-dasharray: 2.0,2.0;" x1="137.5" x2="278.5" y1="209.6953" y2="209.6953"/><text fill="#0000FF" font-family="sans-serif" font-size="13" lengthAdjust="spacingAndGlyphs" textLength="23" x="144.5" y="204.7622">TLS</text><text fill="#0000FF" font-family="monospace" font-size="13" lengthAdjust="spacingAndGlyphs" textLength="96" x="171.5" y="204.7622">Client HELLO</text><polygon fill="#FBFB77" filter="url(#fuuyqssww0eli)" points="289,188.6953,289,213.6953,489,213.6953,489,198.6953,479,188.6953,289,188.6953" style="stroke: #A80036; stroke-width: 1.0;"/><line style="stroke: #A80036; stroke-width: 1.0;" x1="479" x2="479" y1="188.6953" y2="198.6953"/><line style="stroke: #A80036; stroke-width: 1.0;" x1="489" x2="479" y1="198.6953" y2="198.6953"/><text fill="#000000" font-family="sans-serif" font-size="13" lengthAdjust="spacingAndGlyphs" textLength="79" x="295" y="205.7622">Duplicate of</text><text fill="#0000FF" font-family="monospace" font-size="13" lengthAdjust="spacingAndGlyphs" textLength="96" x="378" y="205.7622">Client HELLO</text><polygon fill="#0000FF" points="272.5,239.8281,282.5,243.8281,272.5,247.8281,276.5,243.8281" style="stroke: #0000FF; stroke-width: 1.0;"/><line style="stroke: #0000FF; stroke-width: 1.0; stroke-dasharray: 2.0,2.0;" x1="31.5" x2="278.5" y1="243.8281" y2="243.8281"/><text fill="#0000FF" font-family="sans-serif" font-size="13" font-style="italic" lengthAdjust="spacingAndGlyphs" textLength="80" x="38.5" y="238.895">TLS Connect</text><!--
@startuml
actor Client
participant Proxy
participant Service

Client -[#green]> Proxy : <font color="green">//TCP Connect//</font>
Client -[#blue]-> Service : <font color="blue">TLS ""Client HELLO""</font>
Proxy -[#green]> Service : <font color="green">//TCP Connect//</font>
Proxy -[#blue]-> Service : <font color="blue">TLS ""Client HELLO""</font>
note right : Duplicate of <font color="blue">""Client HELLO""</font>
Client -[#blue]-> Service : <font color="blue">//TLS Connect//</font>

@enduml

PlantUML version 1.2017.18(Fri Oct 06 11:56:32 CDT 2017)
(GPL source distribution)
Java Runtime: OpenJDK Runtime Environment
JVM: OpenJDK 64-Bit Server VM
Java Version: 1.8.0_171-b10
Operating System: Linux
OS Version: 4.15.17-300.fc27.x86_64
Default Encoding: UTF-8
Language: en
Country: US
--></g></svg>