<?xml version="1.0" encoding="UTF-8" standalone="no"?><svg xmlns="http://www.w3.org/2000/svg" xmlns:xlink="http://www.w3.org/1999/xlink" contentScriptType="application/ecmascript" contentStyleType="text/css" height="450px" preserveAspectRatio="none" style="width:223px;height:450px;" version="1.1" viewBox="0 0 223 450" width="223px" zoomAndPan="magnify"><defs><filter height="300%" id="f1wahcf2n0w0zs" width="300%" x="-1" y="-1"><feGaussianBlur result="blurOut" stdDeviation="2.0"/><feColorMatrix in="blurOut" result="blurOut2" type="matrix" values="0 0 0 0 0 0 0 0 0 0 0 0 0 0 0 0 0 0 .4 0"/><feOffset dx="4.0" dy="4.0" in="blurOut2" result="blurOut3"/><feBlend in="SourceGraphic" in2="blurOut3" mode="normal"/></filter></defs><g><ellipse cx="16" cy="33" fill="#000000" filter="url(#f1wahcf2n0w0zs)" rx="10" ry="10" style="stroke: none; stroke-width: 1.0;"/><rect fill="#FEFECE" filter="url(#f1wahcf2n0w0zs)" height="50" rx="12.5" ry="12.5" style="stroke: #A80036; stroke-width: 1.5;" width="73" x="61.5" y="8"/><line style="stroke: #A80036; stroke-width: 1.5;" x1="61.5" x2="134.5" y1="34.2969" y2="34.2969"/><text fill="#000000" font-family="sans-serif" font-size="14" lengthAdjust="spacingAndGlyphs" textLength="53" x="71.5" y="25.9951">State_0</text><rect fill="#FEFECE" filter="url(#f1wahcf2n0w0zs)" height="50" rx="12.5" ry="12.5" style="stroke: #A80036; stroke-width: 1.5;" width="73" x="47.5" y="135"/><line style="stroke: #A80036; stroke-width: 1.5;" x1="47.5" x2="120.5" y1="161.2969" y2="161.2969"/><text fill="#000000" font-family="sans-serif" font-size="14" lengthAdjust="spacingAndGlyphs" textLength="53" x="57.5" y="152.9951">State_1</text><rect fill="#FEFECE" filter="url(#f1wahcf2n0w0zs)" height="50" rx="12.5" ry="12.5" style="stroke: #A80036; stroke-width: 1.5;" width="73" x="138.5" y="262"/><line style="stroke: #A80036; stroke-width: 1.5;" x1="138.5" x2="211.5" y1="288.2969" y2="288.2969"/><text fill="#000000" font-family="sans-serif" font-size="14" lengthAdjust="spacingAndGlyphs" textLength="53" x="148.5" y="279.9951">State_2</text><rect fill="#FEFECE" filter="url(#f1wahcf2n0w0zs)" height="50" rx="12.5" ry="12.5" style="stroke: #A80036; stroke-width: 1.5;" width="73" x="46.5" y="389"/><line style="stroke: #A80036; stroke-width: 1.5;" x1="46.5" x2="119.5" y1="415.2969" y2="415.2969"/><text fill="#000000" font-family="sans-serif" font-size="14" lengthAdjust="spacingAndGlyphs" textLength="53" x="56.5" y="406.9951">State_3</text><ellipse cx="180" cy="414" fill="none" filter="url(#f1wahcf2n0w0zs)" rx="10" ry="10" style="stroke: #000000; stroke-width: 1.0;"/><ellipse cx="180.5" cy="414.5" fill="#000000" rx="6" ry="6" style="stroke: none; stroke-width: 1.0;"/><!--link *start to State_0--><path d="M26.25,33 C36.1946,33 46.1392,33 56.0838,33 " fill="none" id="*start-State_0" style="stroke: #A80036; stroke-width: 1.0;"/><polygon fill="#A80036" points="61.2842,33,52.2842,29,56.2842,33,52.2842,37,61.2842,33" style="stroke: #A80036; stroke-width: 1.0;"/><!--link State_0 to State_1--><path d="M78.9598,58.2483 C73.3194,67.1731 67.8833,77.5905 65,88 C61.1582,101.8702 64.251,117.2931 68.9736,130.2953 " fill="none" id="State_0-State_1" style="stroke: #A80036; stroke-width: 1.0;"/><polygon fill="#A80036" points="70.7774,134.9687,71.2684,125.1321,68.977,130.3041,63.805,128.0127,70.7774,134.9687" style="stroke: #A80036; stroke-width: 1.0;"/><text fill="#000000" font-family="sans-serif" font-size="13" lengthAdjust="spacingAndGlyphs" textLength="18" x="66" y="101.0669">CR</text><!--link State_1 to State_0--><path d="M86.7602,134.961 C89.0308,114.3632 92.2563,85.1031 94.6701,63.207 " fill="none" id="State_1-State_0" style="stroke: #A80036; stroke-width: 1.0;"/><polygon fill="#A80036" points="95.2341,58.0911,90.2718,66.5985,94.6861,63.061,98.2236,67.4753,95.2341,58.0911" style="stroke: #A80036; stroke-width: 1.0;"/><text fill="#000000" font-family="sans-serif" font-size="13" lengthAdjust="spacingAndGlyphs" textLength="7" x="93" y="101.0669">*</text><!--link State_1 to State_1--><path d="M120.7882,148.7184 C139.1349,147.1574 155.5,150.918 155.5,160 C155.5,168.2306 142.0596,172.0907 125.8841,171.5803 " fill="none" id="State_1-State_1" style="stroke: #A80036; stroke-width: 1.0;"/><polygon fill="#A80036" points="120.7882,171.2816,129.5386,175.8016,125.7796,171.5743,130.0069,167.8153,120.7882,171.2816" style="stroke: #A80036; stroke-width: 1.0;"/><text fill="#000000" font-family="sans-serif" font-size="13" lengthAdjust="spacingAndGlyphs" textLength="18" x="161.5" y="164.5669">CR</text><!--link State_1 to State_2--><path d="M101.9787,185.0911 C116.9351,205.9644 138.2466,235.7069 153.9882,257.6758 " fill="none" id="State_1-State_2" style="stroke: #A80036; stroke-width: 1.0;"/><polygon fill="#A80036" points="157.0587,261.961,155.068,252.3154,154.1464,257.8967,148.5651,256.9751,157.0587,261.961" style="stroke: #A80036; stroke-width: 1.0;"/><text fill="#000000" font-family="sans-serif" font-size="13" lengthAdjust="spacingAndGlyphs" textLength="14" x="136" y="228.0669">LF</text><!--link State_2 to State_3--><path d="M156.8238,312.0911 C141.703,332.9644 120.1572,362.7069 104.2427,384.6758 " fill="none" id="State_2-State_3" style="stroke: #A80036; stroke-width: 1.0;"/><polygon fill="#A80036" points="101.1385,388.961,109.6579,384.0193,104.0719,384.9119,103.1793,379.3259,101.1385,388.961" style="stroke: #A80036; stroke-width: 1.0;"/><text fill="#000000" font-family="sans-serif" font-size="13" lengthAdjust="spacingAndGlyphs" textLength="18" x="136" y="355.0669">CR</text><!--link State_2 to State_0--><path d="M183.0469,261.8818 C191.5611,230.9809 201.7652,177.4074 186,135 C175.38,106.4328 152.7697,80.5192 133.1279,61.9598 " fill="none" id="State_2-State_0" style="stroke: #A80036; stroke-width: 1.0;"/><polygon fill="#A80036" points="129.2436,58.3474,133.1102,67.4055,132.905,61.7524,138.5582,61.5473,129.2436,58.3474" style="stroke: #A80036; stroke-width: 1.0;"/><text fill="#000000" font-family="sans-serif" font-size="13" lengthAdjust="spacingAndGlyphs" textLength="7" x="195" y="164.5669">*</text><!--link State_3 to *end--><path d="M119.6715,414 C135.3038,414 152.6819,414 164.7561,414 " fill="none" id="State_3-*end" style="stroke: #A80036; stroke-width: 1.0;"/><polygon fill="#A80036" points="169.9052,414,160.9052,410,164.9052,414,160.9052,418,169.9052,414" style="stroke: #A80036; stroke-width: 1.0;"/><text fill="#000000" font-family="sans-serif" font-size="13" lengthAdjust="spacingAndGlyphs" textLength="14" x="137.75" y="407.0669">LF</text><!--link State_3 to State_1--><path d="M83.0991,388.8192 C83.2841,341.8271 83.6813,240.9614 83.8806,190.3189 " fill="none" id="State_3-State_1" style="stroke: #A80036; stroke-width: 1.0;"/><polygon fill="#A80036" points="83.9005,185.2831,79.8648,194.2671,83.8806,190.2831,87.8647,194.2989,83.9005,185.2831" style="stroke: #A80036; stroke-width: 1.0;"/><text fill="#000000" font-family="sans-serif" font-size="13" lengthAdjust="spacingAndGlyphs" textLength="18" x="85" y="291.5669">CR</text><!--link State_3 to State_0--><path d="M70.8011,388.7487 C48.6359,339.5038 6.1526,227.3741 30,135 C37.0232,107.7954 54.8862,81.5238 70.5415,62.4575 " fill="none" id="State_3-State_0" style="stroke: #A80036; stroke-width: 1.0;"/><polygon fill="#A80036" points="74.05,58.2578,65.21,62.6001,70.8443,62.0949,71.3494,67.7292,74.05,58.2578" style="stroke: #A80036; stroke-width: 1.0;"/><text fill="#000000" font-family="sans-serif" font-size="13" lengthAdjust="spacingAndGlyphs" textLength="7" x="27" y="228.0669">*</text><!--
@startuml
[*] -r> State_0
State_0 - -> State_1 : CR
State_1 - -> State_0 : *
State_1 - -> State_1 : CR
State_1 - -> State_2 : LF
State_2 - -> State_3 : CR
State_2 - -> State_0 : *
State_3 -r> [*] : LF
State_3 - -> State_1 : CR
State_3 - -> State_0 : *
@enduml

PlantUML version 1.2017.18(Fri Oct 06 11:56:32 CDT 2017)
(GPL source distribution)
Java Runtime: OpenJDK Runtime Environment
JVM: OpenJDK 64-Bit Server VM
Java Version: 1.8.0_151-b12
Operating System: Linux
OS Version: 4.13.13-200.fc26.x86_64
Default Encoding: UTF-8
Language: en
Country: US
--></g></svg>