<?xml version="1.0" encoding="UTF-8" standalone="no"?><svg xmlns="http://www.w3.org/2000/svg" xmlns:xlink="http://www.w3.org/1999/xlink" contentScriptType="application/ecmascript" contentStyleType="text/css" height="101px" preserveAspectRatio="none" style="width:262px;height:101px;" version="1.1" viewBox="0 0 262 101" width="262px" zoomAndPan="magnify"><defs><filter height="300%" id="f121jiqqgypklj" width="300%" x="-1" y="-1"><feGaussianBlur result="blurOut" stdDeviation="2.0"/><feColorMatrix in="blurOut" result="blurOut2" type="matrix" values="0 0 0 0 0 0 0 0 0 0 0 0 0 0 0 0 0 0 .4 0"/><feOffset dx="4.0" dy="4.0" in="blurOut2" result="blurOut3"/><feBlend in="SourceGraphic" in2="blurOut3" mode="normal"/></filter></defs><g><!--entity Cloud--><path d="M85,38.5 C85,35.5 87,33.5 90,33.5 C93,33.5 95,35.5 95,38.5 C95,35.5 97,33.5 100,33.5 C103,33.5 105,35.5 105,38.5 C105,35.5 107,33.5 110,33.5 C113,33.5 115,35.5 115,38.5 C115,35.5 117,33.5 120,33.5 C123,33.5 125,35.5 125,38.5 C125,35.5 127,33.5 130,33.5 C133,33.5 135,35.5 135,38.5 C135,35.5 137,33.5 140,33.5 C143,33.5 145,35.5 145,38.5 C148,38.5 150,40.5 150,43.5 C150,46.5 148,48.5 145,48.5 C148,48.5 150,50.5 150,53.5 C150,56.5 148,58.5 145,58.5 C145,61.5 142,63.5 140,63.5 C137,63.5 135,61.5 135,58.5 C135,61.5 132,63.5 130,63.5 C127,63.5 125,61.5 125,58.5 C125,61.5 122,63.5 120,63.5 C117,63.5 115,61.5 115,58.5 C115,61.5 112,63.5 110,63.5 C107,63.5 105,61.5 105,58.5 C105,61.5 102,63.5 100,63.5 C97,63.5 95,61.5 95,58.5 C95,61.5 92,63.5 90,63.5 C87,63.5 85,61.5 85,58.5 C82,58.5 80,56.5 80,53.5 C80,50.5 82,48.5 85,48.5 C82,48.5 80,46.5 80,43.5 C80,40.5 82,38.5 85,38.5 " fill="#FEFECE" filter="url(#f121jiqqgypklj)" style="stroke: #000000; stroke-width: 1.5;"/><text fill="#000000" font-family="sans-serif" font-size="14" lengthAdjust="spacingAndGlyphs" textLength="41" x="92" y="54.4951">Cloud</text><!--entity Client--><ellipse cx="26.5" cy="18" fill="#FEFECE" filter="url(#f121jiqqgypklj)" rx="8" ry="8" style="stroke: #A80036; stroke-width: 2.0;"/><path d="M26.5,26 L26.5,53 M13.5,34 L39.5,34 M26.5,53 L13.5,68 M26.5,53 L39.5,68 " fill="#FEFECE" filter="url(#f121jiqqgypklj)" style="stroke: #A80036; stroke-width: 2.0;"/><text fill="#000000" font-family="sans-serif" font-size="14" lengthAdjust="spacingAndGlyphs" textLength="41" x="6" y="87.9951">Client</text><!--entity Service--><rect fill="#FEFECE" filter="url(#f121jiqqgypklj)" height="36.2969" style="stroke: #A80036; stroke-width: 1.5;" width="73" x="178" y="31.5"/><rect fill="#FEFECE" height="5" style="stroke: #A80036; stroke-width: 1.5;" width="10" x="173" y="36.5"/><rect fill="#FEFECE" height="5" style="stroke: #A80036; stroke-width: 1.5;" width="10" x="173" y="57.7969"/><text fill="#000000" font-family="sans-serif" font-size="14" lengthAdjust="spacingAndGlyphs" textLength="53" x="188" y="54.4951">Service</text><!--link Client to Cloud--><path d="M47.3281,49.5 C57.1559,49.5 66.9836,49.5 76.8114,49.5 " fill="none" id="Client-Cloud" style="stroke: #A80036; stroke-width: 1.0;"/><polygon fill="#A80036" points="81.9507,49.5,72.9507,45.5,76.9507,49.5,72.9507,53.5,81.9507,49.5" style="stroke: #A80036; stroke-width: 1.0;"/><!--link Cloud to Service--><path d="M143.1797,49.5 C152.9857,49.5 162.7916,49.5 172.5976,49.5 " fill="none" id="Cloud-Service" style="stroke: #A80036; stroke-width: 1.0;"/><polygon fill="#A80036" points="177.7255,49.5,168.7255,45.5,172.7255,49.5,168.7255,53.5,177.7255,49.5" style="stroke: #A80036; stroke-width: 1.0;"/><!--
@startuml
hide empty members
cloud Cloud
actor Client

[Client] -> [Cloud]
[Cloud] -> [Service]

@enduml

PlantUML version 1.2017.18(Fri Oct 06 11:56:32 CDT 2017)
(GPL source distribution)
Java Runtime: OpenJDK Runtime Environment
JVM: OpenJDK 64-Bit Server VM
Java Version: 1.8.0_171-b10
Operating System: Linux
OS Version: 4.16.5-200.fc27.x86_64
Default Encoding: UTF-8
Language: en
Country: US
--></g></svg>