<?xml version="1.0" encoding="UTF-8" standalone="no"?><svg xmlns="http://www.w3.org/2000/svg" xmlns:xlink="http://www.w3.org/1999/xlink" contentScriptType="application/ecmascript" contentStyleType="text/css" height="455px" preserveAspectRatio="none" style="width:465px;height:455px;" version="1.1" viewBox="0 0 465 455" width="465px" zoomAndPan="magnify"><defs><filter height="300%" id="f1sf5jmobvt02y" width="300%" x="-1" y="-1"><feGaussianBlur result="blurOut" stdDeviation="2.0"/><feColorMatrix in="blurOut" result="blurOut2" type="matrix" values="0 0 0 0 0 0 0 0 0 0 0 0 0 0 0 0 0 0 .4 0"/><feOffset dx="4.0" dy="4.0" in="blurOut2" result="blurOut3"/><feBlend in="SourceGraphic" in2="blurOut3" mode="normal"/></filter></defs><g><rect fill="#FFFFFF" filter="url(#f1sf5jmobvt02y)" height="288.1953" style="stroke: #A80036; stroke-width: 1.0;" width="10" x="119" y="146.4297"/><line style="stroke: #A80036; stroke-width: 1.0; stroke-dasharray: 5.0,5.0;" x1="40" x2="40" y1="86.2969" y2="443.625"/><line style="stroke: #A80036; stroke-width: 1.0; stroke-dasharray: 5.0,5.0;" x1="124" x2="124" y1="86.2969" y2="443.625"/><line style="stroke: #A80036; stroke-width: 1.0; stroke-dasharray: 5.0,5.0;" x1="259.5" x2="259.5" y1="86.2969" y2="443.625"/><line style="stroke: #A80036; stroke-width: 1.0; stroke-dasharray: 5.0,5.0;" x1="414.5" x2="414.5" y1="86.2969" y2="443.625"/><text fill="#000000" font-family="sans-serif" font-size="14" lengthAdjust="spacingAndGlyphs" textLength="58" x="8" y="82.9951">L7Policy</text><ellipse cx="40" cy="54" fill="#FEFECE" filter="url(#f1sf5jmobvt02y)" rx="12" ry="12" style="stroke: #A80036; stroke-width: 2.0;"/><line style="stroke: #A80036; stroke-width: 2.0;" x1="28" x2="52" y1="68" y2="68"/><text fill="#000000" font-family="sans-serif" font-size="14" lengthAdjust="spacingAndGlyphs" textLength="78" x="82" y="82.9951">Strategizer</text><ellipse cx="124" cy="13" fill="#FEFECE" filter="url(#f1sf5jmobvt02y)" rx="8" ry="8" style="stroke: #A80036; stroke-width: 2.0;"/><path d="M124,21 L124,48 M111,29 L137,29 M124,48 L111,63 M124,48 L137,63 " fill="none" filter="url(#f1sf5jmobvt02y)" style="stroke: #A80036; stroke-width: 2.0;"/><text fill="#000000" font-family="sans-serif" font-size="14" lengthAdjust="spacingAndGlyphs" textLength="51" x="231.5" y="82.9951">HttpSM</text><ellipse cx="260" cy="13" fill="#FEFECE" filter="url(#f1sf5jmobvt02y)" rx="8" ry="8" style="stroke: #A80036; stroke-width: 2.0;"/><path d="M260,21 L260,48 M247,29 L273,29 M260,48 L247,63 M260,48 L273,63 " fill="none" filter="url(#f1sf5jmobvt02y)" style="stroke: #A80036; stroke-width: 2.0;"/><rect fill="#FEFECE" filter="url(#f1sf5jmobvt02y)" height="30.2969" style="stroke: #A80036; stroke-width: 1.5;" width="83" x="371.5" y="51"/><text fill="#000000" font-family="sans-serif" font-size="14" lengthAdjust="spacingAndGlyphs" textLength="69" x="378.5" y="70.9951">Upstream</text><rect fill="#FFFFFF" filter="url(#f1sf5jmobvt02y)" height="288.1953" style="stroke: #A80036; stroke-width: 1.0;" width="10" x="119" y="146.4297"/><polygon fill="#A80036" points="51,113.2969,41,117.2969,51,117.2969" style="stroke: #A80036; stroke-width: 1.0;"/><line style="stroke: #A80036; stroke-width: 1.0;" x1="40" x2="259" y1="117.2969" y2="117.2969"/><text fill="#000000" font-family="sans-serif" font-size="13" lengthAdjust="spacingAndGlyphs" textLength="78" x="57" y="112.3638">create "tag"</text><polygon fill="#A80036" points="248,147.4297,258,147.4297,248,151.4297" style="stroke: #A80036; stroke-width: 1.0;"/><line style="stroke: #A80036; stroke-width: 1.0;" x1="40" x2="259" y1="146.4297" y2="146.4297"/><text fill="#000000" font-family="sans-serif" font-size="13" lengthAdjust="spacingAndGlyphs" textLength="118" x="47" y="141.4966">return: Strategizer</text><polygon fill="#A80036" points="248,176.5625,258,180.5625,248,184.5625,252,180.5625" style="stroke: #A80036; stroke-width: 1.0;"/><line style="stroke: #A80036; stroke-width: 1.0;" x1="129" x2="254" y1="180.5625" y2="180.5625"/><text fill="#000000" font-family="sans-serif" font-size="13" lengthAdjust="spacingAndGlyphs" textLength="107" x="136" y="175.6294">SESSION_READY</text><path d="M265,159.5625 L265,184.5625 L396,184.5625 L396,169.5625 L386,159.5625 L265,159.5625 " fill="#FBFB77" filter="url(#f1sf5jmobvt02y)" style="stroke: #A80036; stroke-width: 1.0;"/><path d="M386,159.5625 L386,169.5625 L396,169.5625 L386,159.5625 " fill="#FBFB77" style="stroke: #A80036; stroke-width: 1.0;"/><text fill="#000000" font-family="sans-serif" font-size="13" lengthAdjust="spacingAndGlyphs" textLength="110" x="271" y="176.6294">Contains session</text><polygon fill="#A80036" points="403,210.6953,413,214.6953,403,218.6953,407,214.6953" style="stroke: #A80036; stroke-width: 1.0;"/><line style="stroke: #A80036; stroke-width: 1.0;" x1="260" x2="409" y1="214.6953" y2="214.6953"/><text fill="#000000" font-family="sans-serif" font-size="13" lengthAdjust="spacingAndGlyphs" textLength="91" x="267" y="209.7622">HTTP Request</text><polygon fill="#A80036" points="271,239.8281,261,243.8281,271,247.8281,267,243.8281" style="stroke: #A80036; stroke-width: 1.0;"/><line style="stroke: #A80036; stroke-width: 1.0;" x1="265" x2="414" y1="243.8281" y2="243.8281"/><text fill="#000000" font-family="sans-serif" font-size="13" lengthAdjust="spacingAndGlyphs" textLength="131" x="277" y="238.895">Upstream Response</text><line style="stroke: #A80036; stroke-width: 1.0;" x1="260" x2="302" y1="273.0938" y2="273.0938"/><line style="stroke: #A80036; stroke-width: 1.0;" x1="302" x2="302" y1="273.0938" y2="286.0938"/><line style="stroke: #A80036; stroke-width: 1.0;" x1="261" x2="302" y1="286.0938" y2="286.0938"/><polygon fill="#A80036" points="271,282.0938,261,286.0938,271,290.0938,267,286.0938" style="stroke: #A80036; stroke-width: 1.0;"/><text fill="#000000" font-family="sans-serif" font-size="13" lengthAdjust="spacingAndGlyphs" textLength="100" x="267" y="268.0278">Read response.</text><polygon fill="#A80036" points="140,316.0938,130,320.0938,140,320.0938" style="stroke: #A80036; stroke-width: 1.0;"/><line style="stroke: #A80036; stroke-width: 1.0;" x1="129" x2="259" y1="320.0938" y2="320.0938"/><text fill="#000000" font-family="sans-serif" font-size="13" lengthAdjust="spacingAndGlyphs" textLength="37" x="146" y="315.1606">result</text><path d="M265,299.0938 L265,324.0938 L406,324.0938 L406,309.0938 L396,299.0938 L265,299.0938 " fill="#FBFB77" filter="url(#f1sf5jmobvt02y)" style="stroke: #A80036; stroke-width: 1.0;"/><path d="M396,299.0938 L396,309.0938 L406,309.0938 L396,299.0938 " fill="#FBFB77" style="stroke: #A80036; stroke-width: 1.0;"/><text fill="#000000" font-family="sans-serif" font-size="13" lengthAdjust="spacingAndGlyphs" textLength="120" x="271" y="316.1606">Contains response</text><polygon fill="#A80036" points="248,355.2266,258,355.2266,248,359.2266" style="stroke: #A80036; stroke-width: 1.0;"/><line style="stroke: #A80036; stroke-width: 1.0;" x1="129" x2="259" y1="354.2266" y2="354.2266"/><text fill="#000000" font-family="sans-serif" font-size="13" lengthAdjust="spacingAndGlyphs" textLength="97" x="136" y="349.2935">return: ACTION</text><line style="stroke: #A80036; stroke-width: 1.0;" x1="260" x2="302" y1="383.4922" y2="383.4922"/><line style="stroke: #A80036; stroke-width: 1.0;" x1="302" x2="302" y1="383.4922" y2="396.4922"/><line style="stroke: #A80036; stroke-width: 1.0;" x1="261" x2="302" y1="396.4922" y2="396.4922"/><polygon fill="#A80036" points="271,392.4922,261,396.4922,271,400.4922,267,396.4922" style="stroke: #A80036; stroke-width: 1.0;"/><text fill="#000000" font-family="sans-serif" font-size="13" lengthAdjust="spacingAndGlyphs" textLength="113" x="267" y="378.4263">process response</text><polygon fill="#A80036" points="140,421.4922,130,425.4922,140,429.4922,136,425.4922" style="stroke: #A80036; stroke-width: 1.0;"/><line style="stroke: #A80036; stroke-width: 1.0;" x1="134" x2="259" y1="425.4922" y2="425.4922"/><text fill="#000000" font-family="sans-serif" font-size="13" lengthAdjust="spacingAndGlyphs" textLength="36" x="146" y="420.5591">finish</text><!--
@startuml
entity L7Policy
actor Strategizer
actor HttpSM
participant Upstream

hide footbox

HttpSM -\ L7Policy : create "tag"
L7Policy -/ HttpSM : return: Strategizer
activate Strategizer
Strategizer -> HttpSM : SESSION_READY
note right : Contains session
HttpSM -> Upstream : HTTP Request
Upstream -> HttpSM : Upstream Response
HttpSM -> HttpSM : Read response.
HttpSM -\ Strategizer : result
note right : Contains response
Strategizer -/ HttpSM : return: ACTION
HttpSM -> HttpSM : process response
HttpSM -> Strategizer : finish

@enduml

PlantUML version 1.2018.01(Sun Jan 28 12:08:22 CST 2018)
(APACHE source distribution)
Java Runtime: OpenJDK Runtime Environment
JVM: OpenJDK 64-Bit Server VM
Java Version: 1.8.0_181-b15
Operating System: Linux
OS Version: 4.18.12-200.fc28.x86_64
Default Encoding: UTF-8
Language: en
Country: US
--></g></svg>