<?xml version="1.0" encoding="UTF-8" standalone="no"?><svg xmlns="http://www.w3.org/2000/svg" xmlns:xlink="http://www.w3.org/1999/xlink" contentScriptType="application/ecmascript" contentStyleType="text/css" height="372px" preserveAspectRatio="none" style="width:315px;height:372px;" version="1.1" viewBox="0 0 315 372" width="315px" zoomAndPan="magnify"><defs><filter height="300%" id="f1bftuayiilikc" width="300%" x="-1" y="-1"><feGaussianBlur result="blurOut" stdDeviation="2.0"/><feColorMatrix in="blurOut" result="blurOut2" type="matrix" values="0 0 0 0 0 0 0 0 0 0 0 0 0 0 0 0 0 0 .4 0"/><feOffset dx="4.0" dy="4.0" in="blurOut2" result="blurOut3"/><feBlend in="SourceGraphic" in2="blurOut3" mode="normal"/></filter></defs><g><rect fill="#FFFFFF" filter="url(#f1bftuayiilikc)" height="46.2656" style="stroke: #000000; stroke-width: 2.0;" width="176" x="13" y="132.4297"/><rect fill="#FFFFFF" filter="url(#f1bftuayiilikc)" height="46.2656" style="stroke: #000000; stroke-width: 2.0;" width="190" x="114" y="221.8281"/><line style="stroke: #A80036; stroke-width: 1.0; stroke-dasharray: 5.0,5.0;" x1="45" x2="45" y1="86.2969" y2="285.0938"/><line style="stroke: #A80036; stroke-width: 1.0; stroke-dasharray: 5.0,5.0;" x1="151" x2="151" y1="86.2969" y2="285.0938"/><line style="stroke: #A80036; stroke-width: 1.0; stroke-dasharray: 5.0,5.0;" x1="257" x2="257" y1="86.2969" y2="285.0938"/><text fill="#000000" font-family="sans-serif" font-size="14" lengthAdjust="spacingAndGlyphs" textLength="39" x="23" y="82.9951">Client</text><ellipse cx="45.5" cy="13" fill="#FEFECE" filter="url(#f1bftuayiilikc)" rx="8" ry="8" style="stroke: #A80036; stroke-width: 2.0;"/><path d="M45.5,21 L45.5,48 M32.5,29 L58.5,29 M45.5,48 L32.5,63 M45.5,48 L58.5,63 " fill="#FEFECE" filter="url(#f1bftuayiilikc)" style="stroke: #A80036; stroke-width: 2.0;"/><text fill="#000000" font-family="sans-serif" font-size="14" lengthAdjust="spacingAndGlyphs" textLength="39" x="23" y="297.0889">Client</text><ellipse cx="45.5" cy="310.3906" fill="#FEFECE" filter="url(#f1bftuayiilikc)" rx="8" ry="8" style="stroke: #A80036; stroke-width: 2.0;"/><path d="M45.5,318.3906 L45.5,345.3906 M32.5,326.3906 L58.5,326.3906 M45.5,345.3906 L32.5,360.3906 M45.5,345.3906 L58.5,360.3906 " fill="#FEFECE" filter="url(#f1bftuayiilikc)" style="stroke: #A80036; stroke-width: 2.0;"/><rect fill="#FEFECE" filter="url(#f1bftuayiilikc)" height="30.2969" style="stroke: #A80036; stroke-width: 1.5;" width="51" x="124" y="51"/><text fill="#000000" font-family="sans-serif" font-size="14" lengthAdjust="spacingAndGlyphs" textLength="37" x="131" y="70.9951">Proxy</text><rect fill="#FEFECE" filter="url(#f1bftuayiilikc)" height="30.2969" style="stroke: #A80036; stroke-width: 1.5;" width="51" x="124" y="284.0938"/><text fill="#000000" font-family="sans-serif" font-size="14" lengthAdjust="spacingAndGlyphs" textLength="37" x="131" y="304.0889">Proxy</text><text fill="#000000" font-family="sans-serif" font-size="14" lengthAdjust="spacingAndGlyphs" textLength="67" x="221" y="82.9951">Upstream</text><ellipse cx="257.5" cy="54" fill="#FEFECE" filter="url(#f1bftuayiilikc)" rx="12" ry="12" style="stroke: #A80036; stroke-width: 2.0;"/><line style="stroke: #A80036; stroke-width: 2.0;" x1="245.5" x2="269.5" y1="68" y2="68"/><text fill="#000000" font-family="sans-serif" font-size="14" lengthAdjust="spacingAndGlyphs" textLength="67" x="221" y="297.0889">Upstream</text><ellipse cx="257.5" cy="316.3906" fill="#FEFECE" filter="url(#f1bftuayiilikc)" rx="12" ry="12" style="stroke: #A80036; stroke-width: 2.0;"/><line style="stroke: #A80036; stroke-width: 2.0;" x1="245.5" x2="269.5" y1="330.3906" y2="330.3906"/><polygon fill="#008000" points="139.5,113.2969,149.5,117.2969,139.5,121.2969,143.5,117.2969" style="stroke: #008000; stroke-width: 1.0;"/><line style="stroke: #008000; stroke-width: 1.0;" x1="45.5" x2="145.5" y1="117.2969" y2="117.2969"/><text fill="#008000" font-family="sans-serif" font-size="13" font-style="italic" lengthAdjust="spacingAndGlyphs" textLength="82" x="52.5" y="112.3638">TCP Connect</text><rect fill="none" height="46.2656" style="stroke: #000000; stroke-width: 2.0;" width="176" x="13" y="132.4297"/><polygon fill="#EEEEEE" points="13,132.4297,120,132.4297,120,139.4297,110,149.4297,13,149.4297,13,132.4297" style="stroke: #000000; stroke-width: 2.0;"/><text fill="#000000" font-family="sans-serif" font-size="13" font-weight="bold" lengthAdjust="spacingAndGlyphs" textLength="62" x="28" y="145.4966">Optional</text><polygon fill="#0000FF" points="139.5,166.5625,149.5,170.5625,139.5,174.5625,143.5,170.5625" style="stroke: #0000FF; stroke-width: 1.0;"/><line style="stroke: #0000FF; stroke-width: 1.0;" x1="45.5" x2="145.5" y1="170.5625" y2="170.5625"/><text fill="#0000FF" font-family="sans-serif" font-size="13" font-style="italic" lengthAdjust="spacingAndGlyphs" textLength="80" x="52.5" y="165.6294">TLS Connect</text><polygon fill="#008000" points="245.5,202.6953,255.5,206.6953,245.5,210.6953,249.5,206.6953" style="stroke: #008000; stroke-width: 1.0;"/><line style="stroke: #008000; stroke-width: 1.0;" x1="151.5" x2="251.5" y1="206.6953" y2="206.6953"/><text fill="#008000" font-family="sans-serif" font-size="13" font-style="italic" lengthAdjust="spacingAndGlyphs" textLength="82" x="158.5" y="201.7622">TCP Connect</text><rect fill="none" height="46.2656" style="stroke: #000000; stroke-width: 2.0;" width="190" x="114" y="221.8281"/><polygon fill="#EEEEEE" points="114,221.8281,221,221.8281,221,228.8281,211,238.8281,114,238.8281,114,221.8281" style="stroke: #000000; stroke-width: 2.0;"/><text fill="#000000" font-family="sans-serif" font-size="13" font-weight="bold" lengthAdjust="spacingAndGlyphs" textLength="62" x="129" y="234.895">Optional</text><polygon fill="#0000FF" points="245.5,255.9609,255.5,259.9609,245.5,263.9609,249.5,259.9609" style="stroke: #0000FF; stroke-width: 1.0;"/><line style="stroke: #0000FF; stroke-width: 1.0;" x1="151.5" x2="251.5" y1="259.9609" y2="259.9609"/><text fill="#0000FF" font-family="sans-serif" font-size="13" font-style="italic" lengthAdjust="spacingAndGlyphs" textLength="80" x="158.5" y="255.0278">TLS Connect</text><!--
@startuml
actor Client
participant Proxy
entity Upstream

Client -[#green]> Proxy : <font color="green">//TCP Connect//</font>
group Optional
   Client -[#blue]> Proxy : <font color="blue">//TLS Connect//</font>
end
Proxy -[#green]> Upstream : <font color="green">//TCP Connect//</font>
group Optional
   Proxy -[#blue]> Upstream : <font color="blue">//TLS Connect//</font>
end

@enduml

PlantUML version 1.2017.18(Fri Oct 06 11:56:32 CDT 2017)
(GPL source distribution)
Java Runtime: OpenJDK Runtime Environment
JVM: OpenJDK 64-Bit Server VM
Java Version: 1.8.0_242-b08
Operating System: Linux
OS Version: 5.5.8-100.fc30.x86_64
Default Encoding: UTF-8
Language: en
Country: US
--></g></svg>