<?xml version="1.0" encoding="UTF-8" standalone="no"?><svg xmlns="http://www.w3.org/2000/svg" xmlns:xlink="http://www.w3.org/1999/xlink" contentScriptType="application/ecmascript" contentStyleType="text/css" height="455px" preserveAspectRatio="none" style="width:459px;height:455px;" version="1.1" viewBox="0 0 459 455" width="459px" zoomAndPan="magnify"><defs><filter height="300%" id="f1sf5jmobvt02y" width="300%" x="-1" y="-1"><feGaussianBlur result="blurOut" stdDeviation="2.0"/><feColorMatrix in="blurOut" result="blurOut2" type="matrix" values="0 0 0 0 0 0 0 0 0 0 0 0 0 0 0 0 0 0 .4 0"/><feOffset dx="4.0" dy="4.0" in="blurOut2" result="blurOut3"/><feBlend in="SourceGraphic" in2="blurOut3" mode="normal"/></filter></defs><g><rect fill="#FFFFFF" filter="url(#f1sf5jmobvt02y)" height="288.1953" style="stroke: #A80036; stroke-width: 1.0;" width="10" x="114.5" y="146.4297"/><line style="stroke: #A80036; stroke-width: 1.0; stroke-dasharray: 5.0,5.0;" x1="38" x2="38" y1="86.2969" y2="443.625"/><line style="stroke: #A80036; stroke-width: 1.0; stroke-dasharray: 5.0,5.0;" x1="119" x2="119" y1="86.2969" y2="443.625"/><line style="stroke: #A80036; stroke-width: 1.0; stroke-dasharray: 5.0,5.0;" x1="255.5" x2="255.5" y1="86.2969" y2="443.625"/><line style="stroke: #A80036; stroke-width: 1.0; stroke-dasharray: 5.0,5.0;" x1="409" x2="409" y1="86.2969" y2="443.625"/><text fill="#000000" font-family="sans-serif" font-size="14" lengthAdjust="spacingAndGlyphs" textLength="55" x="8" y="82.9951">L7Policy</text><ellipse cx="38.5" cy="54" fill="#FEFECE" filter="url(#f1sf5jmobvt02y)" rx="12" ry="12" style="stroke: #A80036; stroke-width: 2.0;"/><line style="stroke: #A80036; stroke-width: 2.0;" x1="26.5" x2="50.5" y1="68" y2="68"/><text fill="#000000" font-family="sans-serif" font-size="14" lengthAdjust="spacingAndGlyphs" textLength="75" x="79" y="82.9951">Strategizer</text><ellipse cx="119.5" cy="13" fill="#FEFECE" filter="url(#f1sf5jmobvt02y)" rx="8" ry="8" style="stroke: #A80036; stroke-width: 2.0;"/><path d="M119.5,21 L119.5,48 M106.5,29 L132.5,29 M119.5,48 L106.5,63 M119.5,48 L132.5,63 " fill="#FEFECE" filter="url(#f1sf5jmobvt02y)" style="stroke: #A80036; stroke-width: 2.0;"/><text fill="#000000" font-family="sans-serif" font-size="14" lengthAdjust="spacingAndGlyphs" textLength="50" x="227.5" y="82.9951">HttpSM</text><ellipse cx="255.5" cy="13" fill="#FEFECE" filter="url(#f1sf5jmobvt02y)" rx="8" ry="8" style="stroke: #A80036; stroke-width: 2.0;"/><path d="M255.5,21 L255.5,48 M242.5,29 L268.5,29 M255.5,48 L242.5,63 M255.5,48 L268.5,63 " fill="#FEFECE" filter="url(#f1sf5jmobvt02y)" style="stroke: #A80036; stroke-width: 2.0;"/><rect fill="#FEFECE" filter="url(#f1sf5jmobvt02y)" height="30.2969" style="stroke: #A80036; stroke-width: 1.5;" width="81" x="367" y="51"/><text fill="#000000" font-family="sans-serif" font-size="14" lengthAdjust="spacingAndGlyphs" textLength="67" x="374" y="70.9951">Upstream</text><rect fill="#FFFFFF" filter="url(#f1sf5jmobvt02y)" height="288.1953" style="stroke: #A80036; stroke-width: 1.0;" width="10" x="114.5" y="146.4297"/><polygon fill="#A80036" points="49.5,113.2969,39.5,117.2969,49.5,117.2969" style="stroke: #A80036; stroke-width: 1.0;"/><line style="stroke: #A80036; stroke-width: 1.0;" x1="38.5" x2="254.5" y1="117.2969" y2="117.2969"/><text fill="#000000" font-family="sans-serif" font-size="13" lengthAdjust="spacingAndGlyphs" textLength="76" x="55.5" y="112.3638">create "tag"</text><polygon fill="#A80036" points="243.5,147.4297,253.5,147.4297,243.5,151.4297" style="stroke: #A80036; stroke-width: 1.0;"/><line style="stroke: #A80036; stroke-width: 1.0;" x1="38.5" x2="254.5" y1="146.4297" y2="146.4297"/><text fill="#000000" font-family="sans-serif" font-size="13" lengthAdjust="spacingAndGlyphs" textLength="118" x="45.5" y="141.4966">return: Strategizer</text><polygon fill="#A80036" points="243.5,176.5625,253.5,180.5625,243.5,184.5625,247.5,180.5625" style="stroke: #A80036; stroke-width: 1.0;"/><line style="stroke: #A80036; stroke-width: 1.0;" x1="124.5" x2="249.5" y1="180.5625" y2="180.5625"/><text fill="#000000" font-family="sans-serif" font-size="13" lengthAdjust="spacingAndGlyphs" textLength="107" x="131.5" y="175.6294">SESSION_READY</text><polygon fill="#FBFB77" filter="url(#f1sf5jmobvt02y)" points="260,159.5625,260,184.5625,389,184.5625,389,169.5625,379,159.5625,260,159.5625" style="stroke: #A80036; stroke-width: 1.0;"/><line style="stroke: #A80036; stroke-width: 1.0;" x1="379" x2="379" y1="159.5625" y2="169.5625"/><line style="stroke: #A80036; stroke-width: 1.0;" x1="389" x2="379" y1="169.5625" y2="169.5625"/><text fill="#000000" font-family="sans-serif" font-size="13" lengthAdjust="spacingAndGlyphs" textLength="108" x="266" y="176.6294">Contains session</text><polygon fill="#A80036" points="397.5,210.6953,407.5,214.6953,397.5,218.6953,401.5,214.6953" style="stroke: #A80036; stroke-width: 1.0;"/><line style="stroke: #A80036; stroke-width: 1.0;" x1="255.5" x2="403.5" y1="214.6953" y2="214.6953"/><text fill="#000000" font-family="sans-serif" font-size="13" lengthAdjust="spacingAndGlyphs" textLength="88" x="262.5" y="209.7622">HTTP Request</text><polygon fill="#A80036" points="266.5,239.8281,256.5,243.8281,266.5,247.8281,262.5,243.8281" style="stroke: #A80036; stroke-width: 1.0;"/><line style="stroke: #A80036; stroke-width: 1.0;" x1="260.5" x2="408.5" y1="243.8281" y2="243.8281"/><text fill="#000000" font-family="sans-serif" font-size="13" lengthAdjust="spacingAndGlyphs" textLength="130" x="272.5" y="238.895">Upstream Response</text><line style="stroke: #A80036; stroke-width: 1.0;" x1="255.5" x2="297.5" y1="273.0938" y2="273.0938"/><line style="stroke: #A80036; stroke-width: 1.0;" x1="297.5" x2="297.5" y1="273.0938" y2="286.0938"/><line style="stroke: #A80036; stroke-width: 1.0;" x1="256.5" x2="297.5" y1="286.0938" y2="286.0938"/><polygon fill="#A80036" points="266.5,282.0938,256.5,286.0938,266.5,290.0938,262.5,286.0938" style="stroke: #A80036; stroke-width: 1.0;"/><text fill="#000000" font-family="sans-serif" font-size="13" lengthAdjust="spacingAndGlyphs" textLength="99" x="262.5" y="268.0278">Read response.</text><polygon fill="#A80036" points="135.5,316.0938,125.5,320.0938,135.5,320.0938" style="stroke: #A80036; stroke-width: 1.0;"/><line style="stroke: #A80036; stroke-width: 1.0;" x1="124.5" x2="254.5" y1="320.0938" y2="320.0938"/><text fill="#000000" font-family="sans-serif" font-size="13" lengthAdjust="spacingAndGlyphs" textLength="36" x="141.5" y="315.1606">result</text><polygon fill="#FBFB77" filter="url(#f1sf5jmobvt02y)" points="260,299.0938,260,324.0938,400,324.0938,400,309.0938,390,299.0938,260,299.0938" style="stroke: #A80036; stroke-width: 1.0;"/><line style="stroke: #A80036; stroke-width: 1.0;" x1="390" x2="390" y1="299.0938" y2="309.0938"/><line style="stroke: #A80036; stroke-width: 1.0;" x1="400" x2="390" y1="309.0938" y2="309.0938"/><text fill="#000000" font-family="sans-serif" font-size="13" lengthAdjust="spacingAndGlyphs" textLength="119" x="266" y="316.1606">Contains response</text><polygon fill="#A80036" points="243.5,355.2266,253.5,355.2266,243.5,359.2266" style="stroke: #A80036; stroke-width: 1.0;"/><line style="stroke: #A80036; stroke-width: 1.0;" x1="124.5" x2="254.5" y1="354.2266" y2="354.2266"/><text fill="#000000" font-family="sans-serif" font-size="13" lengthAdjust="spacingAndGlyphs" textLength="95" x="131.5" y="349.2935">return: ACTION</text><line style="stroke: #A80036; stroke-width: 1.0;" x1="255.5" x2="297.5" y1="383.4922" y2="383.4922"/><line style="stroke: #A80036; stroke-width: 1.0;" x1="297.5" x2="297.5" y1="383.4922" y2="396.4922"/><line style="stroke: #A80036; stroke-width: 1.0;" x1="256.5" x2="297.5" y1="396.4922" y2="396.4922"/><polygon fill="#A80036" points="266.5,392.4922,256.5,396.4922,266.5,400.4922,262.5,396.4922" style="stroke: #A80036; stroke-width: 1.0;"/><text fill="#000000" font-family="sans-serif" font-size="13" lengthAdjust="spacingAndGlyphs" textLength="113" x="262.5" y="378.4263">process response</text><polygon fill="#A80036" points="135.5,421.4922,125.5,425.4922,135.5,429.4922,131.5,425.4922" style="stroke: #A80036; stroke-width: 1.0;"/><line style="stroke: #A80036; stroke-width: 1.0;" x1="129.5" x2="254.5" y1="425.4922" y2="425.4922"/><text fill="#000000" font-family="sans-serif" font-size="13" lengthAdjust="spacingAndGlyphs" textLength="33" x="141.5" y="420.5591">finish</text><!--
@startuml
entity L7Policy
actor Strategizer
actor HttpSM
participant Upstream

hide footbox

HttpSM -\ L7Policy : create "tag"
L7Policy -/ HttpSM : return: Strategizer
activate Strategizer
Strategizer -> HttpSM : SESSION_READY
note right : Contains session
HttpSM -> Upstream : HTTP Request
Upstream -> HttpSM : Upstream Response
HttpSM -> HttpSM : Read response.
HttpSM -\ Strategizer : result
note right : Contains response
Strategizer -/ HttpSM : return: ACTION
HttpSM -> HttpSM : process response
HttpSM -> Strategizer : finish

@enduml

PlantUML version 1.2017.18(Fri Oct 06 11:56:32 CDT 2017)
(GPL source distribution)
Java Runtime: OpenJDK Runtime Environment
JVM: OpenJDK 64-Bit Server VM
Java Version: 1.8.0_242-b08
Operating System: Linux
OS Version: 5.5.8-100.fc30.x86_64
Default Encoding: UTF-8
Language: en
Country: US
--></g></svg>