<?xml version="1.0" encoding="UTF-8" standalone="no"?><svg xmlns="http://www.w3.org/2000/svg" xmlns:xlink="http://www.w3.org/1999/xlink" contentScriptType="application/ecmascript" contentStyleType="text/css" height="101px" preserveAspectRatio="none" style="width:546px;height:101px;" version="1.1" viewBox="0 0 546 101" width="546px" zoomAndPan="magnify"><defs><filter height="300%" id="f1t7meafez2pwn" width="300%" x="-1" y="-1"><feGaussianBlur result="blurOut" stdDeviation="2.0"/><feColorMatrix in="blurOut" result="blurOut2" type="matrix" values="0 0 0 0 0 0 0 0 0 0 0 0 0 0 0 0 0 0 .4 0"/><feOffset dx="4.0" dy="4.0" in="blurOut2" result="blurOut3"/><feBlend in="SourceGraphic" in2="blurOut3" mode="normal"/></filter></defs><g><!--entity Cloud--><path d="M255,38.5 C255,35.5 257,33.5 260,33.5 C263,33.5 265,35.5 265,38.5 C265,35.5 267,33.5 270,33.5 C273,33.5 275,35.5 275,38.5 C275,35.5 277,33.5 280,33.5 C283,33.5 285,35.5 285,38.5 C285,35.5 287,33.5 290,33.5 C293,33.5 295,35.5 295,38.5 C295,35.5 297,33.5 300,33.5 C303,33.5 305,35.5 305,38.5 C305,35.5 307,33.5 310,33.5 C313,33.5 315,35.5 315,38.5 C318,38.5 320,40.5 320,43.5 C320,46.5 318,48.5 315,48.5 C318,48.5 320,50.5 320,53.5 C320,56.5 318,58.5 315,58.5 C315,61.5 312,63.5 310,63.5 C307,63.5 305,61.5 305,58.5 C305,61.5 302,63.5 300,63.5 C297,63.5 295,61.5 295,58.5 C295,61.5 292,63.5 290,63.5 C287,63.5 285,61.5 285,58.5 C285,61.5 282,63.5 280,63.5 C277,63.5 275,61.5 275,58.5 C275,61.5 272,63.5 270,63.5 C267,63.5 265,61.5 265,58.5 C265,61.5 262,63.5 260,63.5 C257,63.5 255,61.5 255,58.5 C252,58.5 250,56.5 250,53.5 C250,50.5 252,48.5 255,48.5 C252,48.5 250,46.5 250,43.5 C250,40.5 252,38.5 255,38.5 " fill="#FEFECE" filter="url(#f1t7meafez2pwn)" style="stroke: #000000; stroke-width: 1.5;"/><text fill="#000000" font-family="sans-serif" font-size="14" lengthAdjust="spacingAndGlyphs" textLength="41" x="262" y="54.4951">Cloud</text><!--entity Client--><ellipse cx="26.5" cy="18" fill="#FEFECE" filter="url(#f1t7meafez2pwn)" rx="8" ry="8" style="stroke: #A80036; stroke-width: 2.0;"/><path d="M26.5,26 L26.5,53 M13.5,34 L39.5,34 M26.5,53 L13.5,68 M26.5,53 L39.5,68 " fill="#FEFECE" filter="url(#f1t7meafez2pwn)" style="stroke: #A80036; stroke-width: 2.0;"/><text fill="#000000" font-family="sans-serif" font-size="14" lengthAdjust="spacingAndGlyphs" textLength="41" x="6" y="87.9951">Client</text><!--entity Ingress--><polygon fill="#FEFECE" filter="url(#f1t7meafez2pwn)" points="82.5,36.5,92.5,26.5,216.5,26.5,216.5,62.7969,206.5,72.7969,82.5,72.7969,82.5,36.5" style="stroke: #000000; stroke-width: 1.5;"/><line style="stroke: #000000; stroke-width: 1.5;" x1="206.5" x2="215.5" y1="36.5" y2="27.5"/><line style="stroke: #000000; stroke-width: 1.5;" x1="82.5" x2="206.5" y1="36.5" y2="36.5"/><line style="stroke: #000000; stroke-width: 1.5;" x1="206.5" x2="206.5" y1="36.5" y2="72.7969"/><text fill="#000000" font-family="sans-serif" font-size="14" lengthAdjust="spacingAndGlyphs" textLength="94" x="97.5" y="59.4951">Ingress Proxy</text><!--entity Proxy--><polygon fill="#FEFECE" filter="url(#f1t7meafez2pwn)" points="348,36.5,358,26.5,427,26.5,427,62.7969,417,72.7969,348,72.7969,348,36.5" style="stroke: #000000; stroke-width: 1.5;"/><line style="stroke: #000000; stroke-width: 1.5;" x1="417" x2="426" y1="36.5" y2="27.5"/><line style="stroke: #000000; stroke-width: 1.5;" x1="348" x2="417" y1="36.5" y2="36.5"/><line style="stroke: #000000; stroke-width: 1.5;" x1="417" x2="417" y1="36.5" y2="72.7969"/><text fill="#000000" font-family="sans-serif" font-size="14" lengthAdjust="spacingAndGlyphs" textLength="39" x="363" y="59.4951">Proxy</text><!--entity Service--><rect fill="#FEFECE" filter="url(#f1t7meafez2pwn)" height="36.2969" style="stroke: #A80036; stroke-width: 1.5;" width="73" x="462" y="31.5"/><rect fill="#FEFECE" height="5" style="stroke: #A80036; stroke-width: 1.5;" width="10" x="457" y="36.5"/><rect fill="#FEFECE" height="5" style="stroke: #A80036; stroke-width: 1.5;" width="10" x="457" y="57.7969"/><text fill="#000000" font-family="sans-serif" font-size="14" lengthAdjust="spacingAndGlyphs" textLength="53" x="472" y="54.4951">Service</text><!--link Client to Ingress--><path d="M52.3821,49.5 C60.6516,49.5 68.9211,49.5 77.1906,49.5 " fill="none" id="Client-Ingress" style="stroke: #A80036; stroke-width: 1.0;"/><polygon fill="#A80036" points="82.3395,49.5,73.3395,45.5,77.3395,49.5,73.3395,53.5,82.3395,49.5" style="stroke: #A80036; stroke-width: 1.0;"/><polygon fill="#A80036" points="47.1602,49.5,56.1602,53.5,52.1602,49.5,56.1602,45.5,47.1602,49.5" style="stroke: #A80036; stroke-width: 1.0;"/><!--link Ingress to Cloud--><path d="M221.7608,49.5 C230.061,49.5 238.3612,49.5 246.6614,49.5 " fill="none" id="Ingress-Cloud" style="stroke: #A80036; stroke-width: 1.0;"/><polygon fill="#A80036" points="251.8294,49.5,242.8294,45.5,246.8294,49.5,242.8294,53.5,251.8294,49.5" style="stroke: #A80036; stroke-width: 1.0;"/><polygon fill="#A80036" points="216.5195,49.5,225.5195,53.5,221.5195,49.5,225.5195,45.5,216.5195,49.5" style="stroke: #A80036; stroke-width: 1.0;"/><!--link Cloud to Proxy--><path d="M318.3842,49.5 C326.4961,49.5 334.6081,49.5 342.7201,49.5 " fill="none" id="Cloud-Proxy" style="stroke: #A80036; stroke-width: 1.0;"/><polygon fill="#A80036" points="347.7709,49.5,338.7709,45.5,342.7709,49.5,338.7709,53.5,347.7709,49.5" style="stroke: #A80036; stroke-width: 1.0;"/><polygon fill="#A80036" points="313.2617,49.5,322.2617,53.5,318.2617,49.5,322.2617,45.5,313.2617,49.5" style="stroke: #A80036; stroke-width: 1.0;"/><!--link Proxy to Service--><path d="M432.5033,49.5 C440.5999,49.5 448.6964,49.5 456.793,49.5 " fill="none" id="Proxy-Service" style="stroke: #A80036; stroke-width: 1.0;"/><polygon fill="#A80036" points="461.8342,49.5,452.8342,45.5,456.8342,49.5,452.8342,53.5,461.8342,49.5" style="stroke: #A80036; stroke-width: 1.0;"/><polygon fill="#A80036" points="427.3906,49.5,436.3906,53.5,432.3906,49.5,436.3906,45.5,427.3906,49.5" style="stroke: #A80036; stroke-width: 1.0;"/><!--
@startuml
hide empty members
cloud Cloud
actor Client
node "Ingress Proxy" as Ingress
node "Proxy" as Proxy

[Client] <-> [Ingress]
[Ingress] <-> [Cloud]
[Cloud] <-> [Proxy]
[Proxy] <-> [Service]

@enduml

PlantUML version 1.2017.18(Fri Oct 06 11:56:32 CDT 2017)
(GPL source distribution)
Java Runtime: OpenJDK Runtime Environment
JVM: OpenJDK 64-Bit Server VM
Java Version: 1.8.0_171-b10
Operating System: Linux
OS Version: 4.15.17-300.fc27.x86_64
Default Encoding: UTF-8
Language: en
Country: US
--></g></svg>