<?xml version="1.0" encoding="UTF-8" standalone="no"?><svg xmlns="http://www.w3.org/2000/svg" xmlns:xlink="http://www.w3.org/1999/xlink" contentScriptType="application/ecmascript" contentStyleType="text/css" height="583px" preserveAspectRatio="none" style="width:534px;height:583px;" version="1.1" viewBox="0 0 534 583" width="534px" zoomAndPan="magnify"><defs><filter height="300%" id="f15t0lceifk56y" width="300%" x="-1" y="-1"><feGaussianBlur result="blurOut" stdDeviation="2.0"/><feColorMatrix in="blurOut" result="blurOut2" type="matrix" values="0 0 0 0 0 0 0 0 0 0 0 0 0 0 0 0 0 0 .4 0"/><feOffset dx="4.0" dy="4.0" in="blurOut2" result="blurOut3"/><feBlend in="SourceGraphic" in2="blurOut3" mode="normal"/></filter></defs><g><rect fill="#FFFFFF" filter="url(#f15t0lceifk56y)" height="258.0625" style="stroke: #FFFFFF; stroke-width: 1.0;" width="10" x="119" y="146.4297"/><line style="stroke: #A80036; stroke-width: 1.0;" x1="119" x2="119" y1="146.4297" y2="404.4922"/><line style="stroke: #A80036; stroke-width: 1.0;" x1="129" x2="129" y1="146.4297" y2="404.4922"/><line style="stroke: #A80036; stroke-width: 1.0;" x1="119" x2="129" y1="146.4297" y2="146.4297"/><rect fill="#FFFFFF" filter="url(#f15t0lceifk56y)" height="29.1328" style="stroke: #FFFFFF; stroke-width: 1.0;" width="10" x="119" y="432.4922"/><line style="stroke: #A80036; stroke-width: 1.0;" x1="119" x2="119" y1="432.4922" y2="461.625"/><line style="stroke: #A80036; stroke-width: 1.0;" x1="129" x2="129" y1="432.4922" y2="461.625"/><rect fill="#FFFFFF" filter="url(#f15t0lceifk56y)" height="73.2656" style="stroke: #FFFFFF; stroke-width: 1.0;" width="10" x="119" y="489.625"/><line style="stroke: #A80036; stroke-width: 1.0;" x1="119" x2="119" y1="489.625" y2="562.8906"/><line style="stroke: #A80036; stroke-width: 1.0;" x1="129" x2="129" y1="489.625" y2="562.8906"/><line style="stroke: #A80036; stroke-width: 1.0;" x1="119" x2="129" y1="562.8906" y2="562.8906"/><line style="stroke: #A80036; stroke-width: 1.0;" x1="40" x2="40" y1="86.2969" y2="404.4922"/><line style="stroke: #A80036; stroke-width: 1.0; stroke-dasharray: 1.0,4.0;" x1="40" x2="40" y1="404.4922" y2="432.4922"/><line style="stroke: #A80036; stroke-width: 1.0;" x1="40" x2="40" y1="432.4922" y2="461.625"/><line style="stroke: #A80036; stroke-width: 1.0; stroke-dasharray: 1.0,4.0;" x1="40" x2="40" y1="461.625" y2="489.625"/><line style="stroke: #A80036; stroke-width: 1.0;" x1="40" x2="40" y1="489.625" y2="571.8906"/><line style="stroke: #A80036; stroke-width: 1.0;" x1="124" x2="124" y1="86.2969" y2="404.4922"/><line style="stroke: #A80036; stroke-width: 1.0; stroke-dasharray: 1.0,4.0;" x1="124" x2="124" y1="404.4922" y2="432.4922"/><line style="stroke: #A80036; stroke-width: 1.0;" x1="124" x2="124" y1="432.4922" y2="461.625"/><line style="stroke: #A80036; stroke-width: 1.0; stroke-dasharray: 1.0,4.0;" x1="124" x2="124" y1="461.625" y2="489.625"/><line style="stroke: #A80036; stroke-width: 1.0;" x1="124" x2="124" y1="489.625" y2="571.8906"/><line style="stroke: #A80036; stroke-width: 1.0;" x1="259.5" x2="259.5" y1="86.2969" y2="404.4922"/><line style="stroke: #A80036; stroke-width: 1.0; stroke-dasharray: 1.0,4.0;" x1="259.5" x2="259.5" y1="404.4922" y2="432.4922"/><line style="stroke: #A80036; stroke-width: 1.0;" x1="259.5" x2="259.5" y1="432.4922" y2="461.625"/><line style="stroke: #A80036; stroke-width: 1.0; stroke-dasharray: 1.0,4.0;" x1="259.5" x2="259.5" y1="461.625" y2="489.625"/><line style="stroke: #A80036; stroke-width: 1.0;" x1="259.5" x2="259.5" y1="489.625" y2="571.8906"/><line style="stroke: #A80036; stroke-width: 1.0;" x1="473.5" x2="473.5" y1="86.2969" y2="404.4922"/><line style="stroke: #A80036; stroke-width: 1.0; stroke-dasharray: 1.0,4.0;" x1="473.5" x2="473.5" y1="404.4922" y2="432.4922"/><line style="stroke: #A80036; stroke-width: 1.0;" x1="473.5" x2="473.5" y1="432.4922" y2="461.625"/><line style="stroke: #A80036; stroke-width: 1.0; stroke-dasharray: 1.0,4.0;" x1="473.5" x2="473.5" y1="461.625" y2="489.625"/><line style="stroke: #A80036; stroke-width: 1.0;" x1="473.5" x2="473.5" y1="489.625" y2="571.8906"/><text fill="#000000" font-family="sans-serif" font-size="14" lengthAdjust="spacingAndGlyphs" textLength="58" x="8" y="82.9951">L7Policy</text><ellipse cx="40" cy="54" fill="#FEFECE" filter="url(#f15t0lceifk56y)" rx="12" ry="12" style="stroke: #A80036; stroke-width: 2.0;"/><line style="stroke: #A80036; stroke-width: 2.0;" x1="28" x2="52" y1="68" y2="68"/><text fill="#000000" font-family="sans-serif" font-size="14" lengthAdjust="spacingAndGlyphs" textLength="78" x="82" y="82.9951">Strategizer</text><ellipse cx="124" cy="13" fill="#FEFECE" filter="url(#f15t0lceifk56y)" rx="8" ry="8" style="stroke: #A80036; stroke-width: 2.0;"/><path d="M124,21 L124,48 M111,29 L137,29 M124,48 L111,63 M124,48 L137,63 " fill="none" filter="url(#f15t0lceifk56y)" style="stroke: #A80036; stroke-width: 2.0;"/><text fill="#000000" font-family="sans-serif" font-size="14" lengthAdjust="spacingAndGlyphs" textLength="51" x="231.5" y="82.9951">HttpSM</text><ellipse cx="260" cy="13" fill="#FEFECE" filter="url(#f15t0lceifk56y)" rx="8" ry="8" style="stroke: #A80036; stroke-width: 2.0;"/><path d="M260,21 L260,48 M247,29 L273,29 M260,48 L247,63 M260,48 L273,63 " fill="none" filter="url(#f15t0lceifk56y)" style="stroke: #A80036; stroke-width: 2.0;"/><rect fill="#FEFECE" filter="url(#f15t0lceifk56y)" height="30.2969" style="stroke: #A80036; stroke-width: 1.5;" width="83" x="430.5" y="51"/><text fill="#000000" font-family="sans-serif" font-size="14" lengthAdjust="spacingAndGlyphs" textLength="69" x="437.5" y="70.9951">Upstream</text><rect fill="#FFFFFF" filter="url(#f15t0lceifk56y)" height="258.0625" style="stroke: #FFFFFF; stroke-width: 1.0;" width="10" x="119" y="146.4297"/><line style="stroke: #A80036; stroke-width: 1.0;" x1="119" x2="119" y1="146.4297" y2="404.4922"/><line style="stroke: #A80036; stroke-width: 1.0;" x1="129" x2="129" y1="146.4297" y2="404.4922"/><line style="stroke: #A80036; stroke-width: 1.0;" x1="119" x2="129" y1="146.4297" y2="146.4297"/><rect fill="#FFFFFF" filter="url(#f15t0lceifk56y)" height="29.1328" style="stroke: #FFFFFF; stroke-width: 1.0;" width="10" x="119" y="432.4922"/><line style="stroke: #A80036; stroke-width: 1.0;" x1="119" x2="119" y1="432.4922" y2="461.625"/><line style="stroke: #A80036; stroke-width: 1.0;" x1="129" x2="129" y1="432.4922" y2="461.625"/><rect fill="#FFFFFF" filter="url(#f15t0lceifk56y)" height="73.2656" style="stroke: #FFFFFF; stroke-width: 1.0;" width="10" x="119" y="489.625"/><line style="stroke: #A80036; stroke-width: 1.0;" x1="119" x2="119" y1="489.625" y2="562.8906"/><line style="stroke: #A80036; stroke-width: 1.0;" x1="129" x2="129" y1="489.625" y2="562.8906"/><line style="stroke: #A80036; stroke-width: 1.0;" x1="119" x2="129" y1="562.8906" y2="562.8906"/><polygon fill="#A80036" points="51,113.2969,41,117.2969,51,117.2969" style="stroke: #A80036; stroke-width: 1.0;"/><line style="stroke: #A80036; stroke-width: 1.0;" x1="40" x2="259" y1="117.2969" y2="117.2969"/><text fill="#000000" font-family="sans-serif" font-size="13" lengthAdjust="spacingAndGlyphs" textLength="78" x="57" y="112.3638">create "tag"</text><polygon fill="#A80036" points="248,147.4297,258,147.4297,248,151.4297" style="stroke: #A80036; stroke-width: 1.0;"/><line style="stroke: #A80036; stroke-width: 1.0;" x1="40" x2="259" y1="146.4297" y2="146.4297"/><text fill="#000000" font-family="sans-serif" font-size="13" lengthAdjust="spacingAndGlyphs" textLength="118" x="47" y="141.4966">return: Strategizer</text><polygon fill="#A80036" points="248,176.5625,258,180.5625,248,184.5625,252,180.5625" style="stroke: #A80036; stroke-width: 1.0;"/><line style="stroke: #A80036; stroke-width: 1.0;" x1="129" x2="254" y1="180.5625" y2="180.5625"/><text fill="#000000" font-family="sans-serif" font-size="13" lengthAdjust="spacingAndGlyphs" textLength="107" x="136" y="175.6294">SESSION_READY</text><path d="M265,159.5625 L265,184.5625 L396,184.5625 L396,169.5625 L386,159.5625 L265,159.5625 " fill="#FBFB77" filter="url(#f15t0lceifk56y)" style="stroke: #A80036; stroke-width: 1.0;"/><path d="M386,159.5625 L386,169.5625 L396,169.5625 L386,159.5625 " fill="#FBFB77" style="stroke: #A80036; stroke-width: 1.0;"/><text fill="#000000" font-family="sans-serif" font-size="13" lengthAdjust="spacingAndGlyphs" textLength="110" x="271" y="176.6294">Contains session</text><polygon fill="#A80036" points="462,210.6953,472,214.6953,462,218.6953,466,214.6953" style="stroke: #A80036; stroke-width: 1.0;"/><line style="stroke: #A80036; stroke-width: 1.0;" x1="260" x2="468" y1="214.6953" y2="214.6953"/><text fill="#000000" font-family="sans-serif" font-size="13" lengthAdjust="spacingAndGlyphs" textLength="91" x="267" y="209.7622">HTTP Request</text><polygon fill="#A80036" points="271,239.8281,261,243.8281,271,247.8281,267,243.8281" style="stroke: #A80036; stroke-width: 1.0;"/><line style="stroke: #A80036; stroke-width: 1.0;" x1="265" x2="473" y1="243.8281" y2="243.8281"/><text fill="#000000" font-family="monospace" font-size="13" lengthAdjust="spacingAndGlyphs" textLength="104" x="277" y="238.895">404 NOT FOUND</text><line style="stroke: #A80036; stroke-width: 1.0;" x1="260" x2="302" y1="273.0938" y2="273.0938"/><line style="stroke: #A80036; stroke-width: 1.0;" x1="302" x2="302" y1="273.0938" y2="286.0938"/><line style="stroke: #A80036; stroke-width: 1.0;" x1="261" x2="302" y1="286.0938" y2="286.0938"/><polygon fill="#A80036" points="271,282.0938,261,286.0938,271,290.0938,267,286.0938" style="stroke: #A80036; stroke-width: 1.0;"/><text fill="#000000" font-family="sans-serif" font-size="13" lengthAdjust="spacingAndGlyphs" textLength="149" x="267" y="268.0278">Read response header.</text><polygon fill="#A80036" points="140,316.0938,130,320.0938,140,320.0938" style="stroke: #A80036; stroke-width: 1.0;"/><line style="stroke: #A80036; stroke-width: 1.0;" x1="129" x2="259" y1="320.0938" y2="320.0938"/><text fill="#000000" font-family="sans-serif" font-size="13" lengthAdjust="spacingAndGlyphs" textLength="37" x="146" y="315.1606">result</text><path d="M265,299.0938 L265,324.0938 L415,324.0938 L415,309.0938 L405,299.0938 L265,299.0938 " fill="#FBFB77" filter="url(#f15t0lceifk56y)" style="stroke: #A80036; stroke-width: 1.0;"/><path d="M405,299.0938 L405,309.0938 L415,309.0938 L405,299.0938 " fill="#FBFB77" style="stroke: #A80036; stroke-width: 1.0;"/><text fill="#000000" font-family="sans-serif" font-size="13" lengthAdjust="spacingAndGlyphs" textLength="129" x="271" y="316.1606">HTTP 404 Response</text><polygon fill="#A80036" points="248,355.2266,258,355.2266,248,359.2266" style="stroke: #A80036; stroke-width: 1.0;"/><line style="stroke: #A80036; stroke-width: 1.0;" x1="129" x2="259" y1="354.2266" y2="354.2266"/><text fill="#000000" font-family="sans-serif" font-size="13" lengthAdjust="spacingAndGlyphs" textLength="89" x="136" y="349.2935">return: RETRY</text><line style="stroke: #A80036; stroke-width: 1.0;" x1="260" x2="302" y1="383.4922" y2="383.4922"/><line style="stroke: #A80036; stroke-width: 1.0;" x1="302" x2="302" y1="383.4922" y2="396.4922"/><line style="stroke: #A80036; stroke-width: 1.0;" x1="261" x2="302" y1="396.4922" y2="396.4922"/><polygon fill="#A80036" points="271,392.4922,261,396.4922,271,400.4922,267,396.4922" style="stroke: #A80036; stroke-width: 1.0;"/><text fill="#000000" font-family="sans-serif" font-size="13" lengthAdjust="spacingAndGlyphs" textLength="200" x="267" y="378.4263">Drain upstream response body</text><polygon fill="#A80036" points="140,449.4922,130,453.4922,140,457.4922,136,453.4922" style="stroke: #A80036; stroke-width: 1.0;"/><line style="stroke: #A80036; stroke-width: 1.0;" x1="134" x2="259" y1="453.4922" y2="453.4922"/><text fill="#000000" font-family="sans-serif" font-size="13" lengthAdjust="spacingAndGlyphs" textLength="36" x="146" y="448.5591">finish</text><polygon fill="#A80036" points="248,506.625,258,510.625,248,514.625,252,510.625" style="stroke: #A80036; stroke-width: 1.0;"/><line style="stroke: #A80036; stroke-width: 1.0;" x1="129" x2="254" y1="510.625" y2="510.625"/><text fill="#000000" font-family="sans-serif" font-size="13" lengthAdjust="spacingAndGlyphs" textLength="107" x="136" y="505.6919">SESSION_READY</text><rect fill="#EEEEEE" filter="url(#f15t0lceifk56y)" height="3" style="stroke: #EEEEEE; stroke-width: 1.0;" width="519.5" x="3" y="539.3242"/><line style="stroke: #000000; stroke-width: 1.0;" x1="3" x2="522.5" y1="539.3242" y2="539.3242"/><line style="stroke: #000000; stroke-width: 1.0;" x1="3" x2="522.5" y1="542.3242" y2="542.3242"/><rect fill="#EEEEEE" filter="url(#f15t0lceifk56y)" height="23.1328" style="stroke: #000000; stroke-width: 2.0;" width="134" x="195.75" y="528.7578"/><text fill="#000000" font-family="sans-serif" font-size="13" font-weight="bold" lengthAdjust="spacingAndGlyphs" textLength="115" x="201.75" y="544.8247">As 200 OK case</text><!--
@startuml
entity L7Policy
actor Strategizer
actor HttpSM
participant Upstream

hide footbox

HttpSM -\ L7Policy : create "tag"
L7Policy -/ HttpSM : return: Strategizer
activate Strategizer
Strategizer -> HttpSM : SESSION_READY
note right : Contains session
HttpSM -> Upstream : HTTP Request
Upstream -> HttpSM : ""404 NOT FOUND""
HttpSM -> HttpSM : Read response header.
HttpSM -\ Strategizer : result
note right : HTTP 404 Response
Strategizer -/ HttpSM : return: RETRY
HttpSM -> HttpSM : Drain upstream response body
...
HttpSM -> Strategizer : finish
...
Strategizer -> HttpSM : SESSION_READY
== As 200 OK case ==

@enduml

PlantUML version 1.2018.01(Sun Jan 28 12:08:22 CST 2018)
(APACHE source distribution)
Java Runtime: OpenJDK Runtime Environment
JVM: OpenJDK 64-Bit Server VM
Java Version: 1.8.0_181-b15
Operating System: Linux
OS Version: 4.18.12-200.fc28.x86_64
Default Encoding: UTF-8
Language: en
Country: US
--></g></svg>