<?xml version="1.0" encoding="UTF-8" standalone="no"?><svg xmlns="http://www.w3.org/2000/svg" xmlns:xlink="http://www.w3.org/1999/xlink" contentScriptType="application/ecmascript" contentStyleType="text/css" height="83px" preserveAspectRatio="none" style="width:293px;height:83px;" version="1.1" viewBox="0 0 293 83" width="293px" zoomAndPan="magnify"><defs><filter height="300%" id="f1u947yk7m85eg" width="300%" x="-1" y="-1"><feGaussianBlur result="blurOut" stdDeviation="2.0"/><feColorMatrix in="blurOut" result="blurOut2" type="matrix" values="0 0 0 0 0 0 0 0 0 0 0 0 0 0 0 0 0 0 .4 0"/><feOffset dx="4.0" dy="4.0" in="blurOut2" result="blurOut3"/><feBlend in="SourceGraphic" in2="blurOut3" mode="normal"/></filter></defs><g><!--class OpenDirEntry--><rect fill="#FEFECE" filter="url(#f1u947yk7m85eg)" height="60.8047" id="OpenDirEntry" style="stroke: #A80036; stroke-width: 1.5;" width="140" x="14" y="12"/><ellipse cx="40.7" cy="28" fill="#ADD1B2" rx="11" ry="11" style="stroke: #A80036; stroke-width: 1.0;"/><path d="M43.6688,33.6406 Q43.0906,33.9375 42.45,34.0859 Q41.8094,34.2344 41.1063,34.2344 Q38.6063,34.2344 37.2859,32.5859 Q35.9656,30.9375 35.9656,27.8125 Q35.9656,24.6875 37.2859,23.0313 Q38.6063,21.375 41.1063,21.375 Q41.8094,21.375 42.4578,21.5313 Q43.1063,21.6875 43.6688,21.9844 L43.6688,24.7031 Q43.0438,24.125 42.45,23.8516 Q41.8563,23.5781 41.2313,23.5781 Q39.8875,23.5781 39.2,24.6484 Q38.5125,25.7188 38.5125,27.8125 Q38.5125,29.9063 39.2,30.9766 Q39.8875,32.0469 41.2313,32.0469 Q41.8563,32.0469 42.45,31.7734 Q43.0438,31.5 43.6688,30.9219 L43.6688,33.6406 Z "/><text fill="#000000" font-family="sans-serif" font-size="12" lengthAdjust="spacingAndGlyphs" textLength="82" x="57.3" y="32.1543">OpenDirEntry</text><line style="stroke: #A80036; stroke-width: 1.5;" x1="15" x2="153" y1="44" y2="44"/><text fill="#000000" font-family="sans-serif" font-size="11" lengthAdjust="spacingAndGlyphs" textLength="128" x="20" y="58.2104">CacheVC* open_writer</text><line style="stroke: #A80036; stroke-width: 1.5;" x1="15" x2="153" y1="64.8047" y2="64.8047"/><!--class CacheVC--><rect fill="#FEFECE" filter="url(#f1u947yk7m85eg)" height="48" id="CacheVC" style="stroke: #A80036; stroke-width: 1.5;" width="85" x="197.5" y="18"/><ellipse cx="212.5" cy="34" fill="#ADD1B2" rx="11" ry="11" style="stroke: #A80036; stroke-width: 1.0;"/><path d="M215.4688,39.6406 Q214.8906,39.9375 214.25,40.0859 Q213.6094,40.2344 212.9063,40.2344 Q210.4063,40.2344 209.0859,38.5859 Q207.7656,36.9375 207.7656,33.8125 Q207.7656,30.6875 209.0859,29.0313 Q210.4063,27.375 212.9063,27.375 Q213.6094,27.375 214.2578,27.5313 Q214.9063,27.6875 215.4688,27.9844 L215.4688,30.7031 Q214.8438,30.125 214.25,29.8516 Q213.6563,29.5781 213.0313,29.5781 Q211.6875,29.5781 211,30.6484 Q210.3125,31.7188 210.3125,33.8125 Q210.3125,35.9063 211,36.9766 Q211.6875,38.0469 213.0313,38.0469 Q213.6563,38.0469 214.25,37.7734 Q214.8438,37.5 215.4688,36.9219 L215.4688,39.6406 Z "/><text fill="#000000" font-family="sans-serif" font-size="12" lengthAdjust="spacingAndGlyphs" textLength="53" x="226.5" y="38.1543">CacheVC</text><line style="stroke: #A80036; stroke-width: 1.5;" x1="198.5" x2="281.5" y1="50" y2="50"/><line style="stroke: #A80036; stroke-width: 1.5;" x1="198.5" x2="281.5" y1="58" y2="58"/><!--link OpenDirEntry to CacheVC--><path d="M154,54 C168.1707,60.2422 183.5299,62.5744 197.2942,62.1848 " fill="none" id="OpenDirEntry-CacheVC" style="stroke: #A80036; stroke-width: 1.0;"/><polygon fill="#A80036" points="154,54,157.8784,60.0793,164.9818,58.8375,161.1034,52.7581,154,54" style="stroke: #A80036; stroke-width: 1.0;"/><!--
@startuml
class OpenDirEntry {
   CacheVC* open_writer
}

class CacheVC {

}

OpenDirEntry::open_writer *- CacheVC

@enduml

PlantUML version 1.2018.01(Sun Jan 28 12:08:22 CST 2018)
(APACHE source distribution)
Java Runtime: OpenJDK Runtime Environment
JVM: OpenJDK 64-Bit Server VM
Java Version: 1.8.0_181-b15
Operating System: Linux
OS Version: 4.18.12-200.fc28.x86_64
Default Encoding: UTF-8
Language: en
Country: US
--></g></svg>