<?xml version="1.0" encoding="UTF-8" standalone="no"?><svg xmlns="http://www.w3.org/2000/svg" xmlns:xlink="http://www.w3.org/1999/xlink" contentScriptType="application/ecmascript" contentStyleType="text/css" height="740px" preserveAspectRatio="none" style="width:940px;height:740px;" version="1.1" viewBox="0 0 940 740" width="940px" zoomAndPan="magnify"><defs><filter height="300%" id="f9jzlw0ypdebc" width="300%" x="-1" y="-1"><feGaussianBlur result="blurOut" stdDeviation="2.0"/><feColorMatrix in="blurOut" result="blurOut2" type="matrix" values="0 0 0 0 0 0 0 0 0 0 0 0 0 0 0 0 0 0 .4 0"/><feOffset dx="4.0" dy="4.0" in="blurOut2" result="blurOut3"/><feBlend in="SourceGraphic" in2="blurOut3" mode="normal"/></filter></defs><g><rect fill="#FEFECE" filter="url(#f9jzlw0ypdebc)" height="33.9688" rx="12.5" ry="12.5" style="stroke: #A80036; stroke-width: 1.5;" width="130" x="404.5" y="10"/><text fill="#000000" font-family="sans-serif" font-size="12" lengthAdjust="spacingAndGlyphs" textLength="110" x="414.5" y="31.1387">netProcessor.init()</text><rect fill="#FEFECE" filter="url(#f9jzlw0ypdebc)" height="33.9688" rx="12.5" ry="12.5" style="stroke: #A80036; stroke-width: 1.5;" width="154" x="392.5" y="63.9688"/><text fill="#000000" font-family="sans-serif" font-size="12" lengthAdjust="spacingAndGlyphs" textLength="134" x="402.5" y="85.1074">init_HttpProxyServer()</text><path d="M568,122.3555 L568,130.9219 L548,134.9219 L568,138.9219 L568,147.4883 A0,0 0 0 0 568,147.4883 L758,147.4883 A0,0 0 0 0 758,147.4883 L758,132.3555 L748,122.3555 L568,122.3555 A0,0 0 0 0 568,122.3555 " fill="#FBFB77" filter="url(#f9jzlw0ypdebc)" style="stroke: #A80036; stroke-width: 1.0;"/><path d="M748,122.3555 L748,132.3555 L758,132.3555 L748,122.3555 " fill="#FBFB77" style="stroke: #A80036; stroke-width: 1.0;"/><text fill="#000000" font-family="sans-serif" font-size="13" lengthAdjust="spacingAndGlyphs" textLength="169" x="574" y="139.4224">ET_NET threads start here</text><rect fill="#FEFECE" filter="url(#f9jzlw0ypdebc)" height="33.9688" rx="12.5" ry="12.5" style="stroke: #A80036; stroke-width: 1.5;" width="157" x="391" y="117.9375"/><text fill="#000000" font-family="sans-serif" font-size="12" lengthAdjust="spacingAndGlyphs" textLength="137" x="401" y="139.0762">eventProcessor::start()</text><path d="M536,176.3242 L536,184.8906 L516,188.8906 L536,192.8906 L536,201.457 A0,0 0 0 0 536,201.457 L728,201.457 A0,0 0 0 0 728,201.457 L728,186.3242 L718,176.3242 L536,176.3242 A0,0 0 0 0 536,176.3242 " fill="#FBFB77" filter="url(#f9jzlw0ypdebc)" style="stroke: #A80036; stroke-width: 1.0;"/><path d="M718,176.3242 L718,186.3242 L728,186.3242 L718,176.3242 " fill="#FBFB77" style="stroke: #A80036; stroke-width: 1.0;"/><text fill="#000000" font-family="sans-serif" font-size="13" lengthAdjust="spacingAndGlyphs" textLength="171" x="542" y="193.3911">Global plugin initialization</text><rect fill="#FEFECE" filter="url(#f9jzlw0ypdebc)" height="33.9688" rx="12.5" ry="12.5" style="stroke: #A80036; stroke-width: 1.5;" width="93" x="423" y="171.9063"/><text fill="#000000" font-family="sans-serif" font-size="12" lengthAdjust="spacingAndGlyphs" textLength="73" x="433" y="193.0449">plugin_init()</text><rect fill="#FEFECE" filter="url(#f9jzlw0ypdebc)" height="33.9688" rx="12.5" ry="12.5" style="stroke: #A80036; stroke-width: 1.5;" width="155" x="392" y="225.875"/><text fill="#000000" font-family="sans-serif" font-size="12" lengthAdjust="spacingAndGlyphs" textLength="135" x="402" y="247.0137">cacheProcessor.start()</text><rect fill="#000000" filter="url(#f9jzlw0ypdebc)" height="6" rx="2.5" ry="2.5" style="stroke: #000000; stroke-width: 1.0;" width="919" x="10" y="279.8438"/><rect fill="#FEFECE" filter="url(#f9jzlw0ypdebc)" height="33.9688" rx="12.5" ry="12.5" style="stroke: #A80036; stroke-width: 1.5;" width="111" x="206.25" y="305.8438"/><text fill="#000000" font-family="sans-serif" font-size="12" lengthAdjust="spacingAndGlyphs" textLength="91" x="216.25" y="326.9824">udpNet::start()</text><rect fill="#FEFECE" filter="url(#f9jzlw0ypdebc)" height="33.9688" rx="12.5" ry="12.5" style="stroke: #A80036; stroke-width: 1.5;" width="201" x="161.25" y="359.8125"/><text fill="#000000" font-family="sans-serif" font-size="12" lengthAdjust="spacingAndGlyphs" textLength="181" x="171.25" y="380.9512">init_accept_HttpProxyServer()</text><polygon fill="#FEFECE" filter="url(#f9jzlw0ypdebc)" points="124.75,413.7813,398.75,413.7813,408.75,430.7656,398.75,447.75,124.75,447.75" style="stroke: #A80036; stroke-width: 1.5;"/><text fill="#000000" font-family="sans-serif" font-size="12" lengthAdjust="spacingAndGlyphs" textLength="254" x="134.75" y="434.9199">TS_EVENT_LIFECYCLE_PORTS_INITIALIZED</text><polygon fill="#FEFECE" filter="url(#f9jzlw0ypdebc)" points="230.75,482.75,292.75,482.75,304.75,494.75,292.75,506.75,230.75,506.75,218.75,494.75,230.75,482.75" style="stroke: #A80036; stroke-width: 1.5;"/><text fill="#000000" font-family="sans-serif" font-size="11" lengthAdjust="spacingAndGlyphs" textLength="62" x="230.75" y="498.5581">cache_wait</text><text fill="#000000" font-family="sans-serif" font-size="11" lengthAdjust="spacingAndGlyphs" textLength="33" x="185.75" y="492.1558">ready</text><text fill="#000000" font-family="sans-serif" font-size="11" lengthAdjust="spacingAndGlyphs" textLength="55" x="304.75" y="492.1558">not ready</text><rect fill="#FEFECE" filter="url(#f9jzlw0ypdebc)" height="33.9688" rx="12.5" ry="12.5" style="stroke: #A80036; stroke-width: 1.5;" width="163" x="73.5" y="516.75"/><text fill="#000000" font-family="sans-serif" font-size="12" lengthAdjust="spacingAndGlyphs" textLength="143" x="83.5" y="537.8887">start_HttpProxyServer()</text><polygon fill="#FEFECE" filter="url(#f9jzlw0ypdebc)" points="34,585.7188,276,585.7188,286,602.7031,276,619.6875,34,619.6875" style="stroke: #A80036; stroke-width: 1.5;"/><text fill="#000000" font-family="sans-serif" font-size="12" lengthAdjust="spacingAndGlyphs" textLength="222" x="44" y="606.8574">TS_EVENT_LIFECYCLE_PORTS_READY</text><rect fill="#FEFECE" filter="url(#f9jzlw0ypdebc)" height="33.9688" rx="12.5" ry="12.5" style="stroke: #A80036; stroke-width: 1.5;" width="145" x="296" y="516.75"/><text fill="#000000" font-family="sans-serif" font-size="12" lengthAdjust="spacingAndGlyphs" textLength="125" x="306" y="537.8887">cache_wait = waited</text><polygon fill="#FEFECE" filter="url(#f9jzlw0ypdebc)" points="261.75,625.6875,273.75,637.6875,261.75,649.6875,249.75,637.6875,261.75,625.6875" style="stroke: #A80036; stroke-width: 1.5;"/><rect fill="#FEFECE" filter="url(#f9jzlw0ypdebc)" height="33.9688" rx="12.5" ry="12.5" style="stroke: #A80036; stroke-width: 1.5;" width="150" x="186.75" y="669.6875"/><text fill="#000000" font-family="sans-serif" font-size="12" lengthAdjust="spacingAndGlyphs" textLength="130" x="196.75" y="690.8262">tasksProcessor.start()</text><rect fill="#FEFECE" filter="url(#f9jzlw0ypdebc)" height="33.9688" rx="12.5" ry="12.5" style="stroke: #A80036; stroke-width: 1.5;" width="133" x="652.5" y="359.8125"/><text fill="#000000" font-family="sans-serif" font-size="12" lengthAdjust="spacingAndGlyphs" textLength="113" x="662.5" y="380.9512">Cache Initialization</text><polygon fill="#FEFECE" filter="url(#f9jzlw0ypdebc)" points="681,413.7813,757,413.7813,769,425.7813,757,437.7813,681,437.7813,669,425.7813,681,413.7813" style="stroke: #A80036; stroke-width: 1.5;"/><text fill="#000000" font-family="sans-serif" font-size="11" lengthAdjust="spacingAndGlyphs" textLength="76" x="681" y="429.5894">cache_waited</text><text fill="#000000" font-family="sans-serif" font-size="11" lengthAdjust="spacingAndGlyphs" textLength="37" x="632" y="423.187">waited</text><text fill="#000000" font-family="sans-serif" font-size="11" lengthAdjust="spacingAndGlyphs" textLength="55" x="769" y="423.187">not ready</text><rect fill="#FEFECE" filter="url(#f9jzlw0ypdebc)" height="33.9688" rx="12.5" ry="12.5" style="stroke: #A80036; stroke-width: 1.5;" width="163" x="528.5" y="447.7813"/><text fill="#000000" font-family="sans-serif" font-size="12" lengthAdjust="spacingAndGlyphs" textLength="143" x="538.5" y="468.9199">start_HttpProxyServer()</text><polygon fill="#FEFECE" filter="url(#f9jzlw0ypdebc)" points="489,516.75,731,516.75,741,533.7344,731,550.7188,489,550.7188" style="stroke: #A80036; stroke-width: 1.5;"/><text fill="#000000" font-family="sans-serif" font-size="12" lengthAdjust="spacingAndGlyphs" textLength="222" x="499" y="537.8887">TS_EVENT_LIFECYCLE_PORTS_READY</text><rect fill="#FEFECE" filter="url(#f9jzlw0ypdebc)" height="33.9688" rx="12.5" ry="12.5" style="stroke: #A80036; stroke-width: 1.5;" width="154" x="751" y="447.7813"/><text fill="#000000" font-family="sans-serif" font-size="12" lengthAdjust="spacingAndGlyphs" textLength="134" x="761" y="468.9199">cache_waited = ready</text><polygon fill="#FEFECE" filter="url(#f9jzlw0ypdebc)" points="719,556.7188,731,568.7188,719,580.7188,707,568.7188,719,556.7188" style="stroke: #A80036; stroke-width: 1.5;"/><polygon fill="#FEFECE" filter="url(#f9jzlw0ypdebc)" points="597,615.7188,841,615.7188,851,632.7031,841,649.6875,597,649.6875" style="stroke: #A80036; stroke-width: 1.5;"/><text fill="#000000" font-family="sans-serif" font-size="12" lengthAdjust="spacingAndGlyphs" textLength="224" x="607" y="636.8574">TS_EVENT_LIFECYCLE_CACHE_READY</text><rect fill="#000000" filter="url(#f9jzlw0ypdebc)" height="6" rx="2.5" ry="2.5" style="stroke: #000000; stroke-width: 1.0;" width="919" x="10" y="723.6563"/><line style="stroke: #A80036; stroke-width: 1.5;" x1="469.5" x2="469.5" y1="43.9688" y2="63.9688"/><polygon fill="#A80036" points="465.5,53.9688,469.5,63.9688,473.5,53.9688,469.5,57.9688" style="stroke: #A80036; stroke-width: 1.0;"/><line style="stroke: #A80036; stroke-width: 1.5;" x1="469.5" x2="469.5" y1="97.9375" y2="117.9375"/><polygon fill="#A80036" points="465.5,107.9375,469.5,117.9375,473.5,107.9375,469.5,111.9375" style="stroke: #A80036; stroke-width: 1.0;"/><line style="stroke: #A80036; stroke-width: 1.5;" x1="469.5" x2="469.5" y1="151.9063" y2="171.9063"/><polygon fill="#A80036" points="465.5,161.9063,469.5,171.9063,473.5,161.9063,469.5,165.9063" style="stroke: #A80036; stroke-width: 1.0;"/><line style="stroke: #A80036; stroke-width: 1.5;" x1="469.5" x2="469.5" y1="205.875" y2="225.875"/><polygon fill="#A80036" points="465.5,215.875,469.5,225.875,473.5,215.875,469.5,219.875" style="stroke: #A80036; stroke-width: 1.0;"/><line style="stroke: #A80036; stroke-width: 1.5;" x1="261.75" x2="261.75" y1="339.8125" y2="359.8125"/><polygon fill="#A80036" points="257.75,349.8125,261.75,359.8125,265.75,349.8125,261.75,353.8125" style="stroke: #A80036; stroke-width: 1.0;"/><line style="stroke: #A80036; stroke-width: 1.5;" x1="261.75" x2="261.75" y1="393.7813" y2="413.7813"/><polygon fill="#A80036" points="257.75,403.7813,261.75,413.7813,265.75,403.7813,261.75,407.7813" style="stroke: #A80036; stroke-width: 1.0;"/><line style="stroke: #A80036; stroke-width: 1.5;" x1="155" x2="155" y1="550.7188" y2="585.7188"/><polygon fill="#A80036" points="151,575.7188,155,585.7188,159,575.7188,155,579.7188" style="stroke: #A80036; stroke-width: 1.0;"/><line style="stroke: #A80036; stroke-width: 1.5;" x1="218.75" x2="155" y1="494.75" y2="494.75"/><line style="stroke: #A80036; stroke-width: 1.5;" x1="155" x2="155" y1="494.75" y2="516.75"/><polygon fill="#A80036" points="151,506.75,155,516.75,159,506.75,155,510.75" style="stroke: #A80036; stroke-width: 1.0;"/><line style="stroke: #A80036; stroke-width: 1.5;" x1="304.75" x2="368.5" y1="494.75" y2="494.75"/><line style="stroke: #A80036; stroke-width: 1.5;" x1="368.5" x2="368.5" y1="494.75" y2="516.75"/><polygon fill="#A80036" points="364.5,506.75,368.5,516.75,372.5,506.75,368.5,510.75" style="stroke: #A80036; stroke-width: 1.0;"/><line style="stroke: #A80036; stroke-width: 1.5;" x1="155" x2="155" y1="619.6875" y2="637.6875"/><line style="stroke: #A80036; stroke-width: 1.5;" x1="155" x2="249.75" y1="637.6875" y2="637.6875"/><polygon fill="#A80036" points="239.75,633.6875,249.75,637.6875,239.75,641.6875,243.75,637.6875" style="stroke: #A80036; stroke-width: 1.0;"/><line style="stroke: #A80036; stroke-width: 1.5;" x1="368.5" x2="368.5" y1="550.7188" y2="637.6875"/><line style="stroke: #A80036; stroke-width: 1.5;" x1="368.5" x2="273.75" y1="637.6875" y2="637.6875"/><polygon fill="#A80036" points="283.75,633.6875,273.75,637.6875,283.75,641.6875,279.75,637.6875" style="stroke: #A80036; stroke-width: 1.0;"/><line style="stroke: #A80036; stroke-width: 1.5;" x1="261.75" x2="261.75" y1="447.75" y2="482.75"/><polygon fill="#A80036" points="257.75,472.75,261.75,482.75,265.75,472.75,261.75,476.75" style="stroke: #A80036; stroke-width: 1.0;"/><line style="stroke: #A80036; stroke-width: 1.5;" x1="261.75" x2="261.75" y1="649.6875" y2="669.6875"/><polygon fill="#A80036" points="257.75,659.6875,261.75,669.6875,265.75,659.6875,261.75,663.6875" style="stroke: #A80036; stroke-width: 1.0;"/><line style="stroke: #A80036; stroke-width: 1.5;" x1="610" x2="610" y1="481.75" y2="516.75"/><polygon fill="#A80036" points="606,506.75,610,516.75,614,506.75,610,510.75" style="stroke: #A80036; stroke-width: 1.0;"/><line style="stroke: #A80036; stroke-width: 1.5;" x1="669" x2="610" y1="425.7813" y2="425.7813"/><line style="stroke: #A80036; stroke-width: 1.5;" x1="610" x2="610" y1="425.7813" y2="447.7813"/><polygon fill="#A80036" points="606,437.7813,610,447.7813,614,437.7813,610,441.7813" style="stroke: #A80036; stroke-width: 1.0;"/><line style="stroke: #A80036; stroke-width: 1.5;" x1="769" x2="828" y1="425.7813" y2="425.7813"/><line style="stroke: #A80036; stroke-width: 1.5;" x1="828" x2="828" y1="425.7813" y2="447.7813"/><polygon fill="#A80036" points="824,437.7813,828,447.7813,832,437.7813,828,441.7813" style="stroke: #A80036; stroke-width: 1.0;"/><line style="stroke: #A80036; stroke-width: 1.5;" x1="610" x2="610" y1="550.7188" y2="568.7188"/><line style="stroke: #A80036; stroke-width: 1.5;" x1="610" x2="707" y1="568.7188" y2="568.7188"/><polygon fill="#A80036" points="697,564.7188,707,568.7188,697,572.7188,701,568.7188" style="stroke: #A80036; stroke-width: 1.0;"/><line style="stroke: #A80036; stroke-width: 1.5;" x1="828" x2="828" y1="481.75" y2="568.7188"/><line style="stroke: #A80036; stroke-width: 1.5;" x1="828" x2="731" y1="568.7188" y2="568.7188"/><polygon fill="#A80036" points="741,564.7188,731,568.7188,741,572.7188,737,568.7188" style="stroke: #A80036; stroke-width: 1.0;"/><line style="stroke: #A80036; stroke-width: 1.5;" x1="719" x2="719" y1="393.7813" y2="413.7813"/><polygon fill="#A80036" points="715,403.7813,719,413.7813,723,403.7813,719,407.7813" style="stroke: #A80036; stroke-width: 1.0;"/><line style="stroke: #A80036; stroke-width: 1.5;" x1="719" x2="719" y1="580.7188" y2="615.7188"/><polygon fill="#A80036" points="715,605.7188,719,615.7188,723,605.7188,719,609.7188" style="stroke: #A80036; stroke-width: 1.0;"/><line style="stroke: #A80036; stroke-width: 1.5;" x1="261.75" x2="261.75" y1="285.8438" y2="305.8438"/><polygon fill="#A80036" points="257.75,295.8438,261.75,305.8438,265.75,295.8438,261.75,299.8438" style="stroke: #A80036; stroke-width: 1.0;"/><line style="stroke: #A80036; stroke-width: 1.5;" x1="719" x2="719" y1="285.8438" y2="359.8125"/><polygon fill="#A80036" points="715,349.8125,719,359.8125,723,349.8125,719,353.8125" style="stroke: #A80036; stroke-width: 1.0;"/><line style="stroke: #A80036; stroke-width: 1.5;" x1="261.75" x2="261.75" y1="703.6563" y2="723.6563"/><polygon fill="#A80036" points="257.75,713.6563,261.75,723.6563,265.75,713.6563,261.75,717.6563" style="stroke: #A80036; stroke-width: 1.0;"/><line style="stroke: #A80036; stroke-width: 1.5;" x1="719" x2="719" y1="649.6875" y2="723.6563"/><polygon fill="#A80036" points="715,713.6563,719,723.6563,723,713.6563,719,717.6563" style="stroke: #A80036; stroke-width: 1.0;"/><line style="stroke: #A80036; stroke-width: 1.5;" x1="469.5" x2="469.5" y1="259.8438" y2="279.8438"/><polygon fill="#A80036" points="465.5,269.8438,469.5,279.8438,473.5,269.8438,469.5,273.8438" style="stroke: #A80036; stroke-width: 1.0;"/><!--
@startuml

:netProcessor.init();
:init_HttpProxyServer();
:eventProcessor::start();
note right: ET_NET threads start here
:plugin_init();
note right: Global plugin initialization
:cacheProcessor.start();
fork
:udpNet::start();
:init_accept_HttpProxyServer();
:TS_EVENT_LIFECYCLE_PORTS_INITIALIZED>
if (cache_wait) then (ready)
:start_HttpProxyServer();
:TS_EVENT_LIFECYCLE_PORTS_READY>
else (not ready)
:cache_wait = waited;
endif
:tasksProcessor.start();
fork again
:Cache Initialization;
if (cache_waited) then (waited)
:start_HttpProxyServer();
:TS_EVENT_LIFECYCLE_PORTS_READY>
else (not ready)
:cache_waited = ready;
endif
:TS_EVENT_LIFECYCLE_CACHE_READY>
end fork
@enduml

PlantUML version 1.2018.01(Sun Jan 28 12:08:22 CST 2018)
(APACHE source distribution)
Java Runtime: OpenJDK Runtime Environment
JVM: OpenJDK 64-Bit Server VM
Java Version: 1.8.0_181-b15
Operating System: Linux
OS Version: 4.18.12-200.fc28.x86_64
Default Encoding: UTF-8
Language: en
Country: US
--></g></svg>