<?xml version="1.0" encoding="UTF-8" standalone="no"?><svg xmlns="http://www.w3.org/2000/svg" xmlns:xlink="http://www.w3.org/1999/xlink" contentScriptType="application/ecmascript" contentStyleType="text/css" height="451px" preserveAspectRatio="none" style="width:600px;height:451px;" version="1.1" viewBox="0 0 600 451" width="600px" zoomAndPan="magnify"><defs><filter height="300%" id="foqrp3dhsrjol" width="300%" x="-1" y="-1"><feGaussianBlur result="blurOut" stdDeviation="2.0"/><feColorMatrix in="blurOut" result="blurOut2" type="matrix" values="0 0 0 0 0 0 0 0 0 0 0 0 0 0 0 0 0 0 .4 0"/><feOffset dx="4.0" dy="4.0" in="blurOut2" result="blurOut3"/><feBlend in="SourceGraphic" in2="blurOut3" mode="normal"/></filter></defs><g><!--class CacheProcessor--><rect fill="#FEFECE" filter="url(#foqrp3dhsrjol)" height="32" id="CacheProcessor" style="stroke: #A80036; stroke-width: 1.5;" width="134" x="207.5" y="8"/><ellipse cx="222.5" cy="24" fill="#ADD1B2" rx="11" ry="11" style="stroke: #A80036; stroke-width: 1.0;"/><path d="M225.4688,29.6406 Q224.8906,29.9375 224.25,30.0781 Q223.6094,30.2344 222.9063,30.2344 Q220.4063,30.2344 219.0781,28.5938 Q217.7656,26.9375 217.7656,23.8125 Q217.7656,20.6875 219.0781,19.0313 Q220.4063,17.375 222.9063,17.375 Q223.6094,17.375 224.25,17.5313 Q224.9063,17.6875 225.4688,17.9844 L225.4688,20.7031 Q224.8438,20.125 224.25,19.8594 Q223.6563,19.5781 223.0313,19.5781 Q221.6875,19.5781 221,20.6563 Q220.3125,21.7188 220.3125,23.8125 Q220.3125,25.9063 221,26.9844 Q221.6875,28.0469 223.0313,28.0469 Q223.6563,28.0469 224.25,27.7813 Q224.8438,27.5 225.4688,26.9219 L225.4688,29.6406 Z "/><text fill="#000000" font-family="sans-serif" font-size="12" lengthAdjust="spacingAndGlyphs" textLength="102" x="236.5" y="28.1543">CacheProcessor</text><!--class DiskInit--><rect fill="#FEFECE" filter="url(#foqrp3dhsrjol)" height="32" id="DiskInit" style="stroke: #A80036; stroke-width: 1.5;" width="77" x="72" y="117"/><ellipse cx="87" cy="133" fill="#ADD1B2" rx="11" ry="11" style="stroke: #A80036; stroke-width: 1.0;"/><path d="M89.9688,138.6406 Q89.3906,138.9375 88.75,139.0781 Q88.1094,139.2344 87.4063,139.2344 Q84.9063,139.2344 83.5781,137.5938 Q82.2656,135.9375 82.2656,132.8125 Q82.2656,129.6875 83.5781,128.0313 Q84.9063,126.375 87.4063,126.375 Q88.1094,126.375 88.75,126.5313 Q89.4063,126.6875 89.9688,126.9844 L89.9688,129.7031 Q89.3438,129.125 88.75,128.8594 Q88.1563,128.5781 87.5313,128.5781 Q86.1875,128.5781 85.5,129.6563 Q84.8125,130.7188 84.8125,132.8125 Q84.8125,134.9063 85.5,135.9844 Q86.1875,137.0469 87.5313,137.0469 Q88.1563,137.0469 88.75,136.7813 Q89.3438,136.5 89.9688,135.9219 L89.9688,138.6406 Z "/><text fill="#000000" font-family="sans-serif" font-size="12" lengthAdjust="spacingAndGlyphs" textLength="45" x="101" y="137.1543">DiskInit</text><!--class CacheDisk--><rect fill="#FEFECE" filter="url(#foqrp3dhsrjol)" height="32" id="CacheDisk" style="stroke: #A80036; stroke-width: 1.5;" width="97" x="6" y="282"/><ellipse cx="21" cy="298" fill="#ADD1B2" rx="11" ry="11" style="stroke: #A80036; stroke-width: 1.0;"/><path d="M23.9688,303.6406 Q23.3906,303.9375 22.75,304.0781 Q22.1094,304.2344 21.4063,304.2344 Q18.9063,304.2344 17.5781,302.5938 Q16.2656,300.9375 16.2656,297.8125 Q16.2656,294.6875 17.5781,293.0313 Q18.9063,291.375 21.4063,291.375 Q22.1094,291.375 22.75,291.5313 Q23.4063,291.6875 23.9688,291.9844 L23.9688,294.7031 Q23.3438,294.125 22.75,293.8594 Q22.1563,293.5781 21.5313,293.5781 Q20.1875,293.5781 19.5,294.6563 Q18.8125,295.7188 18.8125,297.8125 Q18.8125,299.9063 19.5,300.9844 Q20.1875,302.0469 21.5313,302.0469 Q22.1563,302.0469 22.75,301.7813 Q23.3438,301.5 23.9688,300.9219 L23.9688,303.6406 Z "/><text fill="#000000" font-family="sans-serif" font-size="12" lengthAdjust="spacingAndGlyphs" textLength="65" x="35" y="302.1543">CacheDisk</text><!--class VolInit--><rect fill="#FEFECE" filter="url(#foqrp3dhsrjol)" height="32" id="VolInit" style="stroke: #A80036; stroke-width: 1.5;" width="70" x="459.5" y="282"/><ellipse cx="474.5" cy="298" fill="#ADD1B2" rx="11" ry="11" style="stroke: #A80036; stroke-width: 1.0;"/><path d="M477.4688,303.6406 Q476.8906,303.9375 476.25,304.0781 Q475.6094,304.2344 474.9063,304.2344 Q472.4063,304.2344 471.0781,302.5938 Q469.7656,300.9375 469.7656,297.8125 Q469.7656,294.6875 471.0781,293.0313 Q472.4063,291.375 474.9063,291.375 Q475.6094,291.375 476.25,291.5313 Q476.9063,291.6875 477.4688,291.9844 L477.4688,294.7031 Q476.8438,294.125 476.25,293.8594 Q475.6563,293.5781 475.0313,293.5781 Q473.6875,293.5781 473,294.6563 Q472.3125,295.7188 472.3125,297.8125 Q472.3125,299.9063 473,300.9844 Q473.6875,302.0469 475.0313,302.0469 Q475.6563,302.0469 476.25,301.7813 Q476.8438,301.5 477.4688,300.9219 L477.4688,303.6406 Z "/><text fill="#000000" font-family="sans-serif" font-size="12" lengthAdjust="spacingAndGlyphs" textLength="38" x="488.5" y="302.1543">VolInit</text><!--class Vol--><rect fill="#FEFECE" filter="url(#foqrp3dhsrjol)" height="32" id="Vol" style="stroke: #A80036; stroke-width: 1.5;" width="51" x="469" y="408"/><ellipse cx="484" cy="424" fill="#ADD1B2" rx="11" ry="11" style="stroke: #A80036; stroke-width: 1.0;"/><path d="M486.9688,429.6406 Q486.3906,429.9375 485.75,430.0781 Q485.1094,430.2344 484.4063,430.2344 Q481.9063,430.2344 480.5781,428.5938 Q479.2656,426.9375 479.2656,423.8125 Q479.2656,420.6875 480.5781,419.0313 Q481.9063,417.375 484.4063,417.375 Q485.1094,417.375 485.75,417.5313 Q486.4063,417.6875 486.9688,417.9844 L486.9688,420.7031 Q486.3438,420.125 485.75,419.8594 Q485.1563,419.5781 484.5313,419.5781 Q483.1875,419.5781 482.5,420.6563 Q481.8125,421.7188 481.8125,423.8125 Q481.8125,425.9063 482.5,426.9844 Q483.1875,428.0469 484.5313,428.0469 Q485.1563,428.0469 485.75,427.7813 Q486.3438,427.5 486.9688,426.9219 L486.9688,429.6406 Z "/><text fill="#000000" font-family="sans-serif" font-size="12" lengthAdjust="spacingAndGlyphs" textLength="19" x="498" y="428.1543">Vol</text><!--class Cache--><rect fill="#FEFECE" filter="url(#foqrp3dhsrjol)" height="32" id="Cache" style="stroke: #A80036; stroke-width: 1.5;" width="71" x="443" y="117"/><ellipse cx="458" cy="133" fill="#ADD1B2" rx="11" ry="11" style="stroke: #A80036; stroke-width: 1.0;"/><path d="M460.9688,138.6406 Q460.3906,138.9375 459.75,139.0781 Q459.1094,139.2344 458.4063,139.2344 Q455.9063,139.2344 454.5781,137.5938 Q453.2656,135.9375 453.2656,132.8125 Q453.2656,129.6875 454.5781,128.0313 Q455.9063,126.375 458.4063,126.375 Q459.1094,126.375 459.75,126.5313 Q460.4063,126.6875 460.9688,126.9844 L460.9688,129.7031 Q460.3438,129.125 459.75,128.8594 Q459.1563,128.5781 458.5313,128.5781 Q457.1875,128.5781 456.5,129.6563 Q455.8125,130.7188 455.8125,132.8125 Q455.8125,134.9063 456.5,135.9844 Q457.1875,137.0469 458.5313,137.0469 Q459.1563,137.0469 459.75,136.7813 Q460.3438,136.5 460.9688,135.9219 L460.9688,138.6406 Z "/><text fill="#000000" font-family="sans-serif" font-size="12" lengthAdjust="spacingAndGlyphs" textLength="39" x="472" y="137.1543">Cache</text><!--link CacheProcessor to DiskInit--><path d="M250.3012,40.0833 C220.7478,59.7256 170.8136,92.9135 139.3081,113.8532 " fill="none" id="CacheProcessor-DiskInit" style="stroke: #A80036; stroke-width: 1.0;"/><polygon fill="#A80036" points="134.798,116.8507,144.5076,115.2003,138.9622,114.0831,140.0794,108.5376,134.798,116.8507" style="stroke: #A80036; stroke-width: 1.0;"/><text fill="#000000" font-family="sans-serif" font-size="13" font-style="italic" lengthAdjust="spacingAndGlyphs" textLength="41" x="203.5" y="83.0669">create</text><!--link DiskInit to CacheDisk--><path d="M79.6921,149.1293 C68.6954,156.6158 57.5416,166.6287 51.5,179 C36.1754,210.3799 42.3888,252.1823 48.3837,276.9754 " fill="none" id="DiskInit-CacheDisk" style="stroke: #A80036; stroke-width: 1.0;"/><polygon fill="#A80036" points="49.6518,281.9979,51.3266,272.2925,48.4277,277.1501,43.5701,274.2511,49.6518,281.9979" style="stroke: #A80036; stroke-width: 1.0;"/><text fill="#000000" font-family="sans-serif" font-size="13" lengthAdjust="spacingAndGlyphs" textLength="64" x="118" y="192.0669">[1] open()</text><path d="M56.5,201.1328 L56.5,226.1328 L239.5,226.1328 L239.5,211.1328 L229.5,201.1328 L56.5,201.1328 " fill="#FBFB77" filter="url(#foqrp3dhsrjol)" style="stroke: #A80036; stroke-width: 1.0;"/><path d="M229.5,201.1328 L229.5,211.1328 L239.5,211.1328 L229.5,201.1328 " fill="#FBFB77" style="stroke: #A80036; stroke-width: 1.0;"/><text fill="#000000" font-family="sans-serif" font-size="13" lengthAdjust="spacingAndGlyphs" textLength="162" x="62.5" y="218.1997">Start I/O for Span Header</text><!--link CacheDisk to CacheDisk--><path d="M103.3876,291.4631 C122.2894,291.1726 138,293.3516 138,298 C138,302.2126 125.097,304.3971 108.6092,304.5535 " fill="none" id="CacheDisk-CacheDisk" style="stroke: #A80036; stroke-width: 1.0;"/><polygon fill="#A80036" points="103.3876,304.5369,112.3748,308.5657,108.3876,304.5529,112.4004,300.5657,103.3876,304.5369" style="stroke: #A80036; stroke-width: 1.0;"/><text fill="#000000" font-family="sans-serif" font-size="13" lengthAdjust="spacingAndGlyphs" textLength="96" x="177.5" y="283.0669">[2] openStart()</text><path d="M143,297.1328 L143,322.1328 L304,322.1328 L304,307.1328 L294,297.1328 L143,297.1328 " fill="#FBFB77" filter="url(#foqrp3dhsrjol)" style="stroke: #A80036; stroke-width: 1.0;"/><path d="M294,297.1328 L294,307.1328 L304,307.1328 L294,297.1328 " fill="#FBFB77" style="stroke: #A80036; stroke-width: 1.0;"/><text fill="#000000" font-family="sans-serif" font-size="13" lengthAdjust="spacingAndGlyphs" textLength="140" x="149" y="314.1997">Validate Span Header</text><!--link CacheDisk to CacheDisk--><path d="M103.1825,288.9133 C180.6663,281.3676 313,284.3965 313,298 C313,311.3113 186.2915,314.4974 108.2507,307.5584 " fill="none" id="CacheDisk-CacheDisk" style="stroke: #A80036; stroke-width: 1.0;"/><polygon fill="#A80036" points="103.1825,307.0867,111.773,311.9037,108.161,307.5501,112.5145,303.9381,103.1825,307.0867" style="stroke: #A80036; stroke-width: 1.0;"/><text fill="#000000" font-family="sans-serif" font-size="13" lengthAdjust="spacingAndGlyphs" textLength="98" x="319" y="302.5669">[3] openDone()</text><!--link CacheDisk to CacheProcessor--><path d="M103.2285,288.8227 C155.4869,277.9332 233.5395,258.2884 252.5,235 C297.6572,179.5353 286.964,86.8026 279.1685,45.2589 " fill="none" id="CacheDisk-CacheProcessor" style="stroke: #A80036; stroke-width: 1.0;"/><polygon fill="#A80036" points="278.1888,40.2162,275.9789,49.8139,279.1425,45.1244,283.832,48.288,278.1888,40.2162" style="stroke: #A80036; stroke-width: 1.0;"/><text fill="#000000" font-family="sans-serif" font-size="13" lengthAdjust="spacingAndGlyphs" textLength="116" x="287.5" y="137.5669">[4] diskInitialized()</text><!--link CacheProcessor to Cache--><path d="M304.6009,40.0833 C341.6638,59.8866 404.4957,93.4585 443.6246,114.3656 " fill="none" id="CacheProcessor-Cache" style="stroke: #A80036; stroke-width: 1.0;"/><polygon fill="#A80036" points="448.2756,116.8507,442.2227,109.0814,443.8656,114.4944,438.4526,116.1374,448.2756,116.8507" style="stroke: #A80036; stroke-width: 1.0;"/><text fill="#000000" font-family="sans-serif" font-size="13" lengthAdjust="spacingAndGlyphs" textLength="64" x="389.5" y="83.0669">[5] open()</text><!--link Cache to VolInit--><path d="M480.0633,149.1213 C482.9593,178.9867 489.159,242.921 492.411,276.4573 " fill="none" id="Cache-VolInit" style="stroke: #A80036; stroke-width: 1.0;"/><polygon fill="#A80036" points="492.9067,281.5688,496.0191,272.2247,492.424,276.5922,488.0565,272.997,492.9067,281.5688" style="stroke: #A80036; stroke-width: 1.0;"/><text fill="#000000" font-family="sans-serif" font-size="13" lengthAdjust="spacingAndGlyphs" textLength="100" x="488.5" y="211.5669">[6] mainEvent()</text><!--link VolInit to Vol--><path d="M494.5,314.2143 C494.5,336.8014 494.5,377.7694 494.5,402.7682 " fill="none" id="VolInit-Vol" style="stroke: #A80036; stroke-width: 1.0;"/><polygon fill="#A80036" points="494.5,407.8479,498.5,398.8479,494.5,402.8479,490.5,398.8479,494.5,407.8479" style="stroke: #A80036; stroke-width: 1.0;"/><text fill="#000000" font-family="sans-serif" font-size="13" lengthAdjust="spacingAndGlyphs" textLength="51" x="495.5" y="374.0669">[7] init()</text><!--
@startuml
hide empty members
hide empty methods
skinparam defaultTextAlignment left

class CacheProcessor
class DiskInit
class CacheDisk
class VolInit
class Vol

CacheProcessor - -> DiskInit : //create//
DiskInit - -> CacheDisk : [1] open()
note on link : Start I/O for Span Header
CacheDisk - -> CacheDisk : [2] openStart()
note on link : Validate Span Header
CacheDisk -d-> CacheDisk : [3] openDone()
CacheDisk - -> CacheProcessor : [4] diskInitialized()

CacheProcessor - -> Cache : [5] open()
Cache - -> VolInit : [6] mainEvent()
VolInit - -> Vol : [7] init()

@enduml

PlantUML version 1.2018.01(Sun Jan 28 12:08:22 CST 2018)
(APACHE source distribution)
Java Runtime: OpenJDK Runtime Environment
JVM: OpenJDK 64-Bit Server VM
Java Version: 11-ea+28
Operating System: Linux
OS Version: 5.0.7-200.fc29.x86_64
Default Encoding: UTF-8
Language: en
Country: US
--></g></svg>