<?xml version="1.0" encoding="UTF-8" standalone="no"?><svg xmlns="http://www.w3.org/2000/svg" xmlns:xlink="http://www.w3.org/1999/xlink" contentScriptType="application/ecmascript" contentStyleType="text/css" height="101px" preserveAspectRatio="none" style="width:359px;height:101px;" version="1.1" viewBox="0 0 359 101" width="359px" zoomAndPan="magnify"><defs><filter height="300%" id="f1ais3xuvl82el" width="300%" x="-1" y="-1"><feGaussianBlur result="blurOut" stdDeviation="2.0"/><feColorMatrix in="blurOut" result="blurOut2" type="matrix" values="0 0 0 0 0 0 0 0 0 0 0 0 0 0 0 0 0 0 .4 0"/><feOffset dx="4.0" dy="4.0" in="blurOut2" result="blurOut3"/><feBlend in="SourceGraphic" in2="blurOut3" mode="normal"/></filter></defs><g><!--MD5=[7dba778accb06d0be5db53cb6f17f7df]
entity Cloud--><path d="M89.6329,36.4305 C93.3335,29.7172 98.0649,28.2542 103.7605,34.2049 C107.1253,27.4618 111.8341,27.8561 116.6626,32.5545 C121.9484,26.1787 127.7946,26.1056 131.1981,34.4173 C136.397,28.1886 140.8876,30.0601 144.1746,36.3925 C151.5075,40.3201 152.1815,45.0168 145.8279,50.5435 C152.8077,56.4084 151.7195,62.5983 143.7449,66.5126 C139.8772,72.8297 134.1044,73.3377 130.1302,66.6239 C126.6879,74.6186 120.5191,73.9876 115.8687,67.8424 C112.038,74.5348 106.719,74.0163 102.6713,68.069 C97.1508,72.9921 92.7428,73.3565 88.9635,66.108 C81.5153,62.6599 82.152,55.9582 87.7001,51.3941 C80.7547,45.778 82.9379,40.2847 89.6329,36.4305 " fill="#FEFECE" style="stroke: #000000; stroke-width: 1.5;"/><text fill="#000000" font-family="sans-serif" font-size="14" lengthAdjust="spacingAndGlyphs" textLength="40" x="95.5" y="54.4951">Cloud</text><!--MD5=[0ba5ee7700168656dc1b457c6fe9fdac]
entity Client--><ellipse cx="25.5" cy="18" fill="#FEFECE" filter="url(#f1ais3xuvl82el)" rx="8" ry="8" style="stroke: #A80036; stroke-width: 2.0;"/><path d="M25.5,26 L25.5,53 M12.5,34 L38.5,34 M25.5,53 L12.5,68 M25.5,53 L38.5,68 " fill="none" filter="url(#f1ais3xuvl82el)" style="stroke: #A80036; stroke-width: 2.0;"/><text fill="#000000" font-family="sans-serif" font-size="14" lengthAdjust="spacingAndGlyphs" textLength="39" x="6" y="87.9951">Client</text><!--MD5=[7434fc19771e0f66f8659a4e95695800]
entity Proxy--><rect fill="#FEFECE" filter="url(#f1ais3xuvl82el)" height="36.2969" style="stroke: #A80036; stroke-width: 1.5;" width="57" x="186" y="31.5"/><rect fill="#FEFECE" height="5" style="stroke: #A80036; stroke-width: 1.5;" width="10" x="181" y="36.5"/><rect fill="#FEFECE" height="5" style="stroke: #A80036; stroke-width: 1.5;" width="10" x="181" y="57.7969"/><text fill="#000000" font-family="sans-serif" font-size="14" lengthAdjust="spacingAndGlyphs" textLength="37" x="196" y="54.4951">Proxy</text><!--MD5=[17737e49c286898813382e12d6080e03]
entity Service--><rect fill="#FEFECE" filter="url(#f1ais3xuvl82el)" height="36.2969" style="stroke: #A80036; stroke-width: 1.5;" width="70" x="278.5" y="31.5"/><rect fill="#FEFECE" height="5" style="stroke: #A80036; stroke-width: 1.5;" width="10" x="273.5" y="36.5"/><rect fill="#FEFECE" height="5" style="stroke: #A80036; stroke-width: 1.5;" width="10" x="273.5" y="57.7969"/><text fill="#000000" font-family="sans-serif" font-size="14" lengthAdjust="spacingAndGlyphs" textLength="50" x="288.5" y="54.4951">Service</text><!--MD5=[68fbe75f116d8864df2981cf347bcdae]
link Client to Cloud--><path d="M50.406,49.5 C58.6701,49.5 66.9341,49.5 75.1982,49.5 " fill="none" id="Client-Cloud" style="stroke: #A80036; stroke-width: 1.0;"/><polygon fill="#A80036" points="80.3438,49.5,71.3438,45.5,75.3438,49.5,71.3438,53.5,80.3438,49.5" style="stroke: #A80036; stroke-width: 1.0;"/><polygon fill="#A80036" points="45.1875,49.5,54.1875,53.5,50.1875,49.5,54.1875,45.5,45.1875,49.5" style="stroke: #A80036; stroke-width: 1.0;"/><!--MD5=[c365f3037990bf5500d418b2d9428ede]
link Cloud to Proxy--><path d="M155.8712,49.5 C164.0739,49.5 172.2766,49.5 180.4794,49.5 " fill="none" id="Cloud-Proxy" style="stroke: #A80036; stroke-width: 1.0;"/><polygon fill="#A80036" points="185.5867,49.5,176.5867,45.5,180.5867,49.5,176.5867,53.5,185.5867,49.5" style="stroke: #A80036; stroke-width: 1.0;"/><polygon fill="#A80036" points="150.6914,49.5,159.6914,53.5,155.6914,49.5,159.6914,45.5,150.6914,49.5" style="stroke: #A80036; stroke-width: 1.0;"/><!--MD5=[c06e0f4d3fead846c1ea49320ee3970f]
link Proxy to Service--><path d="M248.3409,49.5 C256.6132,49.5 264.8856,49.5 273.1579,49.5 " fill="none" id="Proxy-Service" style="stroke: #A80036; stroke-width: 1.0;"/><polygon fill="#A80036" points="278.3086,49.5,269.3086,45.5,273.3086,49.5,269.3086,53.5,278.3086,49.5" style="stroke: #A80036; stroke-width: 1.0;"/><polygon fill="#A80036" points="243.1172,49.5,252.1172,53.5,248.1172,49.5,252.1172,45.5,243.1172,49.5" style="stroke: #A80036; stroke-width: 1.0;"/><!--MD5=[667778d0b86f62b432b759ab2eace4e2]
@startuml
hide empty members
cloud Cloud
actor Client

[Client] <-> [Cloud]
[Cloud] <-> [Proxy]
[Proxy] <-> [Service]

@enduml

PlantUML version 1.2019.11(Sun Sep 22 05:02:15 CDT 2019)
(GPL source distribution)
Java Runtime: OpenJDK Runtime Environment
JVM: OpenJDK 64-Bit Server VM
Java Version: 1.8.0_222-b10
Operating System: Linux
Default Encoding: UTF-8
Language: en
Country: US
--></g></svg>