<?xml version="1.0" encoding="UTF-8" standalone="no"?><svg xmlns="http://www.w3.org/2000/svg" xmlns:xlink="http://www.w3.org/1999/xlink" contentScriptType="application/ecmascript" contentStyleType="text/css" height="451px" preserveAspectRatio="none" style="width:602px;height:451px;" version="1.1" viewBox="0 0 602 451" width="602px" zoomAndPan="magnify"><defs><filter height="300%" id="flt9bg7v1e63i" width="300%" x="-1" y="-1"><feGaussianBlur result="blurOut" stdDeviation="2.0"/><feColorMatrix in="blurOut" result="blurOut2" type="matrix" values="0 0 0 0 0 0 0 0 0 0 0 0 0 0 0 0 0 0 .4 0"/><feOffset dx="4.0" dy="4.0" in="blurOut2" result="blurOut3"/><feBlend in="SourceGraphic" in2="blurOut3" mode="normal"/></filter></defs><g><!--class CacheProcessor--><rect fill="#FEFECE" filter="url(#flt9bg7v1e63i)" height="32" id="CacheProcessor" style="stroke: #A80036; stroke-width: 1.5;" width="126" x="210" y="8"/><ellipse cx="225" cy="24" fill="#ADD1B2" rx="11" ry="11" style="stroke: #A80036; stroke-width: 1.0;"/><path d="M227.9688,29.6406 Q227.3906,29.9375 226.75,30.0859 Q226.1094,30.2344 225.4063,30.2344 Q222.9063,30.2344 221.5859,28.5859 Q220.2656,26.9375 220.2656,23.8125 Q220.2656,20.6875 221.5859,19.0313 Q222.9063,17.375 225.4063,17.375 Q226.1094,17.375 226.7578,17.5313 Q227.4063,17.6875 227.9688,17.9844 L227.9688,20.7031 Q227.3438,20.125 226.75,19.8516 Q226.1563,19.5781 225.5313,19.5781 Q224.1875,19.5781 223.5,20.6484 Q222.8125,21.7188 222.8125,23.8125 Q222.8125,25.9063 223.5,26.9766 Q224.1875,28.0469 225.5313,28.0469 Q226.1563,28.0469 226.75,27.7734 Q227.3438,27.5 227.9688,26.9219 L227.9688,29.6406 Z "/><text fill="#000000" font-family="sans-serif" font-size="12" lengthAdjust="spacingAndGlyphs" textLength="94" x="239" y="28.1543">CacheProcessor</text><!--class DiskInit--><rect fill="#FEFECE" filter="url(#flt9bg7v1e63i)" height="32" id="DiskInit" style="stroke: #A80036; stroke-width: 1.5;" width="77" x="70.5" y="117"/><ellipse cx="85.5" cy="133" fill="#ADD1B2" rx="11" ry="11" style="stroke: #A80036; stroke-width: 1.0;"/><path d="M88.4688,138.6406 Q87.8906,138.9375 87.25,139.0859 Q86.6094,139.2344 85.9063,139.2344 Q83.4063,139.2344 82.0859,137.5859 Q80.7656,135.9375 80.7656,132.8125 Q80.7656,129.6875 82.0859,128.0313 Q83.4063,126.375 85.9063,126.375 Q86.6094,126.375 87.2578,126.5313 Q87.9063,126.6875 88.4688,126.9844 L88.4688,129.7031 Q87.8438,129.125 87.25,128.8516 Q86.6563,128.5781 86.0313,128.5781 Q84.6875,128.5781 84,129.6484 Q83.3125,130.7188 83.3125,132.8125 Q83.3125,134.9063 84,135.9766 Q84.6875,137.0469 86.0313,137.0469 Q86.6563,137.0469 87.25,136.7734 Q87.8438,136.5 88.4688,135.9219 L88.4688,138.6406 Z "/><text fill="#000000" font-family="sans-serif" font-size="12" lengthAdjust="spacingAndGlyphs" textLength="45" x="99.5" y="137.1543">DiskInit</text><!--class CacheDisk--><rect fill="#FEFECE" filter="url(#flt9bg7v1e63i)" height="32" id="CacheDisk" style="stroke: #A80036; stroke-width: 1.5;" width="94" x="6" y="282"/><ellipse cx="21" cy="298" fill="#ADD1B2" rx="11" ry="11" style="stroke: #A80036; stroke-width: 1.0;"/><path d="M23.9688,303.6406 Q23.3906,303.9375 22.75,304.0859 Q22.1094,304.2344 21.4063,304.2344 Q18.9063,304.2344 17.5859,302.5859 Q16.2656,300.9375 16.2656,297.8125 Q16.2656,294.6875 17.5859,293.0313 Q18.9063,291.375 21.4063,291.375 Q22.1094,291.375 22.7578,291.5313 Q23.4063,291.6875 23.9688,291.9844 L23.9688,294.7031 Q23.3438,294.125 22.75,293.8516 Q22.1563,293.5781 21.5313,293.5781 Q20.1875,293.5781 19.5,294.6484 Q18.8125,295.7188 18.8125,297.8125 Q18.8125,299.9063 19.5,300.9766 Q20.1875,302.0469 21.5313,302.0469 Q22.1563,302.0469 22.75,301.7734 Q23.3438,301.5 23.9688,300.9219 L23.9688,303.6406 Z "/><text fill="#000000" font-family="sans-serif" font-size="12" lengthAdjust="spacingAndGlyphs" textLength="62" x="35" y="302.1543">CacheDisk</text><!--class VolInit--><rect fill="#FEFECE" filter="url(#flt9bg7v1e63i)" height="32" id="VolInit" style="stroke: #A80036; stroke-width: 1.5;" width="70" x="457" y="282"/><ellipse cx="472" cy="298" fill="#ADD1B2" rx="11" ry="11" style="stroke: #A80036; stroke-width: 1.0;"/><path d="M474.9688,303.6406 Q474.3906,303.9375 473.75,304.0859 Q473.1094,304.2344 472.4063,304.2344 Q469.9063,304.2344 468.5859,302.5859 Q467.2656,300.9375 467.2656,297.8125 Q467.2656,294.6875 468.5859,293.0313 Q469.9063,291.375 472.4063,291.375 Q473.1094,291.375 473.7578,291.5313 Q474.4063,291.6875 474.9688,291.9844 L474.9688,294.7031 Q474.3438,294.125 473.75,293.8516 Q473.1563,293.5781 472.5313,293.5781 Q471.1875,293.5781 470.5,294.6484 Q469.8125,295.7188 469.8125,297.8125 Q469.8125,299.9063 470.5,300.9766 Q471.1875,302.0469 472.5313,302.0469 Q473.1563,302.0469 473.75,301.7734 Q474.3438,301.5 474.9688,300.9219 L474.9688,303.6406 Z "/><text fill="#000000" font-family="sans-serif" font-size="12" lengthAdjust="spacingAndGlyphs" textLength="38" x="486" y="302.1543">VolInit</text><!--class Vol--><rect fill="#FEFECE" filter="url(#flt9bg7v1e63i)" height="32" id="Vol" style="stroke: #A80036; stroke-width: 1.5;" width="50" x="467" y="408"/><ellipse cx="482" cy="424" fill="#ADD1B2" rx="11" ry="11" style="stroke: #A80036; stroke-width: 1.0;"/><path d="M484.9688,429.6406 Q484.3906,429.9375 483.75,430.0859 Q483.1094,430.2344 482.4063,430.2344 Q479.9063,430.2344 478.5859,428.5859 Q477.2656,426.9375 477.2656,423.8125 Q477.2656,420.6875 478.5859,419.0313 Q479.9063,417.375 482.4063,417.375 Q483.1094,417.375 483.7578,417.5313 Q484.4063,417.6875 484.9688,417.9844 L484.9688,420.7031 Q484.3438,420.125 483.75,419.8516 Q483.1563,419.5781 482.5313,419.5781 Q481.1875,419.5781 480.5,420.6484 Q479.8125,421.7188 479.8125,423.8125 Q479.8125,425.9063 480.5,426.9766 Q481.1875,428.0469 482.5313,428.0469 Q483.1563,428.0469 483.75,427.7734 Q484.3438,427.5 484.9688,426.9219 L484.9688,429.6406 Z "/><text fill="#000000" font-family="sans-serif" font-size="12" lengthAdjust="spacingAndGlyphs" textLength="18" x="496" y="428.1543">Vol</text><!--class Cache--><rect fill="#FEFECE" filter="url(#flt9bg7v1e63i)" height="32" id="Cache" style="stroke: #A80036; stroke-width: 1.5;" width="69" x="445.5" y="117"/><ellipse cx="460.5" cy="133" fill="#ADD1B2" rx="11" ry="11" style="stroke: #A80036; stroke-width: 1.0;"/><path d="M463.4688,138.6406 Q462.8906,138.9375 462.25,139.0859 Q461.6094,139.2344 460.9063,139.2344 Q458.4063,139.2344 457.0859,137.5859 Q455.7656,135.9375 455.7656,132.8125 Q455.7656,129.6875 457.0859,128.0313 Q458.4063,126.375 460.9063,126.375 Q461.6094,126.375 462.2578,126.5313 Q462.9063,126.6875 463.4688,126.9844 L463.4688,129.7031 Q462.8438,129.125 462.25,128.8516 Q461.6563,128.5781 461.0313,128.5781 Q459.6875,128.5781 459,129.6484 Q458.3125,130.7188 458.3125,132.8125 Q458.3125,134.9063 459,135.9766 Q459.6875,137.0469 461.0313,137.0469 Q461.6563,137.0469 462.25,136.7734 Q462.8438,136.5 463.4688,135.9219 L463.4688,138.6406 Z "/><text fill="#000000" font-family="sans-serif" font-size="12" lengthAdjust="spacingAndGlyphs" textLength="37" x="474.5" y="137.1543">Cache</text><!--link CacheProcessor to DiskInit--><path d="M248.8012,40.0833 C219.2478,59.7256 169.3136,92.9135 137.8081,113.8532 " fill="none" id="CacheProcessor-DiskInit" style="stroke: #A80036; stroke-width: 1.0;"/><polygon fill="#A80036" points="133.298,116.8507,143.0076,115.2003,137.4622,114.0831,138.5794,108.5376,133.298,116.8507" style="stroke: #A80036; stroke-width: 1.0;"/><text fill="#000000" font-family="sans-serif" font-size="13" font-style="italic" lengthAdjust="spacingAndGlyphs" textLength="41" x="202" y="83.0669">create</text><!--link DiskInit to CacheDisk--><path d="M78.1921,149.1293 C67.1954,156.6158 56.0416,166.6287 50,179 C34.6754,210.3799 40.8888,252.1823 46.8837,276.9754 " fill="none" id="DiskInit-CacheDisk" style="stroke: #A80036; stroke-width: 1.0;"/><polygon fill="#A80036" points="48.1518,281.9979,49.8266,272.2925,46.9277,277.1501,42.0701,274.2511,48.1518,281.9979" style="stroke: #A80036; stroke-width: 1.0;"/><text fill="#000000" font-family="sans-serif" font-size="13" lengthAdjust="spacingAndGlyphs" textLength="64" x="116.5" y="192.0669">[1] open()</text><polygon fill="#FBFB77" filter="url(#flt9bg7v1e63i)" points="55,201.1328,55,226.1328,238,226.1328,238,211.1328,228,201.1328,55,201.1328" style="stroke: #A80036; stroke-width: 1.0;"/><line style="stroke: #A80036; stroke-width: 1.0;" x1="228" x2="228" y1="201.1328" y2="211.1328"/><line style="stroke: #A80036; stroke-width: 1.0;" x1="238" x2="228" y1="211.1328" y2="211.1328"/><text fill="#000000" font-family="sans-serif" font-size="13" lengthAdjust="spacingAndGlyphs" textLength="162" x="61" y="218.1997">Start I/O for Span Header</text><!--link CacheDisk to CacheDisk--><path d="M100.1884,291.4776 C119.1145,291.1091 135,293.2832 135,298 C135,302.2746 121.9534,304.4609 105.4206,304.559 " fill="none" id="CacheDisk-CacheDisk" style="stroke: #A80036; stroke-width: 1.0;"/><polygon fill="#A80036" points="100.1884,304.5224,109.1601,308.5856,105.1883,304.5575,109.2163,300.5858,100.1884,304.5224" style="stroke: #A80036; stroke-width: 1.0;"/><text fill="#000000" font-family="sans-serif" font-size="13" lengthAdjust="spacingAndGlyphs" textLength="95" x="175.5" y="283.0669">[2] openStart()</text><polygon fill="#FBFB77" filter="url(#flt9bg7v1e63i)" points="140,297.1328,140,322.1328,302,322.1328,302,307.1328,292,297.1328,140,297.1328" style="stroke: #A80036; stroke-width: 1.0;"/><line style="stroke: #A80036; stroke-width: 1.0;" x1="292" x2="292" y1="297.1328" y2="307.1328"/><line style="stroke: #A80036; stroke-width: 1.0;" x1="302" x2="292" y1="307.1328" y2="307.1328"/><text fill="#000000" font-family="sans-serif" font-size="13" lengthAdjust="spacingAndGlyphs" textLength="141" x="146" y="314.1997">Validate Span Header</text><!--link CacheDisk to CacheDisk--><path d="M100.257,289.0278 C177.333,281.3374 311,284.3281 311,298 C311,311.3781 183.0148,314.5292 105.3013,307.453 " fill="none" id="CacheDisk-CacheDisk" style="stroke: #A80036; stroke-width: 1.0;"/><polygon fill="#A80036" points="100.257,306.9722,108.8367,311.8084,105.2344,307.4468,109.596,303.8445,100.257,306.9722" style="stroke: #A80036; stroke-width: 1.0;"/><text fill="#000000" font-family="sans-serif" font-size="13" lengthAdjust="spacingAndGlyphs" textLength="98" x="317" y="302.5669">[3] openDone()</text><!--link CacheDisk to CacheProcessor--><path d="M100.3225,289.1149 C152.5757,278.2869 231.8686,258.4982 251,235 C296.1572,179.5353 285.464,86.8026 277.6685,45.2589 " fill="none" id="CacheDisk-CacheProcessor" style="stroke: #A80036; stroke-width: 1.0;"/><polygon fill="#A80036" points="276.6888,40.2162,274.4789,49.8139,277.6425,45.1244,282.332,48.288,276.6888,40.2162" style="stroke: #A80036; stroke-width: 1.0;"/><text fill="#000000" font-family="sans-serif" font-size="13" lengthAdjust="spacingAndGlyphs" textLength="123" x="286" y="137.5669">[4] diskInitialized()</text><!--link CacheProcessor to Cache--><path d="M303.5436,40.0833 C341.1515,59.8866 404.9074,93.4585 444.6117,114.3656 " fill="none" id="CacheProcessor-Cache" style="stroke: #A80036; stroke-width: 1.0;"/><polygon fill="#A80036" points="449.3311,116.8507,443.2315,109.118,444.907,114.521,439.504,116.1965,449.3311,116.8507" style="stroke: #A80036; stroke-width: 1.0;"/><text fill="#000000" font-family="sans-serif" font-size="13" lengthAdjust="spacingAndGlyphs" textLength="64" x="389" y="83.0669">[5] open()</text><!--link Cache to VolInit--><path d="M481.1725,149.1213 C483.3445,178.9867 487.9943,242.921 490.4333,276.4573 " fill="none" id="Cache-VolInit" style="stroke: #A80036; stroke-width: 1.0;"/><polygon fill="#A80036" points="490.805,281.5688,494.1413,272.3022,490.4421,276.582,486.1624,272.8828,490.805,281.5688" style="stroke: #A80036; stroke-width: 1.0;"/><text fill="#000000" font-family="sans-serif" font-size="13" lengthAdjust="spacingAndGlyphs" textLength="102" x="488" y="211.5669">[6] mainEvent()</text><!--link VolInit to Vol--><path d="M492,314.2143 C492,336.8014 492,377.7694 492,402.7682 " fill="none" id="VolInit-Vol" style="stroke: #A80036; stroke-width: 1.0;"/><polygon fill="#A80036" points="492,407.8479,496,398.8479,492,402.8479,488,398.8479,492,407.8479" style="stroke: #A80036; stroke-width: 1.0;"/><text fill="#000000" font-family="sans-serif" font-size="13" lengthAdjust="spacingAndGlyphs" textLength="53" x="493" y="374.0669">[7] init()</text><!--
@startuml

hide empty members
hide empty methods
skinparam defaultTextAlignment left

class CacheProcessor
class DiskInit
class CacheDisk
class VolInit
class Vol

CacheProcessor - -> DiskInit : //create//
DiskInit - -> CacheDisk : [1] open()
note on link : Start I/O for Span Header
CacheDisk - -> CacheDisk : [2] openStart()
note on link : Validate Span Header
CacheDisk -d-> CacheDisk : [3] openDone()
CacheDisk - -> CacheProcessor : [4] diskInitialized()

CacheProcessor - -> Cache : [5] open()
Cache - -> VolInit : [6] mainEvent()
VolInit - -> Vol : [7] init()

@enduml

PlantUML version 1.2017.18(Fri Oct 06 11:56:32 CDT 2017)
(GPL source distribution)
Java Runtime: OpenJDK Runtime Environment
JVM: OpenJDK 64-Bit Server VM
Java Version: 1.8.0_151-b12
Operating System: Linux
OS Version: 4.13.13-200.fc26.x86_64
Default Encoding: UTF-8
Language: en
Country: US
--></g></svg>