<?xml version="1.0" encoding="UTF-8" standalone="no"?><svg xmlns="http://www.w3.org/2000/svg" xmlns:xlink="http://www.w3.org/1999/xlink" contentScriptType="application/ecmascript" contentStyleType="text/css" height="83px" preserveAspectRatio="none" style="width:294px;height:83px;" version="1.1" viewBox="0 0 294 83" width="294px" zoomAndPan="magnify"><defs><filter height="300%" id="f1u947yk7m85eg" width="300%" x="-1" y="-1"><feGaussianBlur result="blurOut" stdDeviation="2.0"/><feColorMatrix in="blurOut" result="blurOut2" type="matrix" values="0 0 0 0 0 0 0 0 0 0 0 0 0 0 0 0 0 0 .4 0"/><feOffset dx="4.0" dy="4.0" in="blurOut2" result="blurOut3"/><feBlend in="SourceGraphic" in2="blurOut3" mode="normal"/></filter></defs><g><!--MD5=[570daaa33fa442249ec370715160357d]
class OpenDirEntry--><rect fill="#FEFECE" filter="url(#f1u947yk7m85eg)" height="60.8047" id="OpenDirEntry" style="stroke: #A80036; stroke-width: 1.5;" width="139" x="14" y="12"/><ellipse cx="40.25" cy="28" fill="#ADD1B2" rx="11" ry="11" style="stroke: #A80036; stroke-width: 1.0;"/><path d="M43.2188,33.6406 Q42.6406,33.9375 42,34.0859 Q41.3594,34.2344 40.6563,34.2344 Q38.1563,34.2344 36.8359,32.5859 Q35.5156,30.9375 35.5156,27.8125 Q35.5156,24.6875 36.8359,23.0313 Q38.1563,21.375 40.6563,21.375 Q41.3594,21.375 42.0078,21.5313 Q42.6563,21.6875 43.2188,21.9844 L43.2188,24.7031 Q42.5938,24.125 42,23.8516 Q41.4063,23.5781 40.7813,23.5781 Q39.4375,23.5781 38.75,24.6484 Q38.0625,25.7188 38.0625,27.8125 Q38.0625,29.9063 38.75,30.9766 Q39.4375,32.0469 40.7813,32.0469 Q41.4063,32.0469 42,31.7734 Q42.5938,31.5 43.2188,30.9219 L43.2188,33.6406 Z "/><text fill="#000000" font-family="sans-serif" font-size="12" lengthAdjust="spacingAndGlyphs" textLength="82" x="56.75" y="32.1543">OpenDirEntry</text><line style="stroke: #A80036; stroke-width: 1.5;" x1="15" x2="152" y1="44" y2="44"/><text fill="#000000" font-family="sans-serif" font-size="11" lengthAdjust="spacingAndGlyphs" textLength="127" x="20" y="58.2104">CacheVC* open_writer</text><line style="stroke: #A80036; stroke-width: 1.5;" x1="15" x2="152" y1="64.8047" y2="64.8047"/><!--MD5=[60d67645785cc9a06045916aa17364d2]
class CacheVC--><rect fill="#FEFECE" filter="url(#f1u947yk7m85eg)" height="48" id="CacheVC" style="stroke: #A80036; stroke-width: 1.5;" width="87" x="196" y="18"/><ellipse cx="211" cy="34" fill="#ADD1B2" rx="11" ry="11" style="stroke: #A80036; stroke-width: 1.0;"/><path d="M213.9688,39.6406 Q213.3906,39.9375 212.75,40.0859 Q212.1094,40.2344 211.4063,40.2344 Q208.9063,40.2344 207.5859,38.5859 Q206.2656,36.9375 206.2656,33.8125 Q206.2656,30.6875 207.5859,29.0313 Q208.9063,27.375 211.4063,27.375 Q212.1094,27.375 212.7578,27.5313 Q213.4063,27.6875 213.9688,27.9844 L213.9688,30.7031 Q213.3438,30.125 212.75,29.8516 Q212.1563,29.5781 211.5313,29.5781 Q210.1875,29.5781 209.5,30.6484 Q208.8125,31.7188 208.8125,33.8125 Q208.8125,35.9063 209.5,36.9766 Q210.1875,38.0469 211.5313,38.0469 Q212.1563,38.0469 212.75,37.7734 Q213.3438,37.5 213.9688,36.9219 L213.9688,39.6406 Z "/><text fill="#000000" font-family="sans-serif" font-size="12" lengthAdjust="spacingAndGlyphs" textLength="55" x="225" y="38.1543">CacheVC</text><line style="stroke: #A80036; stroke-width: 1.5;" x1="197" x2="282" y1="50" y2="50"/><line style="stroke: #A80036; stroke-width: 1.5;" x1="197" x2="282" y1="58" y2="58"/><!--MD5=[290bc53f838e876a9c2963845799a24b]
reverse link OpenDirEntry to CacheVC--><path d="M153.5,54 C167.3692,60.1094 182.3768,62.4734 195.9135,62.206 " fill="none" id="OpenDirEntry&lt;-CacheVC" style="stroke: #A80036; stroke-width: 1.0;"/><polygon fill="#A80036" points="153.5,54,157.3784,60.0793,164.4818,58.8375,160.6034,52.7582,153.5,54" style="stroke: #A80036; stroke-width: 1.0;"/><!--MD5=[0defbf3ed4706eff342df68d7527179e]
@startuml
class OpenDirEntry {
   CacheVC* open_writer
}

class CacheVC {

}

OpenDirEntry::open_writer *- CacheVC

@enduml

PlantUML version 1.2019.11(Sun Sep 22 05:02:15 CDT 2019)
(GPL source distribution)
Java Runtime: OpenJDK Runtime Environment
JVM: OpenJDK 64-Bit Server VM
Java Version: 1.8.0_222-b10
Operating System: Linux
Default Encoding: UTF-8
Language: en
Country: US
--></g></svg>