<?xml version="1.0" encoding="UTF-8" standalone="no"?><svg xmlns="http://www.w3.org/2000/svg" xmlns:xlink="http://www.w3.org/1999/xlink" contentScriptType="application/ecmascript" contentStyleType="text/css" height="498px" preserveAspectRatio="none" style="width:484px;height:498px;" version="1.1" viewBox="0 0 484 498" width="484px" zoomAndPan="magnify"><defs><filter height="300%" id="f1psrifgjvkoh6" width="300%" x="-1" y="-1"><feGaussianBlur result="blurOut" stdDeviation="2.0"/><feColorMatrix in="blurOut" result="blurOut2" type="matrix" values="0 0 0 0 0 0 0 0 0 0 0 0 0 0 0 0 0 0 .4 0"/><feOffset dx="4.0" dy="4.0" in="blurOut2" result="blurOut3"/><feBlend in="SourceGraphic" in2="blurOut3" mode="normal"/></filter></defs><g><rect fill="#FFFFFF" filter="url(#f1psrifgjvkoh6)" height="273.0625" style="stroke: #FFFFFF; stroke-width: 1.0;" width="10" x="114.5" y="146.5625"/><line style="stroke: #A80036; stroke-width: 1.0;" x1="114.5" x2="114.5" y1="146.5625" y2="419.625"/><line style="stroke: #A80036; stroke-width: 1.0;" x1="124.5" x2="124.5" y1="146.5625" y2="419.625"/><line style="stroke: #A80036; stroke-width: 1.0;" x1="114.5" x2="124.5" y1="146.5625" y2="146.5625"/><rect fill="#FFFFFF" filter="url(#f1psrifgjvkoh6)" height="30.1328" style="stroke: #FFFFFF; stroke-width: 1.0;" width="10" x="114.5" y="447.625"/><line style="stroke: #A80036; stroke-width: 1.0;" x1="114.5" x2="114.5" y1="447.625" y2="477.7578"/><line style="stroke: #A80036; stroke-width: 1.0;" x1="124.5" x2="124.5" y1="447.625" y2="477.7578"/><line style="stroke: #A80036; stroke-width: 1.0;" x1="114.5" x2="124.5" y1="477.7578" y2="477.7578"/><line style="stroke: #A80036; stroke-width: 1.0;" x1="38" x2="38" y1="86.2969" y2="419.625"/><line style="stroke: #A80036; stroke-width: 1.0; stroke-dasharray: 1.0,4.0;" x1="38" x2="38" y1="419.625" y2="447.625"/><line style="stroke: #A80036; stroke-width: 1.0;" x1="38" x2="38" y1="447.625" y2="486.7578"/><line style="stroke: #A80036; stroke-width: 1.0;" x1="119" x2="119" y1="86.2969" y2="419.625"/><line style="stroke: #A80036; stroke-width: 1.0; stroke-dasharray: 1.0,4.0;" x1="119" x2="119" y1="419.625" y2="447.625"/><line style="stroke: #A80036; stroke-width: 1.0;" x1="119" x2="119" y1="447.625" y2="486.7578"/><line style="stroke: #A80036; stroke-width: 1.0;" x1="255.5" x2="255.5" y1="86.2969" y2="419.625"/><line style="stroke: #A80036; stroke-width: 1.0; stroke-dasharray: 1.0,4.0;" x1="255.5" x2="255.5" y1="419.625" y2="447.625"/><line style="stroke: #A80036; stroke-width: 1.0;" x1="255.5" x2="255.5" y1="447.625" y2="486.7578"/><line style="stroke: #A80036; stroke-width: 1.0;" x1="434" x2="434" y1="86.2969" y2="419.625"/><line style="stroke: #A80036; stroke-width: 1.0; stroke-dasharray: 1.0,4.0;" x1="434" x2="434" y1="419.625" y2="447.625"/><line style="stroke: #A80036; stroke-width: 1.0;" x1="434" x2="434" y1="447.625" y2="486.7578"/><text fill="#000000" font-family="sans-serif" font-size="14" lengthAdjust="spacingAndGlyphs" textLength="55" x="8" y="82.9951">L7Policy</text><ellipse cx="38.5" cy="54" fill="#FEFECE" filter="url(#f1psrifgjvkoh6)" rx="12" ry="12" style="stroke: #A80036; stroke-width: 2.0;"/><line style="stroke: #A80036; stroke-width: 2.0;" x1="26.5" x2="50.5" y1="68" y2="68"/><text fill="#000000" font-family="sans-serif" font-size="14" lengthAdjust="spacingAndGlyphs" textLength="75" x="79" y="82.9951">Strategizer</text><ellipse cx="119.5" cy="13" fill="#FEFECE" filter="url(#f1psrifgjvkoh6)" rx="8" ry="8" style="stroke: #A80036; stroke-width: 2.0;"/><path d="M119.5,21 L119.5,48 M106.5,29 L132.5,29 M119.5,48 L106.5,63 M119.5,48 L132.5,63 " fill="none" filter="url(#f1psrifgjvkoh6)" style="stroke: #A80036; stroke-width: 2.0;"/><text fill="#000000" font-family="sans-serif" font-size="14" lengthAdjust="spacingAndGlyphs" textLength="50" x="227.5" y="82.9951">HttpSM</text><ellipse cx="255.5" cy="13" fill="#FEFECE" filter="url(#f1psrifgjvkoh6)" rx="8" ry="8" style="stroke: #A80036; stroke-width: 2.0;"/><path d="M255.5,21 L255.5,48 M242.5,29 L268.5,29 M255.5,48 L242.5,63 M255.5,48 L268.5,63 " fill="none" filter="url(#f1psrifgjvkoh6)" style="stroke: #A80036; stroke-width: 2.0;"/><rect fill="#FEFECE" filter="url(#f1psrifgjvkoh6)" height="30.2969" style="stroke: #A80036; stroke-width: 1.5;" width="81" x="392" y="51"/><text fill="#000000" font-family="sans-serif" font-size="14" lengthAdjust="spacingAndGlyphs" textLength="67" x="399" y="70.9951">Upstream</text><rect fill="#FFFFFF" filter="url(#f1psrifgjvkoh6)" height="273.0625" style="stroke: #FFFFFF; stroke-width: 1.0;" width="10" x="114.5" y="146.5625"/><line style="stroke: #A80036; stroke-width: 1.0;" x1="114.5" x2="114.5" y1="146.5625" y2="419.625"/><line style="stroke: #A80036; stroke-width: 1.0;" x1="124.5" x2="124.5" y1="146.5625" y2="419.625"/><line style="stroke: #A80036; stroke-width: 1.0;" x1="114.5" x2="124.5" y1="146.5625" y2="146.5625"/><rect fill="#FFFFFF" filter="url(#f1psrifgjvkoh6)" height="30.1328" style="stroke: #FFFFFF; stroke-width: 1.0;" width="10" x="114.5" y="447.625"/><line style="stroke: #A80036; stroke-width: 1.0;" x1="114.5" x2="114.5" y1="447.625" y2="477.7578"/><line style="stroke: #A80036; stroke-width: 1.0;" x1="124.5" x2="124.5" y1="447.625" y2="477.7578"/><line style="stroke: #A80036; stroke-width: 1.0;" x1="114.5" x2="124.5" y1="477.7578" y2="477.7578"/><polygon fill="#A80036" points="49.5,113.4297,39.5,117.4297,49.5,117.4297" style="stroke: #A80036; stroke-width: 1.0;"/><line style="stroke: #A80036; stroke-width: 1.0;" x1="38.5" x2="254.5" y1="117.4297" y2="117.4297"/><text fill="#000000" font-family="sans-serif" font-size="13" lengthAdjust="spacingAndGlyphs" textLength="76" x="55.5" y="112.3638">create "tag"</text><polygon fill="#A80036" points="243.5,147.5625,253.5,147.5625,243.5,151.5625" style="stroke: #A80036; stroke-width: 1.0;"/><line style="stroke: #A80036; stroke-width: 1.0;" x1="38.5" x2="254.5" y1="146.5625" y2="146.5625"/><text fill="#000000" font-family="sans-serif" font-size="13" lengthAdjust="spacingAndGlyphs" textLength="118" x="45.5" y="141.4966">return: Strategizer</text><polygon fill="#A80036" points="243.5,176.6953,253.5,180.6953,243.5,184.6953,247.5,180.6953" style="stroke: #A80036; stroke-width: 1.0;"/><line style="stroke: #A80036; stroke-width: 1.0;" x1="124.5" x2="249.5" y1="180.6953" y2="180.6953"/><text fill="#000000" font-family="sans-serif" font-size="13" lengthAdjust="spacingAndGlyphs" textLength="107" x="131.5" y="175.6294">SESSION_READY</text><path d="M260,159.5625 L260,184.5625 L389,184.5625 L389,169.5625 L379,159.5625 L260,159.5625 " fill="#FBFB77" filter="url(#f1psrifgjvkoh6)" style="stroke: #A80036; stroke-width: 1.0;"/><path d="M379,159.5625 L379,169.5625 L389,169.5625 L379,159.5625 " fill="#FBFB77" style="stroke: #A80036; stroke-width: 1.0;"/><text fill="#000000" font-family="sans-serif" font-size="13" lengthAdjust="spacingAndGlyphs" textLength="108" x="266" y="176.6294">Contains session</text><polygon fill="#A80036" points="422.5,210.8281,432.5,214.8281,422.5,218.8281,426.5,214.8281" style="stroke: #A80036; stroke-width: 1.0;"/><line style="stroke: #A80036; stroke-width: 1.0;" x1="255.5" x2="428.5" y1="214.8281" y2="214.8281"/><text fill="#000000" font-family="sans-serif" font-size="13" lengthAdjust="spacingAndGlyphs" textLength="88" x="262.5" y="209.7622">HTTP Request</text><polygon fill="#A80036" points="266.5,239.9609,256.5,243.9609,266.5,247.9609,262.5,243.9609" style="stroke: #A80036; stroke-width: 1.0;"/><line style="stroke: #A80036; stroke-width: 1.0;" x1="260.5" x2="433.5" y1="243.9609" y2="243.9609"/><text fill="#000000" font-family="monospace" font-size="13" lengthAdjust="spacingAndGlyphs" textLength="48" x="272.5" y="238.895">200 OK</text><line style="stroke: #A80036; stroke-width: 1.0;" x1="255.5" x2="297.5" y1="273.0938" y2="273.0938"/><line style="stroke: #A80036; stroke-width: 1.0;" x1="297.5" x2="297.5" y1="273.0938" y2="286.0938"/><line style="stroke: #A80036; stroke-width: 1.0;" x1="256.5" x2="297.5" y1="286.0938" y2="286.0938"/><polygon fill="#A80036" points="266.5,282.0938,256.5,286.0938,266.5,290.0938,262.5,286.0938" style="stroke: #A80036; stroke-width: 1.0;"/><text fill="#000000" font-family="sans-serif" font-size="13" lengthAdjust="spacingAndGlyphs" textLength="148" x="262.5" y="268.0278">Read response header.</text><polygon fill="#A80036" points="135.5,316.2266,125.5,320.2266,135.5,320.2266" style="stroke: #A80036; stroke-width: 1.0;"/><line style="stroke: #A80036; stroke-width: 1.0;" x1="124.5" x2="254.5" y1="320.2266" y2="320.2266"/><text fill="#000000" font-family="sans-serif" font-size="13" lengthAdjust="spacingAndGlyphs" textLength="36" x="141.5" y="315.1606">result</text><path d="M260,299.0938 L260,324.0938 L407,324.0938 L407,309.0938 L397,299.0938 L260,299.0938 " fill="#FBFB77" filter="url(#f1psrifgjvkoh6)" style="stroke: #A80036; stroke-width: 1.0;"/><path d="M397,299.0938 L397,309.0938 L407,309.0938 L397,299.0938 " fill="#FBFB77" style="stroke: #A80036; stroke-width: 1.0;"/><text fill="#000000" font-family="sans-serif" font-size="13" lengthAdjust="spacingAndGlyphs" textLength="126" x="266" y="316.1606">HTTP 200 Response</text><polygon fill="#A80036" points="243.5,355.3594,253.5,355.3594,243.5,359.3594" style="stroke: #A80036; stroke-width: 1.0;"/><line style="stroke: #A80036; stroke-width: 1.0;" x1="124.5" x2="254.5" y1="354.3594" y2="354.3594"/><text fill="#000000" font-family="sans-serif" font-size="13" lengthAdjust="spacingAndGlyphs" textLength="85" x="131.5" y="349.2935">return: DONE</text><line style="stroke: #A80036; stroke-width: 1.0;" x1="255.5" x2="297.5" y1="398.625" y2="398.625"/><line style="stroke: #A80036; stroke-width: 1.0;" x1="297.5" x2="297.5" y1="398.625" y2="411.625"/><line style="stroke: #A80036; stroke-width: 1.0;" x1="256.5" x2="297.5" y1="411.625" y2="411.625"/><polygon fill="#A80036" points="266.5,407.625,256.5,411.625,266.5,415.625,262.5,411.625" style="stroke: #A80036; stroke-width: 1.0;"/><text fill="#000000" font-family="sans-serif" font-size="13" lengthAdjust="spacingAndGlyphs" textLength="165" x="262.5" y="378.4263">Read upstream response,</text><text fill="#000000" font-family="sans-serif" font-size="13" lengthAdjust="spacingAndGlyphs" textLength="125" x="262.5" y="393.5591">send to user agent.</text><polygon fill="#A80036" points="135.5,464.7578,125.5,468.7578,135.5,472.7578,131.5,468.7578" style="stroke: #A80036; stroke-width: 1.0;"/><line style="stroke: #A80036; stroke-width: 1.0;" x1="129.5" x2="254.5" y1="468.7578" y2="468.7578"/><text fill="#000000" font-family="sans-serif" font-size="13" lengthAdjust="spacingAndGlyphs" textLength="33" x="141.5" y="463.6919">finish</text><!--MD5=[1793ccc5c0857df2fbe7ebb93825745a]
@startuml
entity L7Policy
actor Strategizer
actor HttpSM
participant Upstream

hide footbox

HttpSM -\ L7Policy : create "tag"
L7Policy -/ HttpSM : return: Strategizer
activate Strategizer
Strategizer -> HttpSM : SESSION_READY
note right : Contains session
HttpSM -> Upstream : HTTP Request
Upstream -> HttpSM : ""200 OK""
HttpSM -> HttpSM : Read response header.
HttpSM -\ Strategizer : result
note right : HTTP 200 Response
Strategizer -/ HttpSM : return: DONE
HttpSM -> HttpSM : Read upstream response,\nsend to user agent.
...
HttpSM -> Strategizer : finish

@enduml

PlantUML version 1.2019.11(Sun Sep 22 05:02:15 CDT 2019)
(GPL source distribution)
Java Runtime: OpenJDK Runtime Environment
JVM: OpenJDK 64-Bit Server VM
Java Version: 1.8.0_222-b10
Operating System: Linux
Default Encoding: UTF-8
Language: en
Country: US
--></g></svg>