<?xml version="1.0" encoding="UTF-8" standalone="no"?><svg xmlns="http://www.w3.org/2000/svg" xmlns:xlink="http://www.w3.org/1999/xlink" contentScriptType="application/ecmascript" contentStyleType="text/css" height="740px" preserveAspectRatio="none" style="width:919px;height:740px;" version="1.1" viewBox="0 0 919 740" width="919px" zoomAndPan="magnify"><defs><filter height="300%" id="f9jzlw0ypdebc" width="300%" x="-1" y="-1"><feGaussianBlur result="blurOut" stdDeviation="2.0"/><feColorMatrix in="blurOut" result="blurOut2" type="matrix" values="0 0 0 0 0 0 0 0 0 0 0 0 0 0 0 0 0 0 .4 0"/><feOffset dx="4.0" dy="4.0" in="blurOut2" result="blurOut3"/><feBlend in="SourceGraphic" in2="blurOut3" mode="normal"/></filter></defs><g><rect fill="#FEFECE" filter="url(#f9jzlw0ypdebc)" height="33.9688" rx="12.5" ry="12.5" style="stroke: #A80036; stroke-width: 1.5;" width="137" x="390.5" y="10"/><text fill="#000000" font-family="sans-serif" font-size="12" lengthAdjust="spacingAndGlyphs" textLength="117" x="400.5" y="31.1387">netProcessor.init()</text><rect fill="#FEFECE" filter="url(#f9jzlw0ypdebc)" height="33.9688" rx="12.5" ry="12.5" style="stroke: #A80036; stroke-width: 1.5;" width="155" x="381.5" y="63.9688"/><text fill="#000000" font-family="sans-serif" font-size="12" lengthAdjust="spacingAndGlyphs" textLength="135" x="391.5" y="85.1074">init_HttpProxyServer()</text><path d="M562,122.3555 L562,130.9219 L542,134.9219 L562,138.9219 L562,147.4883 A0,0 0 0 0 562,147.4883 L750,147.4883 A0,0 0 0 0 750,147.4883 L750,132.3555 L740,122.3555 L562,122.3555 A0,0 0 0 0 562,122.3555 " fill="#FBFB77" filter="url(#f9jzlw0ypdebc)" style="stroke: #A80036; stroke-width: 1.0;"/><path d="M740,122.3555 L740,132.3555 L750,132.3555 L740,122.3555 " fill="#FBFB77" style="stroke: #A80036; stroke-width: 1.0;"/><text fill="#000000" font-family="sans-serif" font-size="13" lengthAdjust="spacingAndGlyphs" textLength="167" x="568" y="139.4224">ET_NET threads start here</text><rect fill="#FEFECE" filter="url(#f9jzlw0ypdebc)" height="33.9688" rx="12.5" ry="12.5" style="stroke: #A80036; stroke-width: 1.5;" width="166" x="376" y="117.9375"/><text fill="#000000" font-family="sans-serif" font-size="12" lengthAdjust="spacingAndGlyphs" textLength="146" x="386" y="139.0762">eventProcessor::start()</text><path d="M525.5,176.3242 L525.5,184.8906 L505.5,188.8906 L525.5,192.8906 L525.5,201.457 A0,0 0 0 0 525.5,201.457 L707.5,201.457 A0,0 0 0 0 707.5,201.457 L707.5,186.3242 L697.5,176.3242 L525.5,176.3242 A0,0 0 0 0 525.5,176.3242 " fill="#FBFB77" filter="url(#f9jzlw0ypdebc)" style="stroke: #A80036; stroke-width: 1.0;"/><path d="M697.5,176.3242 L697.5,186.3242 L707.5,186.3242 L697.5,176.3242 " fill="#FBFB77" style="stroke: #A80036; stroke-width: 1.0;"/><text fill="#000000" font-family="sans-serif" font-size="13" lengthAdjust="spacingAndGlyphs" textLength="161" x="531.5" y="193.3911">Global plugin initialization</text><rect fill="#FEFECE" filter="url(#f9jzlw0ypdebc)" height="33.9688" rx="12.5" ry="12.5" style="stroke: #A80036; stroke-width: 1.5;" width="93" x="412.5" y="171.9063"/><text fill="#000000" font-family="sans-serif" font-size="12" lengthAdjust="spacingAndGlyphs" textLength="73" x="422.5" y="193.0449">plugin_init()</text><rect fill="#FEFECE" filter="url(#f9jzlw0ypdebc)" height="33.9688" rx="12.5" ry="12.5" style="stroke: #A80036; stroke-width: 1.5;" width="165" x="376.5" y="225.875"/><text fill="#000000" font-family="sans-serif" font-size="12" lengthAdjust="spacingAndGlyphs" textLength="145" x="386.5" y="247.0137">cacheProcessor.start()</text><rect fill="#000000" filter="url(#f9jzlw0ypdebc)" height="6" rx="2.5" ry="2.5" style="stroke: #000000; stroke-width: 1.0;" width="898" x="10" y="279.8438"/><rect fill="#FEFECE" filter="url(#f9jzlw0ypdebc)" height="33.9688" rx="12.5" ry="12.5" style="stroke: #A80036; stroke-width: 1.5;" width="114" x="192" y="305.8438"/><text fill="#000000" font-family="sans-serif" font-size="12" lengthAdjust="spacingAndGlyphs" textLength="94" x="202" y="326.9824">udpNet::start()</text><rect fill="#FEFECE" filter="url(#f9jzlw0ypdebc)" height="33.9688" rx="12.5" ry="12.5" style="stroke: #A80036; stroke-width: 1.5;" width="204" x="147" y="359.8125"/><text fill="#000000" font-family="sans-serif" font-size="12" lengthAdjust="spacingAndGlyphs" textLength="184" x="157" y="380.9512">init_accept_HttpProxyServer()</text><polygon fill="#FEFECE" filter="url(#f9jzlw0ypdebc)" points="115,413.7813,383,413.7813,393,430.7656,383,447.75,115,447.75" style="stroke: #A80036; stroke-width: 1.5;"/><text fill="#000000" font-family="sans-serif" font-size="12" lengthAdjust="spacingAndGlyphs" textLength="248" x="125" y="434.9199">TS_EVENT_LIFECYCLE_PORTS_INITIALIZED</text><polygon fill="#FEFECE" filter="url(#f9jzlw0ypdebc)" points="218,482.75,280,482.75,292,494.75,280,506.75,218,506.75,206,494.75,218,482.75" style="stroke: #A80036; stroke-width: 1.5;"/><text fill="#000000" font-family="sans-serif" font-size="11" lengthAdjust="spacingAndGlyphs" textLength="62" x="218" y="498.5581">cache_wait</text><text fill="#000000" font-family="sans-serif" font-size="11" lengthAdjust="spacingAndGlyphs" textLength="32" x="174" y="492.1558">ready</text><text fill="#000000" font-family="sans-serif" font-size="11" lengthAdjust="spacingAndGlyphs" textLength="54" x="292" y="492.1558">not ready</text><rect fill="#FEFECE" filter="url(#f9jzlw0ypdebc)" height="33.9688" rx="12.5" ry="12.5" style="stroke: #A80036; stroke-width: 1.5;" width="166" x="59" y="516.75"/><text fill="#000000" font-family="sans-serif" font-size="12" lengthAdjust="spacingAndGlyphs" textLength="146" x="69" y="537.8887">start_HttpProxyServer()</text><polygon fill="#FEFECE" filter="url(#f9jzlw0ypdebc)" points="22,585.7188,262,585.7188,272,602.7031,262,619.6875,22,619.6875" style="stroke: #A80036; stroke-width: 1.5;"/><text fill="#000000" font-family="sans-serif" font-size="12" lengthAdjust="spacingAndGlyphs" textLength="220" x="32" y="606.8574">TS_EVENT_LIFECYCLE_PORTS_READY</text><rect fill="#FEFECE" filter="url(#f9jzlw0ypdebc)" height="33.9688" rx="12.5" ry="12.5" style="stroke: #A80036; stroke-width: 1.5;" width="148" x="282" y="516.75"/><text fill="#000000" font-family="sans-serif" font-size="12" lengthAdjust="spacingAndGlyphs" textLength="128" x="292" y="537.8887">cache_wait = waited</text><polygon fill="#FEFECE" filter="url(#f9jzlw0ypdebc)" points="249,625.6875,261,637.6875,249,649.6875,237,637.6875,249,625.6875" style="stroke: #A80036; stroke-width: 1.5;"/><rect fill="#FEFECE" filter="url(#f9jzlw0ypdebc)" height="33.9688" rx="12.5" ry="12.5" style="stroke: #A80036; stroke-width: 1.5;" width="161" x="168.5" y="669.6875"/><text fill="#000000" font-family="sans-serif" font-size="12" lengthAdjust="spacingAndGlyphs" textLength="141" x="178.5" y="690.8262">tasksProcessor.start()</text><rect fill="#FEFECE" filter="url(#f9jzlw0ypdebc)" height="33.9688" rx="12.5" ry="12.5" style="stroke: #A80036; stroke-width: 1.5;" width="136" x="639.5" y="359.8125"/><text fill="#000000" font-family="sans-serif" font-size="12" lengthAdjust="spacingAndGlyphs" textLength="116" x="649.5" y="380.9512">Cache Initialization</text><polygon fill="#FEFECE" filter="url(#f9jzlw0ypdebc)" points="669.5,413.7813,745.5,413.7813,757.5,425.7813,745.5,437.7813,669.5,437.7813,657.5,425.7813,669.5,413.7813" style="stroke: #A80036; stroke-width: 1.5;"/><text fill="#000000" font-family="sans-serif" font-size="11" lengthAdjust="spacingAndGlyphs" textLength="76" x="669.5" y="429.5894">cache_waited</text><text fill="#000000" font-family="sans-serif" font-size="11" lengthAdjust="spacingAndGlyphs" textLength="37" x="620.5" y="423.187">waited</text><text fill="#000000" font-family="sans-serif" font-size="11" lengthAdjust="spacingAndGlyphs" textLength="54" x="757.5" y="423.187">not ready</text><rect fill="#FEFECE" filter="url(#f9jzlw0ypdebc)" height="33.9688" rx="12.5" ry="12.5" style="stroke: #A80036; stroke-width: 1.5;" width="166" x="515" y="447.7813"/><text fill="#000000" font-family="sans-serif" font-size="12" lengthAdjust="spacingAndGlyphs" textLength="146" x="525" y="468.9199">start_HttpProxyServer()</text><polygon fill="#FEFECE" filter="url(#f9jzlw0ypdebc)" points="478,516.75,718,516.75,728,533.7344,718,550.7188,478,550.7188" style="stroke: #A80036; stroke-width: 1.5;"/><text fill="#000000" font-family="sans-serif" font-size="12" lengthAdjust="spacingAndGlyphs" textLength="220" x="488" y="537.8887">TS_EVENT_LIFECYCLE_PORTS_READY</text><rect fill="#FEFECE" filter="url(#f9jzlw0ypdebc)" height="33.9688" rx="12.5" ry="12.5" style="stroke: #A80036; stroke-width: 1.5;" width="158" x="738" y="447.7813"/><text fill="#000000" font-family="sans-serif" font-size="12" lengthAdjust="spacingAndGlyphs" textLength="138" x="748" y="468.9199">cache_waited = ready</text><polygon fill="#FEFECE" filter="url(#f9jzlw0ypdebc)" points="707.5,556.7188,719.5,568.7188,707.5,580.7188,695.5,568.7188,707.5,556.7188" style="stroke: #A80036; stroke-width: 1.5;"/><polygon fill="#FEFECE" filter="url(#f9jzlw0ypdebc)" points="587,615.7188,828,615.7188,838,632.7031,828,649.6875,587,649.6875" style="stroke: #A80036; stroke-width: 1.5;"/><text fill="#000000" font-family="sans-serif" font-size="12" lengthAdjust="spacingAndGlyphs" textLength="221" x="597" y="636.8574">TS_EVENT_LIFECYCLE_CACHE_READY</text><rect fill="#000000" filter="url(#f9jzlw0ypdebc)" height="6" rx="2.5" ry="2.5" style="stroke: #000000; stroke-width: 1.0;" width="898" x="10" y="723.6563"/><line style="stroke: #A80036; stroke-width: 1.5;" x1="459" x2="459" y1="43.9688" y2="63.9688"/><polygon fill="#A80036" points="455,53.9688,459,63.9688,463,53.9688,459,57.9688" style="stroke: #A80036; stroke-width: 1.0;"/><line style="stroke: #A80036; stroke-width: 1.5;" x1="459" x2="459" y1="97.9375" y2="117.9375"/><polygon fill="#A80036" points="455,107.9375,459,117.9375,463,107.9375,459,111.9375" style="stroke: #A80036; stroke-width: 1.0;"/><line style="stroke: #A80036; stroke-width: 1.5;" x1="459" x2="459" y1="151.9063" y2="171.9063"/><polygon fill="#A80036" points="455,161.9063,459,171.9063,463,161.9063,459,165.9063" style="stroke: #A80036; stroke-width: 1.0;"/><line style="stroke: #A80036; stroke-width: 1.5;" x1="459" x2="459" y1="205.875" y2="225.875"/><polygon fill="#A80036" points="455,215.875,459,225.875,463,215.875,459,219.875" style="stroke: #A80036; stroke-width: 1.0;"/><line style="stroke: #A80036; stroke-width: 1.5;" x1="249" x2="249" y1="339.8125" y2="359.8125"/><polygon fill="#A80036" points="245,349.8125,249,359.8125,253,349.8125,249,353.8125" style="stroke: #A80036; stroke-width: 1.0;"/><line style="stroke: #A80036; stroke-width: 1.5;" x1="249" x2="249" y1="393.7813" y2="413.7813"/><polygon fill="#A80036" points="245,403.7813,249,413.7813,253,403.7813,249,407.7813" style="stroke: #A80036; stroke-width: 1.0;"/><line style="stroke: #A80036; stroke-width: 1.5;" x1="142" x2="142" y1="550.7188" y2="585.7188"/><polygon fill="#A80036" points="138,575.7188,142,585.7188,146,575.7188,142,579.7188" style="stroke: #A80036; stroke-width: 1.0;"/><line style="stroke: #A80036; stroke-width: 1.5;" x1="206" x2="142" y1="494.75" y2="494.75"/><line style="stroke: #A80036; stroke-width: 1.5;" x1="142" x2="142" y1="494.75" y2="516.75"/><polygon fill="#A80036" points="138,506.75,142,516.75,146,506.75,142,510.75" style="stroke: #A80036; stroke-width: 1.0;"/><line style="stroke: #A80036; stroke-width: 1.5;" x1="292" x2="356" y1="494.75" y2="494.75"/><line style="stroke: #A80036; stroke-width: 1.5;" x1="356" x2="356" y1="494.75" y2="516.75"/><polygon fill="#A80036" points="352,506.75,356,516.75,360,506.75,356,510.75" style="stroke: #A80036; stroke-width: 1.0;"/><line style="stroke: #A80036; stroke-width: 1.5;" x1="142" x2="142" y1="619.6875" y2="637.6875"/><line style="stroke: #A80036; stroke-width: 1.5;" x1="142" x2="237" y1="637.6875" y2="637.6875"/><polygon fill="#A80036" points="227,633.6875,237,637.6875,227,641.6875,231,637.6875" style="stroke: #A80036; stroke-width: 1.0;"/><line style="stroke: #A80036; stroke-width: 1.5;" x1="356" x2="356" y1="550.7188" y2="637.6875"/><line style="stroke: #A80036; stroke-width: 1.5;" x1="356" x2="261" y1="637.6875" y2="637.6875"/><polygon fill="#A80036" points="271,633.6875,261,637.6875,271,641.6875,267,637.6875" style="stroke: #A80036; stroke-width: 1.0;"/><line style="stroke: #A80036; stroke-width: 1.5;" x1="249" x2="249" y1="447.75" y2="482.75"/><polygon fill="#A80036" points="245,472.75,249,482.75,253,472.75,249,476.75" style="stroke: #A80036; stroke-width: 1.0;"/><line style="stroke: #A80036; stroke-width: 1.5;" x1="249" x2="249" y1="649.6875" y2="669.6875"/><polygon fill="#A80036" points="245,659.6875,249,669.6875,253,659.6875,249,663.6875" style="stroke: #A80036; stroke-width: 1.0;"/><line style="stroke: #A80036; stroke-width: 1.5;" x1="598" x2="598" y1="481.75" y2="516.75"/><polygon fill="#A80036" points="594,506.75,598,516.75,602,506.75,598,510.75" style="stroke: #A80036; stroke-width: 1.0;"/><line style="stroke: #A80036; stroke-width: 1.5;" x1="657.5" x2="598" y1="425.7813" y2="425.7813"/><line style="stroke: #A80036; stroke-width: 1.5;" x1="598" x2="598" y1="425.7813" y2="447.7813"/><polygon fill="#A80036" points="594,437.7813,598,447.7813,602,437.7813,598,441.7813" style="stroke: #A80036; stroke-width: 1.0;"/><line style="stroke: #A80036; stroke-width: 1.5;" x1="757.5" x2="817" y1="425.7813" y2="425.7813"/><line style="stroke: #A80036; stroke-width: 1.5;" x1="817" x2="817" y1="425.7813" y2="447.7813"/><polygon fill="#A80036" points="813,437.7813,817,447.7813,821,437.7813,817,441.7813" style="stroke: #A80036; stroke-width: 1.0;"/><line style="stroke: #A80036; stroke-width: 1.5;" x1="598" x2="598" y1="550.7188" y2="568.7188"/><line style="stroke: #A80036; stroke-width: 1.5;" x1="598" x2="695.5" y1="568.7188" y2="568.7188"/><polygon fill="#A80036" points="685.5,564.7188,695.5,568.7188,685.5,572.7188,689.5,568.7188" style="stroke: #A80036; stroke-width: 1.0;"/><line style="stroke: #A80036; stroke-width: 1.5;" x1="817" x2="817" y1="481.75" y2="568.7188"/><line style="stroke: #A80036; stroke-width: 1.5;" x1="817" x2="719.5" y1="568.7188" y2="568.7188"/><polygon fill="#A80036" points="729.5,564.7188,719.5,568.7188,729.5,572.7188,725.5,568.7188" style="stroke: #A80036; stroke-width: 1.0;"/><line style="stroke: #A80036; stroke-width: 1.5;" x1="707.5" x2="707.5" y1="393.7813" y2="413.7813"/><polygon fill="#A80036" points="703.5,403.7813,707.5,413.7813,711.5,403.7813,707.5,407.7813" style="stroke: #A80036; stroke-width: 1.0;"/><line style="stroke: #A80036; stroke-width: 1.5;" x1="707.5" x2="707.5" y1="580.7188" y2="615.7188"/><polygon fill="#A80036" points="703.5,605.7188,707.5,615.7188,711.5,605.7188,707.5,609.7188" style="stroke: #A80036; stroke-width: 1.0;"/><line style="stroke: #A80036; stroke-width: 1.5;" x1="249" x2="249" y1="285.8438" y2="305.8438"/><polygon fill="#A80036" points="245,295.8438,249,305.8438,253,295.8438,249,299.8438" style="stroke: #A80036; stroke-width: 1.0;"/><line style="stroke: #A80036; stroke-width: 1.5;" x1="707.5" x2="707.5" y1="285.8438" y2="359.8125"/><polygon fill="#A80036" points="703.5,349.8125,707.5,359.8125,711.5,349.8125,707.5,353.8125" style="stroke: #A80036; stroke-width: 1.0;"/><line style="stroke: #A80036; stroke-width: 1.5;" x1="249" x2="249" y1="703.6563" y2="723.6563"/><polygon fill="#A80036" points="245,713.6563,249,723.6563,253,713.6563,249,717.6563" style="stroke: #A80036; stroke-width: 1.0;"/><line style="stroke: #A80036; stroke-width: 1.5;" x1="707.5" x2="707.5" y1="649.6875" y2="723.6563"/><polygon fill="#A80036" points="703.5,713.6563,707.5,723.6563,711.5,713.6563,707.5,717.6563" style="stroke: #A80036; stroke-width: 1.0;"/><line style="stroke: #A80036; stroke-width: 1.5;" x1="459" x2="459" y1="259.8438" y2="279.8438"/><polygon fill="#A80036" points="455,269.8438,459,279.8438,463,269.8438,459,273.8438" style="stroke: #A80036; stroke-width: 1.0;"/><!--MD5=[e0fd146242d88c278f187bcbf5e95942]
@startuml

:netProcessor.init();
:init_HttpProxyServer();
:eventProcessor::start();
note right: ET_NET threads start here
:plugin_init();
note right: Global plugin initialization
:cacheProcessor.start();
fork
:udpNet::start();
:init_accept_HttpProxyServer();
:TS_EVENT_LIFECYCLE_PORTS_INITIALIZED>
if (cache_wait) then (ready)
:start_HttpProxyServer();
:TS_EVENT_LIFECYCLE_PORTS_READY>
else (not ready)
:cache_wait = waited;
endif
:tasksProcessor.start();
fork again
:Cache Initialization;
if (cache_waited) then (waited)
:start_HttpProxyServer();
:TS_EVENT_LIFECYCLE_PORTS_READY>
else (not ready)
:cache_waited = ready;
endif
:TS_EVENT_LIFECYCLE_CACHE_READY>
end fork
@enduml

PlantUML version 1.2019.11(Sun Sep 22 05:02:15 CDT 2019)
(GPL source distribution)
Java Runtime: OpenJDK Runtime Environment
JVM: OpenJDK 64-Bit Server VM
Java Version: 1.8.0_222-b10
Operating System: Linux
Default Encoding: UTF-8
Language: en
Country: US
--></g></svg>